; Drill file
; Format: 2.4 (00.0000)
M48
INCH
T01C0.012
T02C0.031
T03C0.035
T04C0.043
T05C0.051
T06C0.059
%
G05
G90
T01
X014530Y014560
X015590Y015710
X015590Y017090
X015590Y018500
X015590Y019840
X017030Y021620
X017500Y021620
X017970Y021620
X018590Y021430
X018310Y023560
X016970Y024210
X016560Y024240
X019130Y025090
X020660Y024810
X020870Y024240
X021250Y023930
X021340Y025180
X022500Y025180
X022500Y024780
X022190Y026400
X021870Y026870
X023970Y026370
X024130Y027680
X024810Y027740
X025440Y028430
X024500Y028620
X024130Y023930
X024440Y023500
X025130Y023090
X024190Y022620
X021630Y022620
X018060Y026870
X017560Y028370
T02
X016370Y012840
X017850Y012840
X017820Y015030
X016340Y015030
X016370Y017180
X017850Y017180
X017850Y019340
X016370Y019340
T03
X015460Y021910
X015460Y027970
X027060Y025930
X028500Y026240
X028500Y024240
X027060Y023960
T04
X014940Y021930
X014940Y022930
X014940Y023930
X014940Y024930
X014940Y025930
X014940Y026930
X014940Y027930
X026190Y028430
X027190Y028430
T05
X022280Y012840
X024250Y012840
X026220Y012840
X026190Y015030
X024220Y015030
X022250Y015030
X022280Y017180
X024250Y017180
X026220Y017180
X026220Y019340
X024250Y019340
X022280Y019340
T06
X021250Y012810
X021250Y015030
X021250Y017180
X027280Y017210
X027560Y019400
X030030Y019900
X027560Y015030
X027280Y012900
X028870Y027120
M30
