%FSLAX32Y32*%
%MOMM*%
%LNKUPFERSEITE1*%
G71*
G01*
%ADD10C, 2.00*%
%ADD11C, 3.00*%
%ADD12C, 0.60*%
%ADD13C, 0.30*%
%ADD14C, 0.40*%
%ADD15C, 0.60*%
%ADD16C, 2.00*%
%ADD17C, 2.00*%
%ADD18C, 1.60*%
%ADD19C, 2.00*%
%ADD20C, 0.50*%
%LPD*%
X6874Y6085D02*
G54D10*
D03*
X6874Y6585D02*
G54D10*
D03*
X3927Y5564D02*
G54D10*
D03*
X3927Y7104D02*
G54D10*
D03*
X7239Y6666D02*
G54D10*
D03*
X7239Y6158D02*
G54D10*
D03*
X7334Y6888D02*
G54D11*
D03*
X6382Y5865D02*
G54D12*
D03*
G54D13*
X6239Y7270D02*
X6207Y7270D01*
X6207Y5968D01*
X5493Y5746D02*
G54D12*
D03*
G54D14*
X5144Y6126D02*
X5144Y6460D01*
X4382Y6460D01*
X4382Y6952D01*
X4223Y7111D01*
X3937Y7111D01*
G54D15*
X4874Y6015D02*
X4874Y5880D01*
X6286Y5880D01*
X6286Y7047D01*
X6302Y7047D02*
G54D12*
D03*
G54D14*
X6382Y5825D02*
X6382Y6968D01*
X6461Y7047D01*
X6461Y7222D01*
X6461Y7222D02*
G54D12*
D03*
X3794Y6840D02*
G54D16*
D03*
X3794Y6586D02*
G54D16*
D03*
X3794Y6332D02*
G54D16*
D03*
X3794Y6078D02*
G54D16*
D03*
X3794Y5824D02*
G54D16*
D03*
X3794Y5570D02*
G54D16*
D03*
X4588Y6825D02*
G54D12*
D03*
X5556Y6825D02*
G54D12*
D03*
G54D13*
X4588Y6825D02*
X5556Y6825D01*
G36*
X4466Y6383D02*
X4376Y6383D01*
X4376Y6473D01*
X4466Y6473D01*
X4466Y6383D01*
G37*
G36*
X4299Y6382D02*
X4209Y6382D01*
X4209Y6472D01*
X4299Y6472D01*
X4299Y6382D01*
G37*
X6906Y7222D02*
G54D16*
D03*
X6652Y7222D02*
G54D16*
D03*
X6207Y5968D02*
G54D12*
D03*
X5302Y6158D02*
G54D12*
D03*
X5398Y6079D02*
G54D12*
D03*
G54D13*
X5398Y6079D02*
X6128Y6079D01*
G54D13*
X5302Y6158D02*
X5818Y6158D01*
X5818Y6579D01*
X6128Y6079D02*
G54D12*
D03*
X6088Y6698D02*
G54D12*
D03*
G54D13*
X4461Y7206D02*
X4461Y7063D01*
X4556Y6968D01*
X4604Y6968D01*
X4651Y6920D01*
X6128Y6920D01*
X6128Y7031D01*
X6128Y7031D02*
G54D12*
D03*
X3794Y7095D02*
G54D16*
D03*
X4461Y7206D02*
G54D12*
D03*
X6223Y7270D02*
G54D12*
D03*
G36*
X5171Y5968D02*
X5021Y5968D01*
X5021Y6158D01*
X5171Y6158D01*
X5171Y5968D01*
G37*
G36*
X4941Y5967D02*
X4791Y5967D01*
X4791Y6157D01*
X4941Y6157D01*
X4941Y5967D01*
G37*
G36*
X4711Y5967D02*
X4561Y5967D01*
X4561Y6157D01*
X4711Y6157D01*
X4711Y5967D01*
G37*
G36*
X5075Y6544D02*
X4655Y6544D01*
X4655Y6754D01*
X5075Y6754D01*
X5075Y6544D01*
G37*
X4651Y5984D02*
G54D12*
D03*
G36*
X4514Y6605D02*
X4424Y6605D01*
X4424Y6695D01*
X4514Y6695D01*
X4514Y6605D01*
G37*
G36*
X4347Y6604D02*
X4257Y6604D01*
X4257Y6694D01*
X4347Y6694D01*
X4347Y6604D01*
G37*
G54D14*
X4493Y6650D02*
X4715Y6650D01*
X7628Y5055D02*
G54D11*
D03*
G36*
X6137Y5779D02*
X6137Y5689D01*
X6047Y5689D01*
X6047Y5779D01*
X6137Y5779D01*
G37*
G36*
X6136Y5612D02*
X6136Y5522D01*
X6046Y5522D01*
X6046Y5612D01*
X6136Y5612D01*
G37*
X6144Y5746D02*
G54D12*
D03*
G36*
X4375Y5715D02*
X4375Y5625D01*
X4285Y5625D01*
X4285Y5715D01*
X4375Y5715D01*
G37*
G36*
X4374Y5548D02*
X4374Y5458D01*
X4284Y5458D01*
X4284Y5548D01*
X4374Y5548D01*
G37*
G36*
X4494Y5715D02*
X4494Y5625D01*
X4404Y5625D01*
X4404Y5715D01*
X4494Y5715D01*
G37*
G36*
X4493Y5548D02*
X4493Y5458D01*
X4403Y5458D01*
X4403Y5548D01*
X4493Y5548D01*
G37*
G36*
X4613Y5715D02*
X4613Y5625D01*
X4523Y5625D01*
X4523Y5715D01*
X4613Y5715D01*
G37*
G36*
X4612Y5548D02*
X4612Y5458D01*
X4522Y5458D01*
X4522Y5548D01*
X4612Y5548D01*
G37*
X5715Y6293D02*
G54D12*
D03*
X5247Y6301D02*
G54D12*
D03*
X4207Y6158D02*
G54D12*
D03*
G54D13*
X5247Y6301D02*
X5707Y6301D01*
G54D13*
X4207Y6158D02*
X4207Y5976D01*
X4326Y5674D01*
X5715Y6396D02*
G54D12*
D03*
X5421Y6396D02*
G54D12*
D03*
G54D13*
X5421Y6396D02*
X5715Y6396D01*
G54D13*
X4556Y5714D02*
X5453Y5714D01*
X5493Y5753D01*
X7001Y4928D02*
G54D11*
D03*
X4858Y6373D02*
G54D12*
D03*
G54D13*
X4858Y6373D02*
X4858Y6103D01*
G54D13*
X6374Y5817D02*
X4818Y5817D01*
X4651Y5984D01*
G54D14*
X4643Y6119D02*
X4643Y6293D01*
X4262Y6293D01*
X4262Y6650D01*
X4310Y6150D02*
G54D12*
D03*
G54D13*
X4310Y6150D02*
X4310Y6071D01*
X4445Y5817D01*
X4445Y5682D01*
G36*
X5789Y6751D02*
X5879Y6751D01*
X5879Y6661D01*
X5789Y6661D01*
X5789Y6751D01*
G37*
G36*
X5956Y6750D02*
X6046Y6750D01*
X6046Y6660D01*
X5956Y6660D01*
X5956Y6750D01*
G37*
G36*
X5789Y6632D02*
X5879Y6632D01*
X5879Y6542D01*
X5789Y6542D01*
X5789Y6632D01*
G37*
G36*
X5956Y6631D02*
X6046Y6631D01*
X6046Y6541D01*
X5956Y6541D01*
X5956Y6631D01*
G37*
X5636Y6706D02*
G54D12*
D03*
G54D13*
X5636Y6706D02*
X5810Y6706D01*
G54D13*
X6009Y6595D02*
X6009Y6706D01*
X6088Y6706D01*
X5659Y4912D02*
G54D17*
D03*
X6159Y4912D02*
G54D17*
D03*
X6659Y4912D02*
G54D17*
D03*
X4159Y4912D02*
G54D18*
D03*
X4534Y4912D02*
G54D18*
D03*
X5659Y4364D02*
G54D17*
D03*
X6159Y4364D02*
G54D17*
D03*
X6659Y4364D02*
G54D17*
D03*
X4159Y4364D02*
G54D18*
D03*
X4534Y4364D02*
G54D18*
D03*
X5652Y3817D02*
G54D17*
D03*
X6152Y3817D02*
G54D17*
D03*
X6652Y3817D02*
G54D17*
D03*
X4151Y3817D02*
G54D18*
D03*
X4526Y3817D02*
G54D18*
D03*
X5659Y3261D02*
G54D17*
D03*
X6159Y3261D02*
G54D17*
D03*
X6659Y3261D02*
G54D17*
D03*
X4159Y3261D02*
G54D18*
D03*
X4534Y3261D02*
G54D18*
D03*
X5398Y3253D02*
G54D11*
D03*
X5398Y3817D02*
G54D11*
D03*
X5398Y4364D02*
G54D11*
D03*
X6929Y4372D02*
G54D11*
D03*
X7001Y3817D02*
G54D11*
D03*
X6929Y3277D02*
G54D11*
D03*
G54D19*
X6152Y4912D02*
X6152Y4380D01*
X6144Y4372D01*
G54D19*
X6160Y3809D02*
X6160Y3277D01*
X6152Y3269D01*
G54D19*
X6668Y4912D02*
X6985Y4912D01*
G54D19*
X6652Y4364D02*
X6969Y4364D01*
G54D19*
X6683Y3825D02*
X7001Y3825D01*
G54D19*
X6652Y3261D02*
X6969Y3261D01*
G54D19*
X5342Y3261D02*
X5659Y3261D01*
G54D19*
X5334Y3817D02*
X5652Y3817D01*
G54D19*
X5342Y4364D02*
X5659Y4364D01*
G36*
X3481Y5284D02*
X3631Y5284D01*
X3631Y4984D01*
X3481Y4984D01*
X3481Y5284D01*
G37*
G36*
X3861Y5284D02*
X4011Y5284D01*
X4011Y4984D01*
X3861Y4984D01*
X3861Y5284D01*
G37*
G36*
X3481Y4903D02*
X3631Y4903D01*
X3631Y4603D01*
X3481Y4603D01*
X3481Y4903D01*
G37*
G36*
X3861Y4903D02*
X4011Y4903D01*
X4011Y4603D01*
X3861Y4603D01*
X3861Y4903D01*
G37*
G36*
X3481Y4530D02*
X3631Y4530D01*
X3631Y4230D01*
X3481Y4230D01*
X3481Y4530D01*
G37*
G36*
X3861Y4530D02*
X4011Y4530D01*
X4011Y4230D01*
X3861Y4230D01*
X3861Y4530D01*
G37*
G36*
X3481Y4141D02*
X3631Y4141D01*
X3631Y3841D01*
X3481Y3841D01*
X3481Y4141D01*
G37*
G36*
X3861Y4141D02*
X4011Y4141D01*
X4011Y3841D01*
X3861Y3841D01*
X3861Y4141D01*
G37*
G54D20*
X3929Y3975D02*
X3929Y3444D01*
X4120Y3253D01*
G54D20*
X3953Y4253D02*
X3977Y4253D01*
X4052Y4218D01*
X4143Y4087D01*
X4143Y3840D01*
X4128Y3825D01*
G54D20*
X3945Y4730D02*
X4151Y4523D01*
X4151Y4388D01*
G54D20*
X3969Y5095D02*
X4024Y5095D01*
X4159Y4960D01*
X3691Y3698D02*
G54D12*
D03*
G54D20*
X3683Y3706D02*
X3548Y3840D01*
X3548Y5230D01*
G54D20*
X4056Y7111D02*
X4056Y5722D01*
X4151Y5626D01*
X4151Y5547D01*
X3985Y5380D01*
X3659Y5380D01*
X3548Y5269D01*
G54D13*
X6144Y5746D02*
X5628Y5746D01*
X5532Y5650D01*
X4739Y5650D01*
G36*
X4674Y5403D02*
X4674Y5493D01*
X4764Y5493D01*
X4764Y5403D01*
X4674Y5403D01*
G37*
G36*
X4673Y5570D02*
X4673Y5660D01*
X4763Y5660D01*
X4763Y5570D01*
X4673Y5570D01*
G37*
X3961Y3991D02*
G54D12*
D03*
X3961Y5039D02*
G54D12*
D03*
X3961Y4698D02*
G54D12*
D03*
X3961Y4341D02*
G54D12*
D03*
X4326Y5492D02*
G54D12*
D03*
X4445Y5492D02*
G54D12*
D03*
X4564Y5492D02*
G54D12*
D03*
X4723Y5444D02*
G54D12*
D03*
M02*
