%FSLAX32Y32*%
%MOMM*%
%LNKUPFERSEITE2*%
G71*
G01*
%ADD10C, 2.00*%
%ADD11C, 3.00*%
%ADD12C, 1.00*%
%ADD13C, 0.60*%
%ADD14C, 0.30*%
%ADD15C, 0.50*%
%ADD16C, 2.00*%
%ADD17C, 0.40*%
%ADD18C, 2.00*%
%ADD19C, 1.60*%
%ADD20C, 2.00*%
%LPD*%
X6874Y6085D02*
G54D10*
D03*
X6874Y6585D02*
G54D10*
D03*
X3927Y5564D02*
G54D10*
D03*
X3927Y7104D02*
G54D10*
D03*
X7239Y6666D02*
G54D10*
D03*
X7239Y6158D02*
G54D10*
D03*
G36*
X6253Y5616D02*
X6373Y5616D01*
X6373Y5466D01*
X6253Y5466D01*
X6253Y5616D01*
G37*
G36*
X6053Y5616D02*
X6173Y5616D01*
X6173Y5466D01*
X6053Y5466D01*
X6053Y5616D01*
G37*
G36*
X5853Y5616D02*
X5973Y5616D01*
X5973Y5466D01*
X5853Y5466D01*
X5853Y5616D01*
G37*
G36*
X5653Y5616D02*
X5773Y5616D01*
X5773Y5466D01*
X5653Y5466D01*
X5653Y5616D01*
G37*
G36*
X5453Y5616D02*
X5573Y5616D01*
X5573Y5466D01*
X5453Y5466D01*
X5453Y5616D01*
G37*
G36*
X5253Y5616D02*
X5373Y5616D01*
X5373Y5466D01*
X5253Y5466D01*
X5253Y5616D01*
G37*
G36*
X5053Y5616D02*
X5173Y5616D01*
X5173Y5466D01*
X5053Y5466D01*
X5053Y5616D01*
G37*
G36*
X4853Y5616D02*
X4973Y5616D01*
X4973Y5466D01*
X4853Y5466D01*
X4853Y5616D01*
G37*
G36*
X6253Y7179D02*
X6373Y7179D01*
X6373Y7029D01*
X6253Y7029D01*
X6253Y7179D01*
G37*
G36*
X6053Y7179D02*
X6173Y7179D01*
X6173Y7029D01*
X6053Y7029D01*
X6053Y7179D01*
G37*
G36*
X5853Y7179D02*
X5973Y7179D01*
X5973Y7029D01*
X5853Y7029D01*
X5853Y7179D01*
G37*
G36*
X5653Y7179D02*
X5773Y7179D01*
X5773Y7029D01*
X5653Y7029D01*
X5653Y7179D01*
G37*
G36*
X5453Y7179D02*
X5573Y7179D01*
X5573Y7029D01*
X5453Y7029D01*
X5453Y7179D01*
G37*
G36*
X5253Y7179D02*
X5373Y7179D01*
X5373Y7029D01*
X5253Y7029D01*
X5253Y7179D01*
G37*
G36*
X5053Y7179D02*
X5173Y7179D01*
X5173Y7029D01*
X5053Y7029D01*
X5053Y7179D01*
G37*
G36*
X4853Y7179D02*
X4973Y7179D01*
X4973Y7029D01*
X4853Y7029D01*
X4853Y7179D01*
G37*
X7334Y6888D02*
G54D11*
D03*
G54D12*
X7334Y6873D02*
X7334Y6603D01*
X6842Y6603D01*
X6382Y5865D02*
G54D13*
D03*
G36*
X6487Y7226D02*
X6397Y7226D01*
X6397Y7316D01*
X6487Y7316D01*
X6487Y7226D01*
G37*
G36*
X6320Y7225D02*
X6230Y7225D01*
X6230Y7315D01*
X6320Y7315D01*
X6320Y7225D01*
G37*
G36*
X4884Y7226D02*
X4794Y7226D01*
X4794Y7316D01*
X4884Y7316D01*
X4884Y7226D01*
G37*
G36*
X4717Y7225D02*
X4627Y7225D01*
X4627Y7315D01*
X4717Y7315D01*
X4717Y7225D01*
G37*
G36*
X5836Y7226D02*
X5746Y7226D01*
X5746Y7316D01*
X5836Y7316D01*
X5836Y7226D01*
G37*
G36*
X5669Y7225D02*
X5579Y7225D01*
X5579Y7315D01*
X5669Y7315D01*
X5669Y7225D01*
G37*
G36*
X5550Y7226D02*
X5460Y7226D01*
X5460Y7316D01*
X5550Y7316D01*
X5550Y7226D01*
G37*
G36*
X5383Y7225D02*
X5293Y7225D01*
X5293Y7315D01*
X5383Y7315D01*
X5383Y7225D01*
G37*
G36*
X5233Y7226D02*
X5143Y7226D01*
X5143Y7316D01*
X5233Y7316D01*
X5233Y7226D01*
G37*
G36*
X5066Y7225D02*
X4976Y7225D01*
X4976Y7315D01*
X5066Y7315D01*
X5066Y7225D01*
G37*
G54D14*
X5509Y7270D02*
X5509Y7349D01*
X5794Y7349D01*
X5794Y7285D01*
X5794Y7349D01*
X6080Y7349D01*
X6080Y7349D01*
X6080Y7349D01*
X6366Y7349D01*
X6366Y7127D01*
G54D15*
X5334Y7270D02*
X5334Y7127D01*
G54D14*
X5524Y7349D02*
X5191Y7349D01*
X5191Y7285D01*
G54D14*
X5016Y7270D02*
X4921Y7270D01*
X4921Y7127D01*
G54D14*
X5620Y7270D02*
X5620Y6015D01*
X5921Y5714D01*
X5921Y5571D01*
X5493Y5746D02*
G54D13*
D03*
G54D14*
X5493Y5761D02*
X5493Y7095D01*
X6302Y7047D02*
G54D13*
D03*
X6461Y7222D02*
G54D13*
D03*
X3794Y6840D02*
G54D16*
D03*
X3794Y6586D02*
G54D16*
D03*
X3794Y6332D02*
G54D16*
D03*
X3794Y6078D02*
G54D16*
D03*
X3794Y5824D02*
G54D16*
D03*
X3794Y5570D02*
G54D16*
D03*
G54D14*
X4905Y7095D02*
X4905Y6587D01*
X3842Y6587D01*
G54D14*
X5715Y5555D02*
X5715Y5714D01*
X5556Y5872D01*
X5556Y6825D01*
G54D14*
X4572Y6825D02*
X3810Y6825D01*
X4588Y6825D02*
G54D13*
D03*
X5556Y6825D02*
G54D13*
D03*
G54D14*
X4905Y5555D02*
X4905Y6079D01*
X4588Y6079D01*
X4334Y5825D01*
X3794Y5825D01*
X3778Y5809D01*
G54D14*
X3810Y6063D02*
X4334Y6063D01*
X4413Y6142D01*
X5112Y6142D01*
X5112Y5571D01*
X5128Y5555D01*
G54D14*
X5223Y7349D02*
X4842Y7349D01*
X4842Y7285D01*
G54D14*
X4667Y7270D02*
X4667Y6904D01*
X4588Y6825D01*
X6906Y7222D02*
G54D16*
D03*
X6652Y7222D02*
G54D16*
D03*
X6207Y5968D02*
G54D13*
D03*
G54D14*
X6112Y5523D02*
X6112Y5761D01*
X6223Y5872D01*
X6223Y5968D01*
G54D14*
X5302Y5555D02*
X5302Y6158D01*
G54D14*
X5509Y5571D02*
X5509Y5587D01*
X5398Y5698D01*
X5398Y6079D01*
X5302Y6158D02*
G54D13*
D03*
X5398Y6079D02*
G54D13*
D03*
X6128Y6079D02*
G54D13*
D03*
X6088Y6698D02*
G54D13*
D03*
G54D14*
X6906Y7222D02*
X6858Y7111D01*
X6794Y7063D01*
X6763Y7063D01*
X6318Y6619D01*
X6318Y6126D01*
X6271Y6079D01*
X6128Y6079D01*
G54D14*
X6088Y6698D02*
X6223Y6698D01*
X6683Y7158D01*
G36*
X4540Y7329D02*
X4540Y7179D01*
X4190Y7179D01*
X4190Y7329D01*
X4540Y7329D01*
G37*
X6128Y7031D02*
G54D13*
D03*
X3794Y7095D02*
G54D16*
D03*
X4461Y7206D02*
G54D13*
D03*
X6223Y7270D02*
G54D13*
D03*
G54D17*
X3937Y5587D02*
X3937Y5730D01*
X4397Y5730D01*
X4651Y5984D01*
X4651Y5984D02*
G54D13*
D03*
G36*
X6697Y5725D02*
X6897Y5725D01*
X6897Y5350D01*
X6697Y5350D01*
X6697Y5725D01*
G37*
G36*
X7538Y5724D02*
X7738Y5724D01*
X7738Y5349D01*
X7538Y5349D01*
X7538Y5724D01*
G37*
X7628Y5055D02*
G54D11*
D03*
G54D17*
X6326Y5587D02*
X6326Y5690D01*
X6382Y5746D01*
X6382Y5872D01*
X6144Y5746D02*
G54D13*
D03*
G54D14*
X5913Y7071D02*
X5913Y6293D01*
X5715Y6293D01*
X5715Y6293D02*
G54D13*
D03*
X5247Y6301D02*
G54D13*
D03*
X4207Y6158D02*
G54D13*
D03*
G54D14*
X5247Y6301D02*
X5144Y6285D01*
X4342Y6285D01*
X4207Y6158D01*
G54D14*
X5715Y7071D02*
X5715Y6396D01*
X5715Y6396D02*
G54D13*
D03*
X5421Y6396D02*
G54D13*
D03*
G36*
X6138Y7226D02*
X6048Y7226D01*
X6048Y7316D01*
X6138Y7316D01*
X6138Y7226D01*
G37*
G36*
X5971Y7225D02*
X5881Y7225D01*
X5881Y7315D01*
X5971Y7315D01*
X5971Y7225D01*
G37*
G54D14*
X5921Y7277D02*
X5921Y7349D01*
G54D14*
X6096Y7270D02*
X6096Y7135D01*
X7001Y4928D02*
G54D11*
D03*
G54D12*
X6874Y6071D02*
X7144Y6071D01*
X7231Y6158D01*
G54D14*
X3850Y6341D02*
X4826Y6341D01*
X4858Y6373D01*
X4858Y6373D02*
G54D13*
D03*
G54D14*
X5421Y6396D02*
X5421Y6341D01*
X5310Y6230D01*
X4389Y6230D01*
X4310Y6150D01*
X4310Y6150D02*
G54D13*
D03*
X5636Y6706D02*
G54D13*
D03*
X5659Y4912D02*
G54D18*
D03*
X6159Y4912D02*
G54D18*
D03*
X6659Y4912D02*
G54D18*
D03*
X4159Y4912D02*
G54D19*
D03*
X4534Y4912D02*
G54D19*
D03*
X5659Y4364D02*
G54D18*
D03*
X6159Y4364D02*
G54D18*
D03*
X6659Y4364D02*
G54D18*
D03*
X4159Y4364D02*
G54D19*
D03*
X4534Y4364D02*
G54D19*
D03*
X5652Y3817D02*
G54D18*
D03*
X6152Y3817D02*
G54D18*
D03*
X6652Y3817D02*
G54D18*
D03*
X4151Y3817D02*
G54D19*
D03*
X4526Y3817D02*
G54D19*
D03*
X5659Y3261D02*
G54D18*
D03*
X6159Y3261D02*
G54D18*
D03*
X6659Y3261D02*
G54D18*
D03*
X4159Y3261D02*
G54D19*
D03*
X4534Y3261D02*
G54D19*
D03*
X5398Y3253D02*
G54D11*
D03*
X5398Y3817D02*
G54D11*
D03*
X5398Y4364D02*
G54D11*
D03*
G54D20*
X7231Y6142D02*
X7128Y5872D01*
X6842Y5587D01*
X6802Y5587D01*
X6644Y5325D01*
X6644Y4904D01*
X6929Y4372D02*
G54D11*
D03*
X7001Y3817D02*
G54D11*
D03*
X6929Y3277D02*
G54D11*
D03*
G54D20*
X7644Y5563D02*
X7644Y5031D01*
X7636Y5023D01*
G54D15*
X4524Y3253D02*
X4516Y3253D01*
X4318Y3452D01*
X3937Y3452D01*
X3691Y3698D01*
X3691Y3698D02*
G54D13*
D03*
G54D15*
X4524Y3253D02*
X4524Y4904D01*
G36*
X3773Y4143D02*
X3773Y4033D01*
X3663Y4033D01*
X3663Y4143D01*
X3773Y4143D01*
G37*
G36*
X3773Y3953D02*
X3773Y3843D01*
X3663Y3843D01*
X3663Y3953D01*
X3773Y3953D01*
G37*
G36*
X3995Y4048D02*
X3995Y3938D01*
X3885Y3938D01*
X3885Y4048D01*
X3995Y4048D01*
G37*
X3961Y3991D02*
G54D13*
D03*
G36*
X3773Y4492D02*
X3773Y4382D01*
X3663Y4382D01*
X3663Y4492D01*
X3773Y4492D01*
G37*
G36*
X3773Y4302D02*
X3773Y4192D01*
X3663Y4192D01*
X3663Y4302D01*
X3773Y4302D01*
G37*
G36*
X3995Y4397D02*
X3995Y4287D01*
X3885Y4287D01*
X3885Y4397D01*
X3995Y4397D01*
G37*
G36*
X3773Y4849D02*
X3773Y4739D01*
X3663Y4739D01*
X3663Y4849D01*
X3773Y4849D01*
G37*
G36*
X3773Y4659D02*
X3773Y4549D01*
X3663Y4549D01*
X3663Y4659D01*
X3773Y4659D01*
G37*
G36*
X3995Y4754D02*
X3995Y4644D01*
X3885Y4644D01*
X3885Y4754D01*
X3995Y4754D01*
G37*
G36*
X3773Y5191D02*
X3773Y5081D01*
X3663Y5081D01*
X3663Y5191D01*
X3773Y5191D01*
G37*
G36*
X3773Y5000D02*
X3773Y4890D01*
X3663Y4890D01*
X3663Y5000D01*
X3773Y5000D01*
G37*
G36*
X3995Y5096D02*
X3995Y4986D01*
X3885Y4986D01*
X3885Y5095D01*
X3995Y5096D01*
G37*
X3961Y5039D02*
G54D13*
D03*
X3961Y4698D02*
G54D13*
D03*
X3961Y4341D02*
G54D13*
D03*
G54D14*
X3723Y4094D02*
X3834Y4094D01*
X3834Y5158D01*
X4810Y5158D01*
X4810Y5817D01*
X4643Y5984D01*
G54D14*
X3707Y4801D02*
X3834Y4801D01*
G54D14*
X3731Y5142D02*
X3826Y5142D01*
G54D14*
X3723Y4444D02*
X3834Y4444D01*
G54D14*
X3691Y4944D02*
X3635Y4944D01*
X3627Y4944D01*
X3627Y5238D01*
X4675Y5238D01*
X4723Y5285D01*
X4723Y5444D01*
G54D14*
X3691Y4602D02*
X3580Y4602D01*
X3580Y5285D01*
X4524Y5285D01*
X4564Y5325D01*
X4564Y5484D01*
G54D14*
X3691Y4245D02*
X3532Y4245D01*
X3532Y5333D01*
X4405Y5333D01*
X4445Y5372D01*
X4445Y5492D01*
G54D14*
X3699Y3896D02*
X3492Y3896D01*
X3492Y5380D01*
X4302Y5380D01*
X4326Y5404D01*
X4326Y5492D01*
X4326Y5492D02*
G54D13*
D03*
X4445Y5492D02*
G54D13*
D03*
X4564Y5492D02*
G54D13*
D03*
X4723Y5444D02*
G54D13*
D03*
M02*
