%FSLAX32Y32*%
%MOMM*%
%LNBESTUECKUNG1*%
G71*
G01*
%ADD10C, 0.24*%
%ADD11C, 0.22*%
%ADD12C, 0.13*%
%ADD13C, 0.16*%
%ADD14C, 0.11*%
%ADD15C, 0.10*%
%LPD*%
G54D10*
X7394Y5742D02*
X7394Y5875D01*
X7324Y5875D01*
G54D10*
X7394Y5809D02*
X7324Y5809D01*
G54D10*
X7278Y5825D02*
X7228Y5875D01*
X7228Y5742D01*
G54D11*
X7111Y6724D02*
X7111Y6902D01*
X7004Y6724D01*
X7004Y6902D01*
G54D12*
X7286Y6438D02*
X7246Y6331D01*
X7206Y6438D01*
G54D12*
X7177Y6331D02*
X7177Y6438D01*
X7137Y6438D01*
X7121Y6431D01*
X7113Y6418D01*
X7113Y6351D01*
X7121Y6338D01*
X7137Y6331D01*
X7177Y6331D01*
G54D12*
X7052Y6385D02*
X7028Y6371D01*
X7020Y6358D01*
X7020Y6331D01*
G54D12*
X7084Y6331D02*
X7084Y6438D01*
X7044Y6438D01*
X7028Y6431D01*
X7020Y6418D01*
X7020Y6405D01*
X7028Y6391D01*
X7044Y6385D01*
X7084Y6385D01*
G54D12*
X6991Y6398D02*
X6951Y6438D01*
X6951Y6331D01*
G54D13*
X4031Y5777D02*
X4031Y5866D01*
G54D13*
X4058Y5866D02*
X4004Y5866D01*
G54D13*
X3974Y5866D02*
X3907Y5777D01*
G54D13*
X3974Y5777D02*
X3907Y5866D01*
G54D13*
X4031Y6076D02*
X4011Y6065D01*
X4004Y6054D01*
X4004Y6032D01*
G54D13*
X4058Y6032D02*
X4058Y6121D01*
X4024Y6121D01*
X4011Y6115D01*
X4004Y6104D01*
X4004Y6093D01*
X4011Y6082D01*
X4024Y6076D01*
X4058Y6076D01*
G54D13*
X3974Y6121D02*
X3907Y6032D01*
G54D13*
X3974Y6032D02*
X3907Y6121D01*
G54D13*
X4073Y6358D02*
X4066Y6369D01*
X4053Y6375D01*
X4040Y6375D01*
X4026Y6369D01*
X4020Y6358D01*
X4020Y6347D01*
X4026Y6336D01*
X4040Y6330D01*
X4026Y6325D01*
X4020Y6313D01*
X4020Y6302D01*
X4026Y6291D01*
X4040Y6286D01*
X4053Y6286D01*
X4066Y6291D01*
X4073Y6302D01*
G54D13*
X3989Y6286D02*
X3989Y6286D01*
G54D13*
X3958Y6358D02*
X3951Y6369D01*
X3938Y6375D01*
X3925Y6375D01*
X3911Y6369D01*
X3905Y6358D01*
X3905Y6347D01*
X3911Y6336D01*
X3925Y6330D01*
X3911Y6325D01*
X3905Y6313D01*
X3905Y6302D01*
X3911Y6291D01*
X3925Y6286D01*
X3938Y6286D01*
X3951Y6291D01*
X3958Y6302D01*
G54D14*
X6599Y6931D02*
X6599Y6878D01*
X6605Y6878D01*
X6616Y6884D01*
X6649Y6924D01*
X6660Y6931D01*
X6671Y6931D01*
X6682Y6924D01*
X6688Y6911D01*
X6688Y6898D01*
X6682Y6884D01*
X6671Y6878D01*
G54D14*
X6599Y6955D02*
X6688Y7008D01*
G54D14*
X6688Y7085D02*
X6688Y7032D01*
X6649Y7032D01*
X6649Y7038D01*
X6655Y7052D01*
X6655Y7065D01*
X6649Y7078D01*
X6638Y7085D01*
X6616Y7085D01*
X6605Y7078D01*
X6599Y7065D01*
X6599Y7052D01*
X6605Y7038D01*
X6616Y7032D01*
G54D14*
X6905Y7009D02*
X6842Y7072D01*
X6910Y7061D01*
X6917Y7053D01*
X6880Y7015D01*
G54D13*
X4076Y6584D02*
X4056Y6573D01*
X4049Y6562D01*
X4049Y6540D01*
G54D13*
X4102Y6540D02*
X4102Y6629D01*
X4069Y6629D01*
X4056Y6623D01*
X4049Y6612D01*
X4049Y6601D01*
X4056Y6590D01*
X4069Y6584D01*
X4102Y6584D01*
G54D13*
X3978Y6545D02*
X3989Y6540D01*
X4002Y6540D01*
X4016Y6545D01*
X4018Y6556D01*
X4018Y6575D01*
X4012Y6586D01*
X3998Y6590D01*
X3985Y6586D01*
X3978Y6579D01*
X3978Y6567D01*
X4018Y6567D01*
G54D13*
X3948Y6545D02*
X3934Y6540D01*
X3921Y6540D01*
X3908Y6545D01*
X3908Y6556D01*
X3914Y6562D01*
X3941Y6567D01*
X3948Y6573D01*
X3948Y6584D01*
X3934Y6590D01*
X3921Y6590D01*
X3908Y6584D01*
G54D13*
X4057Y6794D02*
X4057Y6883D01*
X4024Y6883D01*
X4011Y6877D01*
X4004Y6866D01*
X4004Y6810D01*
X4011Y6799D01*
X4024Y6794D01*
X4057Y6794D01*
G54D13*
X3920Y6866D02*
X3920Y6810D01*
X3927Y6799D01*
X3940Y6794D01*
X3953Y6794D01*
X3967Y6799D01*
X3973Y6810D01*
X3973Y6866D01*
X3967Y6877D01*
X3953Y6883D01*
X3940Y6883D01*
X3927Y6877D01*
X3920Y6866D01*
G54D15*
X4416Y6389D02*
X4416Y6467D01*
X4260Y6467D01*
X4260Y6389D01*
X4416Y6389D01*
G54D13*
X4158Y7262D02*
X4125Y7295D01*
X4125Y7206D01*
G54D13*
X4094Y7279D02*
X4088Y7290D01*
X4074Y7295D01*
X4061Y7295D01*
X4048Y7290D01*
X4041Y7279D01*
X4041Y7267D01*
X4048Y7256D01*
X4061Y7251D01*
X4048Y7245D01*
X4041Y7234D01*
X4041Y7223D01*
X4048Y7212D01*
X4061Y7206D01*
X4074Y7206D01*
X4088Y7212D01*
X4094Y7223D01*
G54D13*
X3821Y7327D02*
X3874Y7327D01*
X3874Y7288D01*
X3867Y7288D01*
X3854Y7294D01*
X3841Y7294D01*
X3827Y7288D01*
X3821Y7277D01*
X3821Y7255D01*
X3827Y7244D01*
X3841Y7238D01*
X3854Y7238D01*
X3867Y7244D01*
X3874Y7255D01*
G54D13*
X3790Y7327D02*
X3757Y7238D01*
X3723Y7327D01*
G54D12*
X5183Y6940D02*
X5159Y6927D01*
X5151Y6913D01*
X5151Y6887D01*
G54D12*
X5215Y6887D02*
X5215Y6993D01*
X5175Y6993D01*
X5159Y6987D01*
X5151Y6973D01*
X5151Y6960D01*
X5159Y6947D01*
X5175Y6940D01*
X5215Y6940D01*
G54D12*
X5122Y6953D02*
X5082Y6993D01*
X5082Y6887D01*
G54D12*
X5053Y6953D02*
X5013Y6993D01*
X5013Y6887D01*
G54D12*
X5496Y6940D02*
X5472Y6927D01*
X5464Y6913D01*
X5464Y6887D01*
G54D12*
X5528Y6887D02*
X5528Y6993D01*
X5488Y6993D01*
X5472Y6987D01*
X5464Y6973D01*
X5464Y6960D01*
X5472Y6947D01*
X5488Y6940D01*
X5528Y6940D01*
G54D12*
X5435Y6953D02*
X5395Y6993D01*
X5395Y6887D01*
G54D12*
X5302Y6973D02*
X5302Y6907D01*
X5310Y6893D01*
X5326Y6887D01*
X5342Y6887D01*
X5358Y6893D01*
X5366Y6907D01*
X5366Y6973D01*
X5358Y6987D01*
X5342Y6993D01*
X5326Y6993D01*
X5310Y6987D01*
X5302Y6973D01*
G54D12*
X5782Y6940D02*
X5758Y6927D01*
X5750Y6913D01*
X5750Y6887D01*
G54D12*
X5814Y6887D02*
X5814Y6993D01*
X5774Y6993D01*
X5758Y6987D01*
X5750Y6973D01*
X5750Y6960D01*
X5758Y6947D01*
X5774Y6940D01*
X5814Y6940D01*
G54D12*
X5721Y6953D02*
X5681Y6993D01*
X5681Y6887D01*
G54D12*
X5588Y6993D02*
X5652Y6993D01*
X5652Y6947D01*
X5644Y6947D01*
X5628Y6953D01*
X5612Y6953D01*
X5596Y6947D01*
X5588Y6933D01*
X5588Y6907D01*
X5596Y6893D01*
X5612Y6887D01*
X5628Y6887D01*
X5644Y6893D01*
X5652Y6907D01*
G54D12*
X4830Y6940D02*
X4806Y6927D01*
X4798Y6913D01*
X4798Y6887D01*
G54D12*
X4862Y6887D02*
X4862Y6993D01*
X4822Y6993D01*
X4806Y6987D01*
X4798Y6973D01*
X4798Y6960D01*
X4806Y6947D01*
X4822Y6940D01*
X4862Y6940D01*
G54D12*
X4769Y6953D02*
X4729Y6993D01*
X4729Y6887D01*
G54D12*
X4700Y6907D02*
X4692Y6893D01*
X4676Y6887D01*
X4660Y6887D01*
X4644Y6893D01*
X4636Y6907D01*
X4636Y6940D01*
X4636Y6947D01*
X4660Y6933D01*
X4676Y6933D01*
X4692Y6940D01*
X4700Y6953D01*
X4700Y6973D01*
X4692Y6987D01*
X4676Y6993D01*
X4660Y6993D01*
X4644Y6987D01*
X4636Y6973D01*
X4636Y6940D01*
G54D12*
X6449Y6940D02*
X6425Y6927D01*
X6417Y6913D01*
X6417Y6887D01*
G54D12*
X6481Y6887D02*
X6481Y6993D01*
X6441Y6993D01*
X6425Y6987D01*
X6417Y6973D01*
X6417Y6960D01*
X6425Y6947D01*
X6441Y6940D01*
X6481Y6940D01*
G54D12*
X6388Y6953D02*
X6348Y6993D01*
X6348Y6887D01*
G54D12*
X6271Y6887D02*
X6271Y6993D01*
X6319Y6927D01*
X6319Y6913D01*
X6255Y6913D01*
G54D15*
X5183Y6175D02*
X5183Y6524D01*
X4548Y6524D01*
X4548Y6175D01*
X5183Y6175D01*
G54D15*
X4464Y6611D02*
X4464Y6689D01*
X4308Y6689D01*
X4308Y6611D01*
X4464Y6611D01*
G54D15*
X6053Y5729D02*
X6131Y5729D01*
X6131Y5573D01*
X6053Y5573D01*
X6053Y5729D01*
G54D15*
X4291Y5665D02*
X4369Y5665D01*
X4369Y5509D01*
X4291Y5509D01*
X4291Y5665D01*
G54D15*
X4410Y5665D02*
X4488Y5665D01*
X4488Y5509D01*
X4410Y5509D01*
X4410Y5665D01*
G54D15*
X4529Y5665D02*
X4607Y5665D01*
X4607Y5509D01*
X4529Y5509D01*
X4529Y5665D01*
G54D10*
X7663Y4859D02*
X7663Y4726D01*
X7593Y4726D01*
G54D10*
X7150Y4508D02*
X7100Y4558D01*
X7100Y4424D01*
G54D10*
X5100Y4305D02*
X5180Y4305D01*
X5180Y4314D01*
X5170Y4330D01*
X5110Y4380D01*
X5100Y4397D01*
X5100Y4414D01*
X5110Y4430D01*
X5130Y4439D01*
X5150Y4439D01*
X5170Y4430D01*
X5180Y4414D01*
G54D10*
X7236Y3691D02*
X7226Y3708D01*
X7206Y3716D01*
X7186Y3716D01*
X7166Y3708D01*
X7156Y3691D01*
X7156Y3675D01*
X7166Y3658D01*
X7186Y3650D01*
X7166Y3641D01*
X7156Y3625D01*
X7156Y3608D01*
X7166Y3591D01*
X7186Y3583D01*
X7206Y3583D01*
X7226Y3591D01*
X7236Y3608D01*
G54D10*
X5088Y3797D02*
X5088Y3931D01*
X5148Y3847D01*
X5148Y3831D01*
X5068Y3831D01*
G54D12*
X6111Y6932D02*
X6087Y6919D01*
X6079Y6905D01*
X6079Y6879D01*
G54D12*
X6143Y6879D02*
X6143Y6985D01*
X6103Y6985D01*
X6087Y6979D01*
X6079Y6965D01*
X6079Y6952D01*
X6087Y6939D01*
X6103Y6932D01*
X6143Y6932D01*
G54D12*
X5986Y6879D02*
X6050Y6879D01*
X6050Y6885D01*
X6042Y6899D01*
X5994Y6939D01*
X5986Y6952D01*
X5986Y6965D01*
X5994Y6979D01*
X6010Y6985D01*
X6026Y6985D01*
X6042Y6979D01*
X6050Y6965D01*
G54D12*
X5893Y6965D02*
X5893Y6899D01*
X5901Y6885D01*
X5917Y6879D01*
X5933Y6879D01*
X5949Y6885D01*
X5957Y6899D01*
X5957Y6965D01*
X5949Y6979D01*
X5933Y6985D01*
X5917Y6985D01*
X5901Y6979D01*
X5893Y6965D01*
G54D15*
X5839Y6667D02*
X5839Y6745D01*
X5995Y6745D01*
X5995Y6667D01*
X5839Y6667D01*
G54D15*
X5839Y6548D02*
X5839Y6626D01*
X5995Y6626D01*
X5995Y6548D01*
X5839Y6548D01*
G54D10*
X5084Y3318D02*
X5094Y3335D01*
X5114Y3343D01*
X5134Y3343D01*
X5154Y3335D01*
X5164Y3318D01*
X5164Y3277D01*
X5164Y3268D01*
X5134Y3285D01*
X5114Y3285D01*
X5094Y3277D01*
X5084Y3260D01*
X5084Y3235D01*
X5094Y3218D01*
X5114Y3210D01*
X5134Y3210D01*
X5154Y3218D01*
X5164Y3235D01*
X5164Y3277D01*
G54D10*
X7076Y3502D02*
X7156Y3502D01*
X7156Y3444D01*
X7146Y3444D01*
X7126Y3452D01*
X7106Y3452D01*
X7086Y3444D01*
X7076Y3427D01*
X7076Y3394D01*
X7086Y3377D01*
X7106Y3369D01*
X7126Y3369D01*
X7146Y3377D01*
X7156Y3394D01*
G54D10*
X6165Y4195D02*
X6165Y4115D01*
G54D10*
X6132Y4195D02*
X6132Y4115D01*
G54D10*
X6165Y4068D02*
X6165Y3988D01*
G54D10*
X6132Y4068D02*
X6132Y3988D01*
G54D10*
X6356Y4137D02*
X6356Y4029D01*
X6366Y4012D01*
X6386Y4004D01*
X6406Y4004D01*
X6426Y4012D01*
X6436Y4029D01*
G54D10*
X6309Y4087D02*
X6259Y4137D01*
X6259Y4004D01*
G54D10*
X7116Y4169D02*
X7116Y4060D01*
X7126Y4044D01*
X7146Y4035D01*
X7166Y4035D01*
X7186Y4044D01*
X7196Y4060D01*
G54D10*
X6989Y4035D02*
X7069Y4035D01*
X7069Y4044D01*
X7059Y4060D01*
X6999Y4110D01*
X6989Y4127D01*
X6989Y4144D01*
X6999Y4160D01*
X7019Y4169D01*
X7039Y4169D01*
X7059Y4160D01*
X7069Y4144D01*
G54D10*
X7180Y3821D02*
X7213Y3821D01*
G54D10*
X7180Y3851D02*
X7213Y3851D01*
G54D10*
X7238Y3898D02*
X7238Y3978D01*
G54D10*
X7271Y3898D02*
X7271Y3978D01*
G54D10*
X7238Y4025D02*
X7238Y4105D01*
G54D10*
X7271Y4025D02*
X7271Y4105D01*
G54D10*
X7238Y4152D02*
X7238Y4232D01*
G54D10*
X7271Y4152D02*
X7271Y4232D01*
G54D10*
X7238Y4279D02*
X7238Y4359D01*
G54D10*
X7271Y4279D02*
X7271Y4359D01*
G54D10*
X7238Y4406D02*
X7238Y4486D01*
G54D10*
X7271Y4406D02*
X7271Y4486D01*
G54D10*
X7238Y4533D02*
X7238Y4613D01*
G54D10*
X7271Y4533D02*
X7271Y4613D01*
G54D10*
X7238Y4660D02*
X7238Y4740D01*
G54D10*
X7271Y4660D02*
X7271Y4740D01*
G54D10*
X7238Y4787D02*
X7238Y4867D01*
G54D10*
X7271Y4787D02*
X7271Y4867D01*
G54D10*
X7180Y4914D02*
X7213Y4914D01*
G54D10*
X7180Y4944D02*
X7213Y4944D01*
G54D15*
X3546Y5259D02*
X3946Y5259D01*
X3946Y5009D01*
X3546Y5009D01*
X3546Y5259D01*
G36*
X3546Y5259D02*
X3546Y5009D01*
X3646Y5009D01*
X3646Y5259D01*
X3546Y5259D01*
G37*
G54D15*
X3546Y5259D02*
X3546Y5009D01*
X3646Y5009D01*
X3646Y5259D01*
X3546Y5259D01*
G54D15*
X3546Y4878D02*
X3946Y4878D01*
X3946Y4628D01*
X3546Y4628D01*
X3546Y4878D01*
G36*
X3546Y4878D02*
X3546Y4628D01*
X3646Y4628D01*
X3646Y4878D01*
X3546Y4878D01*
G37*
G54D15*
X3546Y4878D02*
X3546Y4628D01*
X3646Y4628D01*
X3646Y4878D01*
X3546Y4878D01*
G54D15*
X3546Y4505D02*
X3946Y4505D01*
X3946Y4255D01*
X3546Y4255D01*
X3546Y4505D01*
G36*
X3546Y4505D02*
X3546Y4255D01*
X3646Y4255D01*
X3646Y4505D01*
X3546Y4505D01*
G37*
G54D15*
X3546Y4505D02*
X3546Y4255D01*
X3646Y4255D01*
X3646Y4505D01*
X3546Y4505D01*
G54D15*
X3546Y4116D02*
X3946Y4116D01*
X3946Y3866D01*
X3546Y3866D01*
X3546Y4116D01*
G36*
X3546Y4116D02*
X3546Y3866D01*
X3646Y3866D01*
X3646Y4116D01*
X3546Y4116D01*
G37*
G54D15*
X3546Y4116D02*
X3546Y3866D01*
X3646Y3866D01*
X3646Y4116D01*
X3546Y4116D01*
G54D15*
X4680Y5453D02*
X4758Y5453D01*
X4758Y5609D01*
X4680Y5609D01*
X4680Y5453D01*
M02*
