%FSLAX32Y32*%
%MOMM*%
%LNSMD_Maske2*%
G71*
G01*
%LPD*%
G36*
X6263Y5606D02*
X6363Y5606D01*
X6363Y5476D01*
X6263Y5476D01*
X6263Y5606D01*
G37*
G36*
X6063Y5606D02*
X6163Y5606D01*
X6163Y5476D01*
X6063Y5476D01*
X6063Y5606D01*
G37*
G36*
X5863Y5606D02*
X5963Y5606D01*
X5963Y5476D01*
X5863Y5476D01*
X5863Y5606D01*
G37*
G36*
X5663Y5606D02*
X5763Y5606D01*
X5763Y5476D01*
X5663Y5476D01*
X5663Y5606D01*
G37*
G36*
X5463Y5606D02*
X5563Y5606D01*
X5563Y5476D01*
X5463Y5476D01*
X5463Y5606D01*
G37*
G36*
X5263Y5606D02*
X5363Y5606D01*
X5363Y5476D01*
X5263Y5476D01*
X5263Y5606D01*
G37*
G36*
X5063Y5606D02*
X5163Y5606D01*
X5163Y5476D01*
X5063Y5476D01*
X5063Y5606D01*
G37*
G36*
X4863Y5606D02*
X4963Y5606D01*
X4963Y5476D01*
X4863Y5476D01*
X4863Y5606D01*
G37*
G36*
X6263Y7169D02*
X6363Y7169D01*
X6363Y7039D01*
X6263Y7039D01*
X6263Y7169D01*
G37*
G36*
X6063Y7169D02*
X6163Y7169D01*
X6163Y7039D01*
X6063Y7039D01*
X6063Y7169D01*
G37*
G36*
X5863Y7169D02*
X5963Y7169D01*
X5963Y7039D01*
X5863Y7039D01*
X5863Y7169D01*
G37*
G36*
X5663Y7169D02*
X5763Y7169D01*
X5763Y7039D01*
X5663Y7039D01*
X5663Y7169D01*
G37*
G36*
X5463Y7169D02*
X5563Y7169D01*
X5563Y7039D01*
X5463Y7039D01*
X5463Y7169D01*
G37*
G36*
X5263Y7169D02*
X5363Y7169D01*
X5363Y7039D01*
X5263Y7039D01*
X5263Y7169D01*
G37*
G36*
X5063Y7169D02*
X5163Y7169D01*
X5163Y7039D01*
X5063Y7039D01*
X5063Y7169D01*
G37*
G36*
X4863Y7169D02*
X4963Y7169D01*
X4963Y7039D01*
X4863Y7039D01*
X4863Y7169D01*
G37*
G36*
X6477Y7236D02*
X6407Y7236D01*
X6407Y7306D01*
X6477Y7306D01*
X6477Y7236D01*
G37*
G36*
X6310Y7235D02*
X6240Y7235D01*
X6240Y7305D01*
X6310Y7305D01*
X6310Y7235D01*
G37*
G36*
X4874Y7236D02*
X4804Y7236D01*
X4804Y7306D01*
X4874Y7306D01*
X4874Y7236D01*
G37*
G36*
X4707Y7235D02*
X4637Y7235D01*
X4637Y7305D01*
X4707Y7305D01*
X4707Y7235D01*
G37*
G36*
X5826Y7236D02*
X5756Y7236D01*
X5756Y7306D01*
X5826Y7306D01*
X5826Y7236D01*
G37*
G36*
X5659Y7235D02*
X5589Y7235D01*
X5589Y7305D01*
X5659Y7305D01*
X5659Y7235D01*
G37*
G36*
X5540Y7236D02*
X5470Y7236D01*
X5470Y7306D01*
X5540Y7306D01*
X5540Y7236D01*
G37*
G36*
X5373Y7235D02*
X5303Y7235D01*
X5303Y7305D01*
X5373Y7305D01*
X5373Y7235D01*
G37*
G36*
X5223Y7236D02*
X5153Y7236D01*
X5153Y7306D01*
X5223Y7306D01*
X5223Y7236D01*
G37*
G36*
X5056Y7235D02*
X4986Y7235D01*
X4986Y7305D01*
X5056Y7305D01*
X5056Y7235D01*
G37*
G36*
X4530Y7319D02*
X4530Y7189D01*
X4200Y7189D01*
X4200Y7319D01*
X4530Y7319D01*
G37*
G36*
X6707Y5715D02*
X6887Y5715D01*
X6887Y5360D01*
X6707Y5360D01*
X6707Y5715D01*
G37*
G36*
X7548Y5714D02*
X7728Y5714D01*
X7728Y5359D01*
X7548Y5359D01*
X7548Y5714D01*
G37*
G36*
X6128Y7236D02*
X6058Y7236D01*
X6058Y7306D01*
X6128Y7306D01*
X6128Y7236D01*
G37*
G36*
X5961Y7235D02*
X5891Y7235D01*
X5891Y7305D01*
X5961Y7305D01*
X5961Y7235D01*
G37*
G36*
X3763Y4133D02*
X3763Y4043D01*
X3673Y4043D01*
X3673Y4133D01*
X3763Y4133D01*
G37*
G36*
X3763Y3943D02*
X3763Y3853D01*
X3673Y3853D01*
X3673Y3943D01*
X3763Y3943D01*
G37*
G36*
X3985Y4038D02*
X3985Y3948D01*
X3895Y3948D01*
X3895Y4038D01*
X3985Y4038D01*
G37*
G36*
X3763Y4482D02*
X3763Y4392D01*
X3673Y4392D01*
X3673Y4482D01*
X3763Y4482D01*
G37*
G36*
X3763Y4292D02*
X3763Y4202D01*
X3673Y4202D01*
X3673Y4292D01*
X3763Y4292D01*
G37*
G36*
X3985Y4387D02*
X3985Y4297D01*
X3895Y4297D01*
X3895Y4387D01*
X3985Y4387D01*
G37*
G36*
X3763Y4839D02*
X3763Y4749D01*
X3673Y4749D01*
X3673Y4839D01*
X3763Y4839D01*
G37*
G36*
X3763Y4649D02*
X3763Y4559D01*
X3673Y4559D01*
X3673Y4649D01*
X3763Y4649D01*
G37*
G36*
X3985Y4744D02*
X3985Y4654D01*
X3895Y4654D01*
X3895Y4744D01*
X3985Y4744D01*
G37*
G36*
X3763Y5181D02*
X3763Y5091D01*
X3673Y5091D01*
X3673Y5181D01*
X3763Y5181D01*
G37*
G36*
X3763Y4990D02*
X3763Y4900D01*
X3673Y4900D01*
X3673Y4990D01*
X3763Y4990D01*
G37*
G36*
X3985Y5086D02*
X3985Y4996D01*
X3895Y4996D01*
X3895Y5085D01*
X3985Y5086D01*
G37*
M02*
