; Drill file
; Format: 2.4 (00.0000)
M48
INCH
T01C0.012
T02C0.024
T03C0.035
T04C0.039
T05C0.043
T06C0.059
%
G05
G90
T01
X018690Y015060
X019870Y015430
X019690Y016620
X019130Y016430
X019500Y017620
X018500Y018740
X020440Y018870
X020440Y019120
X021630Y018310
X019500Y021000
X020440Y022870
X021630Y022680
X021250Y023930
X020870Y024240
X023250Y023500
X023870Y024240
X024130Y023930
X024440Y023500
X025370Y022060
X025190Y021870
X024810Y027740
X024130Y027680
X024500Y028620
X025440Y028430
X021870Y026870
X018060Y026870
X017560Y028370
X018130Y023500
T02
X015310Y016370
X015310Y018370
X029250Y021120
X029250Y023120
T03
X015460Y021910
X015460Y027970
X027060Y025930
X028500Y026240
X028500Y024240
X027060Y023960
T04
X017110Y016940
X017110Y019910
X023060Y019900
X025040Y019900
X027020Y019900
X027020Y016930
X025040Y016930
X023060Y016930
T05
X014940Y021930
X014940Y022930
X014940Y023930
X014940Y024930
X014940Y025930
X014940Y026930
X014940Y027930
X026190Y028430
X027190Y028430
T06
X015310Y019740
X022310Y015240
X024370Y015240
X027000Y015240
X028870Y027120
M30
