%FSLAX32Y32*%
%MOMM*%
%LNKUPFERSEITE2*%
G71*
G01*
%ADD10C, 2.00*%
%ADD11C, 3.00*%
%ADD12C, 3.00*%
%ADD13C, 1.00*%
%ADD14C, 2.00*%
%ADD15C, 0.40*%
%ADD16C, 0.60*%
%ADD17C, 0.60*%
%ADD18C, 1.80*%
%ADD19C, 0.30*%
%ADD20C, 3.00*%
%ADD21C, 0.80*%
%ADD22C, 0.50*%
%ADD23C, 2.00*%
%LPD*%
X4345Y5057D02*
G54D10*
D03*
X4345Y4304D02*
G54D10*
D03*
X5858Y4301D02*
G54D11*
D03*
X5858Y5054D02*
G54D11*
D03*
X6360Y4301D02*
G54D11*
D03*
X6360Y5054D02*
G54D11*
D03*
X6862Y4301D02*
G54D11*
D03*
X6862Y5054D02*
G54D11*
D03*
G54D12*
X6858Y3888D02*
X6858Y5063D01*
G54D12*
X6350Y5031D02*
X6350Y4031D01*
X6191Y3872D01*
G54D12*
X5858Y5047D02*
X5858Y4285D01*
X5667Y4094D01*
G36*
X4498Y4932D02*
X4498Y4782D01*
X4198Y4782D01*
X4198Y4932D01*
X4498Y4932D01*
G37*
G36*
X4498Y4552D02*
X4498Y4402D01*
X4198Y4402D01*
X4198Y4552D01*
X4498Y4552D01*
G37*
G36*
X4865Y4246D02*
X4755Y4246D01*
X4755Y4356D01*
X4865Y4356D01*
X4865Y4246D01*
G37*
G36*
X4675Y4246D02*
X4565Y4246D01*
X4565Y4356D01*
X4675Y4356D01*
X4675Y4246D01*
G37*
G36*
X4770Y4024D02*
X4660Y4024D01*
X4660Y4134D01*
X4770Y4134D01*
X4770Y4024D01*
G37*
G54D13*
X4334Y4301D02*
X4334Y4412D01*
X4318Y4428D01*
G54D13*
X4334Y5015D02*
X4334Y4841D01*
X6874Y6085D02*
G54D14*
D03*
X6874Y6585D02*
G54D14*
D03*
X3927Y5564D02*
G54D14*
D03*
X3927Y7104D02*
G54D14*
D03*
G36*
X5266Y4508D02*
X5116Y4508D01*
X5116Y4698D01*
X5266Y4698D01*
X5266Y4508D01*
G37*
G36*
X5036Y4507D02*
X4886Y4507D01*
X4886Y4697D01*
X5036Y4697D01*
X5036Y4507D01*
G37*
G36*
X4806Y4507D02*
X4656Y4507D01*
X4656Y4697D01*
X4806Y4697D01*
X4806Y4507D01*
G37*
G36*
X5170Y5084D02*
X4750Y5084D01*
X4750Y5294D01*
X5170Y5294D01*
X5170Y5084D01*
G37*
G54D15*
X4397Y4269D02*
X4461Y4269D01*
X4540Y4190D01*
X4636Y4190D01*
X4699Y4126D01*
G54D15*
X4572Y5158D02*
X4572Y4460D01*
X4636Y4333D01*
G54D16*
X4810Y4412D02*
X4810Y4364D01*
X4810Y4301D01*
G36*
X5050Y4459D02*
X5050Y4369D01*
X4960Y4369D01*
X4960Y4459D01*
X5050Y4459D01*
G37*
G36*
X5049Y4292D02*
X5049Y4202D01*
X4959Y4202D01*
X4959Y4292D01*
X5049Y4292D01*
G37*
G54D15*
X4969Y4539D02*
X4969Y4412D01*
X4953Y4476D02*
G54D17*
D03*
X4953Y5333D02*
G54D17*
D03*
G54D15*
X4953Y5269D02*
X4953Y5333D01*
G36*
X4621Y5364D02*
X4621Y5274D01*
X4531Y5274D01*
X4531Y5364D01*
X4621Y5364D01*
G37*
G36*
X4620Y5197D02*
X4620Y5107D01*
X4530Y5107D01*
X4530Y5197D01*
X4620Y5197D01*
G37*
G36*
X6316Y4852D02*
X6516Y4852D01*
X6516Y4477D01*
X6316Y4477D01*
X6316Y4852D01*
G37*
G36*
X7157Y4851D02*
X7357Y4851D01*
X7357Y4476D01*
X7157Y4476D01*
X7157Y4851D01*
G37*
X7239Y6666D02*
G54D14*
D03*
X7239Y6158D02*
G54D14*
D03*
G36*
X4839Y4383D02*
X4749Y4383D01*
X4749Y4473D01*
X4839Y4473D01*
X4839Y4383D01*
G37*
G36*
X4672Y4382D02*
X4582Y4382D01*
X4582Y4472D01*
X4672Y4472D01*
X4672Y4382D01*
G37*
X4858Y4174D02*
G54D17*
D03*
X7430Y5364D02*
G54D18*
D03*
X7430Y5872D02*
G54D18*
D03*
G36*
X4395Y4825D02*
X4395Y4720D01*
X4305Y4720D01*
X4305Y4825D01*
X4395Y4825D01*
G37*
G36*
X4395Y4578D02*
X4395Y4473D01*
X4305Y4473D01*
X4305Y4578D01*
X4395Y4578D01*
G37*
G36*
X5317Y4711D02*
X5317Y4801D01*
X5407Y4801D01*
X5407Y4711D01*
X5317Y4711D01*
G37*
G36*
X5316Y4878D02*
X5316Y4968D01*
X5406Y4968D01*
X5406Y4878D01*
X5316Y4878D01*
G37*
G36*
X5444Y4711D02*
X5444Y4801D01*
X5534Y4801D01*
X5534Y4711D01*
X5444Y4711D01*
G37*
G36*
X5443Y4878D02*
X5443Y4968D01*
X5533Y4968D01*
X5533Y4878D01*
X5443Y4878D01*
G37*
G54D19*
X5270Y3840D02*
X5270Y4222D01*
X5493Y4444D01*
X5493Y4745D01*
G54D19*
X5366Y4745D02*
X5477Y4745D01*
X5493Y4650D02*
G54D17*
D03*
G54D16*
X5191Y4634D02*
X5191Y4888D01*
X5223Y4920D01*
X5477Y4920D01*
G36*
X5316Y4444D02*
X5316Y4339D01*
X5226Y4339D01*
X5226Y4444D01*
X5316Y4444D01*
G37*
G36*
X5316Y4197D02*
X5316Y4092D01*
X5226Y4092D01*
X5226Y4197D01*
X5316Y4197D01*
G37*
X5191Y4793D02*
G54D17*
D03*
X5191Y4856D02*
G54D17*
D03*
G54D16*
X5001Y4412D02*
X5255Y4412D01*
X5667Y3872D02*
G54D20*
D03*
X6191Y3872D02*
G54D20*
D03*
X6858Y3872D02*
G54D20*
D03*
G54D12*
X5667Y4094D02*
X5667Y3872D01*
G36*
X6253Y5616D02*
X6373Y5616D01*
X6373Y5466D01*
X6253Y5466D01*
X6253Y5616D01*
G37*
G36*
X6053Y5616D02*
X6173Y5616D01*
X6173Y5466D01*
X6053Y5466D01*
X6053Y5616D01*
G37*
G36*
X5853Y5616D02*
X5973Y5616D01*
X5973Y5466D01*
X5853Y5466D01*
X5853Y5616D01*
G37*
G36*
X5653Y5616D02*
X5773Y5616D01*
X5773Y5466D01*
X5653Y5466D01*
X5653Y5616D01*
G37*
G36*
X5453Y5616D02*
X5573Y5616D01*
X5573Y5466D01*
X5453Y5466D01*
X5453Y5616D01*
G37*
G36*
X5253Y5616D02*
X5373Y5616D01*
X5373Y5466D01*
X5253Y5466D01*
X5253Y5616D01*
G37*
G36*
X5053Y5616D02*
X5173Y5616D01*
X5173Y5466D01*
X5053Y5466D01*
X5053Y5616D01*
G37*
G36*
X4853Y5616D02*
X4973Y5616D01*
X4973Y5466D01*
X4853Y5466D01*
X4853Y5616D01*
G37*
G36*
X6253Y7179D02*
X6373Y7179D01*
X6373Y7029D01*
X6253Y7029D01*
X6253Y7179D01*
G37*
G36*
X6053Y7179D02*
X6173Y7179D01*
X6173Y7029D01*
X6053Y7029D01*
X6053Y7179D01*
G37*
G36*
X5853Y7179D02*
X5973Y7179D01*
X5973Y7029D01*
X5853Y7029D01*
X5853Y7179D01*
G37*
G36*
X5653Y7179D02*
X5773Y7179D01*
X5773Y7029D01*
X5653Y7029D01*
X5653Y7179D01*
G37*
G36*
X5453Y7179D02*
X5573Y7179D01*
X5573Y7029D01*
X5453Y7029D01*
X5453Y7179D01*
G37*
G36*
X5253Y7179D02*
X5373Y7179D01*
X5373Y7029D01*
X5253Y7029D01*
X5253Y7179D01*
G37*
G36*
X5053Y7179D02*
X5173Y7179D01*
X5173Y7029D01*
X5053Y7029D01*
X5053Y7179D01*
G37*
G36*
X4853Y7179D02*
X4973Y7179D01*
X4973Y7029D01*
X4853Y7029D01*
X4853Y7179D01*
G37*
G54D13*
X7239Y4730D02*
X7239Y5206D01*
X6858Y5587D01*
X6858Y6079D01*
X7080Y6087D01*
X7239Y6158D01*
X7334Y6888D02*
G54D20*
D03*
G54D13*
X7334Y6873D02*
X7334Y6603D01*
X6842Y6603D01*
G54D19*
X4842Y4364D02*
X4842Y4793D01*
X5191Y4793D01*
X3889Y4666D02*
G54D18*
D03*
X3889Y4158D02*
G54D18*
D03*
G54D16*
X7239Y6603D02*
X7318Y6603D01*
X7477Y6444D01*
X7477Y5968D01*
X7398Y5857D01*
G54D16*
X5366Y4920D02*
X5366Y5349D01*
X6191Y5349D01*
X6445Y5603D01*
X6398Y5555D02*
G54D17*
D03*
X6445Y5603D02*
G54D17*
D03*
X3889Y5015D02*
G54D20*
D03*
G54D21*
X3889Y5015D02*
X3889Y4666D01*
G36*
X5316Y3780D02*
X5211Y3780D01*
X5211Y3870D01*
X5316Y3870D01*
X5316Y3780D01*
G37*
G36*
X5069Y3780D02*
X4964Y3780D01*
X4964Y3870D01*
X5069Y3870D01*
X5069Y3780D01*
G37*
X5048Y3920D02*
G54D17*
D03*
G54D19*
X4842Y4269D02*
X4842Y3968D01*
X4890Y3920D01*
X5048Y3920D01*
X4747Y3825D02*
G54D17*
D03*
G54D19*
X4747Y3825D02*
X5016Y3825D01*
G36*
X6487Y7226D02*
X6397Y7226D01*
X6397Y7316D01*
X6487Y7316D01*
X6487Y7226D01*
G37*
G36*
X6320Y7225D02*
X6230Y7225D01*
X6230Y7315D01*
X6320Y7315D01*
X6320Y7225D01*
G37*
G36*
X4884Y7226D02*
X4794Y7226D01*
X4794Y7316D01*
X4884Y7316D01*
X4884Y7226D01*
G37*
G36*
X4717Y7225D02*
X4627Y7225D01*
X4627Y7315D01*
X4717Y7315D01*
X4717Y7225D01*
G37*
G36*
X5836Y7226D02*
X5746Y7226D01*
X5746Y7316D01*
X5836Y7316D01*
X5836Y7226D01*
G37*
G36*
X5669Y7225D02*
X5579Y7225D01*
X5579Y7315D01*
X5669Y7315D01*
X5669Y7225D01*
G37*
G36*
X5550Y7226D02*
X5460Y7226D01*
X5460Y7316D01*
X5550Y7316D01*
X5550Y7226D01*
G37*
G36*
X5383Y7225D02*
X5293Y7225D01*
X5293Y7315D01*
X5383Y7315D01*
X5383Y7225D01*
G37*
G36*
X5233Y7226D02*
X5143Y7226D01*
X5143Y7316D01*
X5233Y7316D01*
X5233Y7226D01*
G37*
G36*
X5066Y7225D02*
X4976Y7225D01*
X4976Y7315D01*
X5066Y7315D01*
X5066Y7225D01*
G37*
G54D19*
X5509Y7270D02*
X5509Y7349D01*
X5794Y7349D01*
X5794Y7285D01*
X5794Y7349D01*
X6080Y7349D01*
X6080Y7349D01*
X6080Y7349D01*
X6366Y7349D01*
X6366Y7127D01*
G54D22*
X5334Y7270D02*
X5334Y7127D01*
G54D19*
X5524Y7349D02*
X5191Y7349D01*
X5191Y7285D01*
G54D19*
X5016Y7270D02*
X4921Y7270D01*
X4921Y7127D01*
G54D19*
X5620Y7270D02*
X5620Y6015D01*
X5921Y5714D01*
X5921Y5571D01*
X5493Y5761D02*
G54D17*
D03*
G54D19*
X5493Y5761D02*
X5493Y7095D01*
G54D19*
X5906Y7079D02*
X5906Y5968D01*
G54D19*
X4588Y5333D02*
X4588Y5968D01*
X5906Y5968D02*
G54D17*
D03*
X4604Y5968D02*
G54D17*
D03*
X5001Y4222D02*
G54D17*
D03*
X4699Y4761D02*
G54D17*
D03*
G54D16*
X4699Y4761D02*
X4699Y4650D01*
X4683Y4634D01*
X6302Y7047D02*
G54D17*
D03*
X6461Y7222D02*
G54D17*
D03*
X3794Y6840D02*
G54D23*
D03*
X3794Y6586D02*
G54D23*
D03*
X3794Y6332D02*
G54D23*
D03*
X3794Y6078D02*
G54D23*
D03*
X3794Y5824D02*
G54D23*
D03*
X3794Y5570D02*
G54D23*
D03*
G54D19*
X4905Y7095D02*
X4905Y6587D01*
X3842Y6587D01*
G54D19*
X5715Y5555D02*
X5715Y5714D01*
X5556Y5872D01*
X5556Y6825D01*
G54D19*
X4572Y6825D02*
X3810Y6825D01*
X4588Y6825D02*
G54D17*
D03*
X5556Y6825D02*
G54D17*
D03*
G54D19*
X4905Y5555D02*
X4905Y6079D01*
X4588Y6079D01*
X4334Y5825D01*
X3794Y5825D01*
X3778Y5809D01*
G54D19*
X3810Y6063D02*
X4334Y6063D01*
X4413Y6142D01*
X5112Y6142D01*
X5112Y5571D01*
X5128Y5555D01*
X5191Y5809D02*
G54D17*
D03*
G54D19*
X3810Y6333D02*
X3905Y6333D01*
X4016Y6222D01*
X5191Y6222D01*
X5191Y5793D01*
G54D19*
X5223Y7349D02*
X4842Y7349D01*
X4842Y7285D01*
G54D19*
X4667Y7270D02*
X4667Y6904D01*
X4588Y6825D01*
G36*
X4316Y5367D02*
X4226Y5367D01*
X4226Y5457D01*
X4316Y5457D01*
X4316Y5367D01*
G37*
G36*
X4148Y5366D02*
X4058Y5366D01*
X4058Y5456D01*
X4148Y5456D01*
X4148Y5366D01*
G37*
G54D19*
X3985Y5507D02*
X4096Y5396D01*
G54D19*
X4286Y5396D02*
X4286Y5142D01*
X4366Y5063D01*
X6906Y7222D02*
G54D23*
D03*
X6652Y7222D02*
G54D23*
D03*
X6207Y5968D02*
G54D17*
D03*
G54D19*
X6112Y5523D02*
X6112Y5761D01*
X6223Y5872D01*
X6223Y5968D01*
G54D19*
X5302Y5555D02*
X5302Y6158D01*
G54D19*
X5509Y5571D02*
X5509Y5587D01*
X5398Y5698D01*
X5398Y6079D01*
X5302Y6158D02*
G54D17*
D03*
X5398Y6079D02*
G54D17*
D03*
X6128Y6079D02*
G54D17*
D03*
X6064Y6158D02*
G54D17*
D03*
G54D19*
X6906Y7222D02*
X6858Y7111D01*
X6794Y7063D01*
X6763Y7063D01*
X6318Y6619D01*
X6318Y6126D01*
X6271Y6079D01*
X6128Y6079D01*
G54D19*
X6064Y6158D02*
X6223Y6158D01*
X6223Y6698D01*
X6683Y7158D01*
G36*
X4540Y7329D02*
X4540Y7179D01*
X4190Y7179D01*
X4190Y7329D01*
X4540Y7329D01*
G37*
X6128Y7031D02*
G54D17*
D03*
X3794Y7095D02*
G54D23*
D03*
X4461Y7206D02*
G54D17*
D03*
X6223Y7270D02*
G54D17*
D03*
M02*
