%FSLAX32Y32*%
%MOMM*%
%LNLOETSTOP2*%
G71*
G01*
%ADD10C, 2.60*%
%ADD11C, 3.60*%
%ADD12C, 2.60*%
%ADD13C, 1.20*%
%ADD14C, 2.40*%
%ADD15C, 3.60*%
%ADD16C, 2.60*%
%LPD*%
X4345Y5057D02*
G54D10*
D03*
X4345Y4304D02*
G54D10*
D03*
X5858Y4301D02*
G54D11*
D03*
X5858Y5054D02*
G54D11*
D03*
X6360Y4301D02*
G54D11*
D03*
X6360Y5054D02*
G54D11*
D03*
X6862Y4301D02*
G54D11*
D03*
X6862Y5054D02*
G54D11*
D03*
G36*
X4508Y4942D02*
X4508Y4772D01*
X4188Y4772D01*
X4188Y4942D01*
X4508Y4942D01*
G37*
G36*
X4508Y4562D02*
X4508Y4392D01*
X4188Y4392D01*
X4188Y4562D01*
X4508Y4562D01*
G37*
G36*
X4875Y4236D02*
X4745Y4236D01*
X4745Y4366D01*
X4875Y4366D01*
X4875Y4236D01*
G37*
G36*
X4685Y4236D02*
X4555Y4236D01*
X4555Y4366D01*
X4685Y4366D01*
X4685Y4236D01*
G37*
G36*
X4780Y4014D02*
X4650Y4014D01*
X4650Y4144D01*
X4780Y4144D01*
X4780Y4014D01*
G37*
X6874Y6085D02*
G54D12*
D03*
X6874Y6585D02*
G54D12*
D03*
X3927Y5564D02*
G54D12*
D03*
X3927Y7104D02*
G54D12*
D03*
G36*
X5276Y4498D02*
X5106Y4498D01*
X5106Y4708D01*
X5276Y4708D01*
X5276Y4498D01*
G37*
G36*
X5046Y4497D02*
X4876Y4497D01*
X4876Y4707D01*
X5046Y4707D01*
X5046Y4497D01*
G37*
G36*
X4816Y4497D02*
X4646Y4497D01*
X4646Y4707D01*
X4816Y4707D01*
X4816Y4497D01*
G37*
G36*
X5180Y5074D02*
X4740Y5074D01*
X4740Y5304D01*
X5180Y5304D01*
X5180Y5074D01*
G37*
G36*
X5060Y4469D02*
X5060Y4359D01*
X4950Y4359D01*
X4950Y4469D01*
X5060Y4469D01*
G37*
G36*
X5059Y4302D02*
X5059Y4192D01*
X4949Y4192D01*
X4949Y4302D01*
X5059Y4302D01*
G37*
X4953Y4476D02*
G54D13*
D03*
X4953Y5333D02*
G54D13*
D03*
G36*
X4631Y5374D02*
X4631Y5264D01*
X4521Y5264D01*
X4521Y5374D01*
X4631Y5374D01*
G37*
G36*
X4630Y5207D02*
X4630Y5097D01*
X4520Y5097D01*
X4520Y5207D01*
X4630Y5207D01*
G37*
G36*
X6306Y4862D02*
X6526Y4862D01*
X6526Y4467D01*
X6306Y4467D01*
X6306Y4862D01*
G37*
G36*
X7147Y4861D02*
X7367Y4861D01*
X7367Y4466D01*
X7147Y4466D01*
X7147Y4861D01*
G37*
X7239Y6666D02*
G54D12*
D03*
X7239Y6158D02*
G54D12*
D03*
G36*
X4849Y4373D02*
X4739Y4373D01*
X4739Y4483D01*
X4849Y4483D01*
X4849Y4373D01*
G37*
G36*
X4682Y4372D02*
X4572Y4372D01*
X4572Y4482D01*
X4682Y4482D01*
X4682Y4372D01*
G37*
X4858Y4174D02*
G54D13*
D03*
X7430Y5364D02*
G54D14*
D03*
X7430Y5872D02*
G54D14*
D03*
G36*
X4405Y4835D02*
X4405Y4710D01*
X4295Y4710D01*
X4295Y4835D01*
X4405Y4835D01*
G37*
G36*
X4405Y4588D02*
X4405Y4463D01*
X4295Y4463D01*
X4295Y4588D01*
X4405Y4588D01*
G37*
G36*
X5307Y4701D02*
X5307Y4811D01*
X5417Y4811D01*
X5417Y4701D01*
X5307Y4701D01*
G37*
G36*
X5306Y4868D02*
X5306Y4978D01*
X5416Y4978D01*
X5416Y4868D01*
X5306Y4868D01*
G37*
G36*
X5434Y4701D02*
X5434Y4811D01*
X5544Y4811D01*
X5544Y4701D01*
X5434Y4701D01*
G37*
G36*
X5433Y4868D02*
X5433Y4978D01*
X5543Y4978D01*
X5543Y4868D01*
X5433Y4868D01*
G37*
X5493Y4650D02*
G54D13*
D03*
G36*
X5326Y4454D02*
X5326Y4329D01*
X5216Y4329D01*
X5216Y4454D01*
X5326Y4454D01*
G37*
G36*
X5326Y4207D02*
X5326Y4082D01*
X5216Y4082D01*
X5216Y4207D01*
X5326Y4207D01*
G37*
X5191Y4793D02*
G54D13*
D03*
X5191Y4856D02*
G54D13*
D03*
X5667Y3872D02*
G54D15*
D03*
X6191Y3872D02*
G54D15*
D03*
X6858Y3872D02*
G54D15*
D03*
G36*
X6243Y5626D02*
X6383Y5626D01*
X6383Y5456D01*
X6243Y5456D01*
X6243Y5626D01*
G37*
G36*
X6043Y5626D02*
X6183Y5626D01*
X6183Y5456D01*
X6043Y5456D01*
X6043Y5626D01*
G37*
G36*
X5843Y5626D02*
X5983Y5626D01*
X5983Y5456D01*
X5843Y5456D01*
X5843Y5626D01*
G37*
G36*
X5643Y5626D02*
X5783Y5626D01*
X5783Y5456D01*
X5643Y5456D01*
X5643Y5626D01*
G37*
G36*
X5443Y5626D02*
X5583Y5626D01*
X5583Y5456D01*
X5443Y5456D01*
X5443Y5626D01*
G37*
G36*
X5243Y5626D02*
X5383Y5626D01*
X5383Y5456D01*
X5243Y5456D01*
X5243Y5626D01*
G37*
G36*
X5043Y5626D02*
X5183Y5626D01*
X5183Y5456D01*
X5043Y5456D01*
X5043Y5626D01*
G37*
G36*
X4843Y5626D02*
X4983Y5626D01*
X4983Y5456D01*
X4843Y5456D01*
X4843Y5626D01*
G37*
G36*
X6243Y7189D02*
X6383Y7189D01*
X6383Y7019D01*
X6243Y7019D01*
X6243Y7189D01*
G37*
G36*
X6043Y7189D02*
X6183Y7189D01*
X6183Y7019D01*
X6043Y7019D01*
X6043Y7189D01*
G37*
G36*
X5843Y7189D02*
X5983Y7189D01*
X5983Y7019D01*
X5843Y7019D01*
X5843Y7189D01*
G37*
G36*
X5643Y7189D02*
X5783Y7189D01*
X5783Y7019D01*
X5643Y7019D01*
X5643Y7189D01*
G37*
G36*
X5443Y7189D02*
X5583Y7189D01*
X5583Y7019D01*
X5443Y7019D01*
X5443Y7189D01*
G37*
G36*
X5243Y7189D02*
X5383Y7189D01*
X5383Y7019D01*
X5243Y7019D01*
X5243Y7189D01*
G37*
G36*
X5043Y7189D02*
X5183Y7189D01*
X5183Y7019D01*
X5043Y7019D01*
X5043Y7189D01*
G37*
G36*
X4843Y7189D02*
X4983Y7189D01*
X4983Y7019D01*
X4843Y7019D01*
X4843Y7189D01*
G37*
X7334Y6888D02*
G54D15*
D03*
X3889Y4666D02*
G54D14*
D03*
X3889Y4158D02*
G54D14*
D03*
X6398Y5555D02*
G54D13*
D03*
X6445Y5603D02*
G54D13*
D03*
X3889Y5015D02*
G54D15*
D03*
G36*
X5326Y3770D02*
X5201Y3770D01*
X5201Y3880D01*
X5326Y3880D01*
X5326Y3770D01*
G37*
G36*
X5079Y3770D02*
X4954Y3770D01*
X4954Y3880D01*
X5079Y3880D01*
X5079Y3770D01*
G37*
X5048Y3920D02*
G54D13*
D03*
X4747Y3825D02*
G54D13*
D03*
G36*
X6497Y7216D02*
X6387Y7216D01*
X6387Y7326D01*
X6497Y7326D01*
X6497Y7216D01*
G37*
G36*
X6330Y7215D02*
X6220Y7215D01*
X6220Y7325D01*
X6330Y7325D01*
X6330Y7215D01*
G37*
G36*
X4894Y7216D02*
X4784Y7216D01*
X4784Y7326D01*
X4894Y7326D01*
X4894Y7216D01*
G37*
G36*
X4727Y7215D02*
X4617Y7215D01*
X4617Y7325D01*
X4727Y7325D01*
X4727Y7215D01*
G37*
G36*
X5846Y7216D02*
X5736Y7216D01*
X5736Y7326D01*
X5846Y7326D01*
X5846Y7216D01*
G37*
G36*
X5679Y7215D02*
X5569Y7215D01*
X5569Y7325D01*
X5679Y7325D01*
X5679Y7215D01*
G37*
G36*
X5560Y7216D02*
X5450Y7216D01*
X5450Y7326D01*
X5560Y7326D01*
X5560Y7216D01*
G37*
G36*
X5393Y7215D02*
X5283Y7215D01*
X5283Y7325D01*
X5393Y7325D01*
X5393Y7215D01*
G37*
G36*
X5243Y7216D02*
X5133Y7216D01*
X5133Y7326D01*
X5243Y7326D01*
X5243Y7216D01*
G37*
G36*
X5076Y7215D02*
X4966Y7215D01*
X4966Y7325D01*
X5076Y7325D01*
X5076Y7215D01*
G37*
X5493Y5761D02*
G54D13*
D03*
X5906Y5968D02*
G54D13*
D03*
X4604Y5968D02*
G54D13*
D03*
X5001Y4222D02*
G54D13*
D03*
X4699Y4761D02*
G54D13*
D03*
X6302Y7047D02*
G54D13*
D03*
X6461Y7222D02*
G54D13*
D03*
X3794Y6840D02*
G54D16*
D03*
X3794Y6586D02*
G54D16*
D03*
X3794Y6332D02*
G54D16*
D03*
X3794Y6078D02*
G54D16*
D03*
X3794Y5824D02*
G54D16*
D03*
X3794Y5570D02*
G54D16*
D03*
X4588Y6825D02*
G54D13*
D03*
X5556Y6825D02*
G54D13*
D03*
X5191Y5809D02*
G54D13*
D03*
G36*
X4326Y5357D02*
X4216Y5357D01*
X4216Y5467D01*
X4326Y5467D01*
X4326Y5357D01*
G37*
G36*
X4158Y5356D02*
X4048Y5356D01*
X4048Y5466D01*
X4158Y5466D01*
X4158Y5356D01*
G37*
X6906Y7222D02*
G54D16*
D03*
X6652Y7222D02*
G54D16*
D03*
X6207Y5968D02*
G54D13*
D03*
X5302Y6158D02*
G54D13*
D03*
X5398Y6079D02*
G54D13*
D03*
X6128Y6079D02*
G54D13*
D03*
X6064Y6158D02*
G54D13*
D03*
G36*
X4550Y7339D02*
X4550Y7169D01*
X4180Y7169D01*
X4180Y7339D01*
X4550Y7339D01*
G37*
X6128Y7031D02*
G54D13*
D03*
X3794Y7095D02*
G54D16*
D03*
X4461Y7206D02*
G54D13*
D03*
X6223Y7270D02*
G54D13*
D03*
M02*
