%FSLAX32Y32*%
%MOMM*%
%LNBESTUECKUNG1*%
G71*
G01*
%ADD10C, 0.24*%
%ADD11C, 0.11*%
%ADD12C, 0.13*%
%ADD13C, 0.22*%
%ADD14C, 0.19*%
%ADD15C, 0.16*%
%LPD*%
G54D10*
X7363Y4242D02*
X7363Y4375D01*
X7293Y4375D01*
G54D10*
X7363Y4308D02*
X7293Y4308D01*
G54D10*
X7246Y4325D02*
X7196Y4375D01*
X7196Y4242D01*
G54D11*
X4283Y4609D02*
X4283Y4698D01*
X4249Y4698D01*
X4236Y4692D01*
X4229Y4681D01*
X4229Y4626D01*
X4236Y4615D01*
X4249Y4609D01*
X4283Y4609D01*
G54D11*
X4206Y4665D02*
X4172Y4698D01*
X4172Y4609D01*
G54D12*
X4571Y4633D02*
X4585Y4609D01*
X4598Y4601D01*
X4625Y4601D01*
G54D12*
X4625Y4665D02*
X4518Y4665D01*
X4518Y4625D01*
X4525Y4609D01*
X4538Y4601D01*
X4551Y4601D01*
X4565Y4609D01*
X4571Y4625D01*
X4571Y4665D01*
G54D12*
X4538Y4572D02*
X4525Y4564D01*
X4518Y4548D01*
X4518Y4532D01*
X4525Y4516D01*
X4538Y4508D01*
X4551Y4508D01*
X4565Y4516D01*
X4571Y4532D01*
X4578Y4516D01*
X4591Y4508D01*
X4605Y4508D01*
X4618Y4516D01*
X4625Y4532D01*
X4625Y4548D01*
X4618Y4564D01*
X4605Y4572D01*
G54D12*
X5148Y4303D02*
X5156Y4290D01*
X5172Y4283D01*
X5188Y4283D01*
X5204Y4290D01*
X5212Y4303D01*
X5212Y4370D01*
X5204Y4383D01*
X5188Y4390D01*
X5172Y4390D01*
X5156Y4383D01*
X5148Y4370D01*
G54D12*
X5119Y4350D02*
X5079Y4390D01*
X5079Y4283D01*
G54D12*
X5052Y4061D02*
X5052Y4168D01*
G54D12*
X5084Y4168D02*
X5020Y4168D01*
G54D12*
X4991Y4128D02*
X4951Y4168D01*
X4951Y4061D01*
G54D13*
X7111Y6724D02*
X7111Y6902D01*
X7004Y6724D01*
X7004Y6902D01*
G54D12*
X5426Y4553D02*
X5426Y4660D01*
G54D12*
X5458Y4660D02*
X5394Y4660D01*
G54D12*
X5301Y4553D02*
X5365Y4553D01*
X5365Y4560D01*
X5357Y4573D01*
X5309Y4613D01*
X5301Y4627D01*
X5301Y4640D01*
X5309Y4653D01*
X5325Y4660D01*
X5341Y4660D01*
X5357Y4653D01*
X5365Y4640D01*
G54D12*
X7286Y6438D02*
X7246Y6331D01*
X7206Y6438D01*
G54D12*
X7177Y6331D02*
X7177Y6438D01*
X7137Y6438D01*
X7121Y6431D01*
X7113Y6418D01*
X7113Y6351D01*
X7121Y6338D01*
X7137Y6331D01*
X7177Y6331D01*
G54D12*
X7052Y6385D02*
X7028Y6371D01*
X7020Y6358D01*
X7020Y6331D01*
G54D12*
X7084Y6331D02*
X7084Y6438D01*
X7044Y6438D01*
X7028Y6431D01*
X7020Y6418D01*
X7020Y6405D01*
X7028Y6391D01*
X7044Y6385D01*
X7084Y6385D01*
G54D12*
X6991Y6398D02*
X6951Y6438D01*
X6951Y6331D01*
G54D12*
X5475Y5215D02*
X5488Y5191D01*
X5501Y5183D01*
X5528Y5183D01*
G54D12*
X5528Y5247D02*
X5421Y5247D01*
X5421Y5207D01*
X5428Y5191D01*
X5441Y5183D01*
X5455Y5183D01*
X5468Y5191D01*
X5475Y5207D01*
X5475Y5247D01*
G54D12*
X5461Y5154D02*
X5421Y5114D01*
X5528Y5114D01*
G54D12*
X5441Y5021D02*
X5428Y5029D01*
X5421Y5045D01*
X5421Y5061D01*
X5428Y5077D01*
X5441Y5085D01*
X5475Y5085D01*
X5481Y5085D01*
X5468Y5061D01*
X5468Y5045D01*
X5475Y5029D01*
X5488Y5021D01*
X5508Y5021D01*
X5521Y5029D01*
X5528Y5045D01*
X5528Y5061D01*
X5521Y5077D01*
X5508Y5085D01*
X5475Y5085D01*
G54D12*
X5365Y5114D02*
X5379Y5122D01*
X5385Y5138D01*
X5385Y5154D01*
X5379Y5170D01*
X5365Y5178D01*
X5299Y5178D01*
X5285Y5170D01*
X5279Y5154D01*
X5279Y5138D01*
X5285Y5122D01*
X5299Y5114D01*
G54D12*
X5299Y5085D02*
X5285Y5077D01*
X5279Y5061D01*
X5279Y5045D01*
X5285Y5029D01*
X5299Y5021D01*
X5312Y5021D01*
X5325Y5029D01*
X5332Y5045D01*
X5339Y5029D01*
X5352Y5021D01*
X5365Y5021D01*
X5379Y5029D01*
X5385Y5045D01*
X5385Y5061D01*
X5379Y5077D01*
X5365Y5085D01*
G54D12*
X4840Y4093D02*
X4904Y4093D01*
G54D12*
X4256Y4003D02*
X4232Y3990D01*
X4224Y3977D01*
X4224Y3950D01*
G54D12*
X4288Y3950D02*
X4288Y4057D01*
X4248Y4057D01*
X4232Y4050D01*
X4224Y4037D01*
X4224Y4023D01*
X4232Y4010D01*
X4248Y4003D01*
X4288Y4003D01*
G54D12*
X4195Y4017D02*
X4155Y4057D01*
X4155Y3950D01*
G54D12*
X4126Y4057D02*
X4062Y4057D01*
X4070Y4043D01*
X4086Y4023D01*
X4102Y3997D01*
X4110Y3977D01*
X4110Y3950D01*
G54D12*
X3901Y4383D02*
X3909Y4369D01*
X3925Y4363D01*
X3941Y4363D01*
X3957Y4369D01*
X3965Y4383D01*
X3965Y4449D01*
X3957Y4463D01*
X3941Y4469D01*
X3925Y4469D01*
X3909Y4463D01*
X3901Y4449D01*
G54D12*
X3824Y4363D02*
X3824Y4469D01*
X3872Y4403D01*
X3872Y4389D01*
X3808Y4389D01*
G54D12*
X7410Y5589D02*
X7418Y5576D01*
X7434Y5569D01*
X7450Y5569D01*
X7466Y5576D01*
X7474Y5589D01*
X7474Y5656D01*
X7466Y5669D01*
X7450Y5676D01*
X7434Y5676D01*
X7418Y5669D01*
X7410Y5656D01*
G54D12*
X7317Y5676D02*
X7381Y5676D01*
X7381Y5629D01*
X7373Y5629D01*
X7357Y5636D01*
X7341Y5636D01*
X7325Y5629D01*
X7317Y5616D01*
X7317Y5589D01*
X7325Y5576D01*
X7341Y5569D01*
X7357Y5569D01*
X7373Y5576D01*
X7381Y5589D01*
G54D13*
X6465Y4155D02*
X6465Y3978D01*
X6372Y3978D01*
G54D13*
X7224Y3994D02*
X7224Y4172D01*
X7117Y3994D01*
X7117Y4172D01*
G54D13*
X6961Y4138D02*
X6961Y4027D01*
X6975Y4005D01*
X7001Y3994D01*
X7028Y3994D01*
X7055Y4005D01*
X7068Y4027D01*
X7068Y4138D01*
X7055Y4161D01*
X7028Y4172D01*
X7001Y4172D01*
X6975Y4161D01*
X6961Y4138D01*
G54D14*
X5713Y4039D02*
X5713Y4190D01*
X5622Y4039D01*
X5622Y4190D01*
G54D14*
X5489Y4067D02*
X5501Y4049D01*
X5523Y4039D01*
X5546Y4039D01*
X5569Y4049D01*
X5580Y4067D01*
X5580Y4162D01*
X5569Y4181D01*
X5546Y4190D01*
X5523Y4190D01*
X5501Y4181D01*
X5489Y4162D01*
G54D12*
X5486Y4381D02*
X5486Y4488D01*
X5446Y4488D01*
X5430Y4481D01*
X5422Y4468D01*
X5422Y4401D01*
X5430Y4388D01*
X5446Y4381D01*
X5486Y4381D01*
G54D12*
X5345Y4381D02*
X5345Y4488D01*
X5393Y4421D01*
X5393Y4408D01*
X5329Y4408D01*
G54D12*
X5237Y4299D02*
X5301Y4299D01*
G54D12*
X4891Y3794D02*
X4891Y3858D01*
G54D12*
X4316Y4680D02*
X4380Y4680D01*
G54D12*
X4543Y4003D02*
X4519Y3990D01*
X4511Y3977D01*
X4511Y3950D01*
G54D12*
X4575Y3950D02*
X4575Y4057D01*
X4535Y4057D01*
X4519Y4050D01*
X4511Y4037D01*
X4511Y4023D01*
X4519Y4010D01*
X4535Y4003D01*
X4575Y4003D01*
G54D12*
X4482Y4017D02*
X4442Y4057D01*
X4442Y3950D01*
G54D12*
X4373Y4003D02*
X4389Y4003D01*
X4405Y4010D01*
X4413Y4023D01*
X4413Y4037D01*
X4405Y4050D01*
X4389Y4057D01*
X4373Y4057D01*
X4357Y4050D01*
X4349Y4037D01*
X4349Y4023D01*
X4357Y4010D01*
X4373Y4003D01*
X4357Y3997D01*
X4349Y3983D01*
X4349Y3970D01*
X4357Y3957D01*
X4373Y3950D01*
X4389Y3950D01*
X4405Y3957D01*
X4413Y3970D01*
X4413Y3983D01*
X4405Y3997D01*
X4389Y4003D01*
G54D12*
X5174Y3794D02*
X5174Y3858D01*
G54D15*
X4031Y5777D02*
X4031Y5866D01*
G54D15*
X4058Y5866D02*
X4004Y5866D01*
G54D15*
X3974Y5866D02*
X3907Y5777D01*
G54D15*
X3974Y5777D02*
X3907Y5866D01*
G54D15*
X4031Y6076D02*
X4011Y6065D01*
X4004Y6054D01*
X4004Y6032D01*
G54D15*
X4058Y6032D02*
X4058Y6121D01*
X4024Y6121D01*
X4011Y6115D01*
X4004Y6104D01*
X4004Y6093D01*
X4011Y6082D01*
X4024Y6076D01*
X4058Y6076D01*
G54D15*
X3974Y6121D02*
X3907Y6032D01*
G54D15*
X3974Y6032D02*
X3907Y6121D01*
G54D15*
X4073Y6358D02*
X4066Y6369D01*
X4053Y6375D01*
X4040Y6375D01*
X4026Y6369D01*
X4020Y6358D01*
X4020Y6347D01*
X4026Y6336D01*
X4040Y6330D01*
X4026Y6325D01*
X4020Y6313D01*
X4020Y6302D01*
X4026Y6291D01*
X4040Y6286D01*
X4053Y6286D01*
X4066Y6291D01*
X4073Y6302D01*
G54D15*
X3989Y6286D02*
X3989Y6286D01*
G54D15*
X3958Y6358D02*
X3951Y6369D01*
X3938Y6375D01*
X3925Y6375D01*
X3911Y6369D01*
X3905Y6358D01*
X3905Y6347D01*
X3911Y6336D01*
X3925Y6330D01*
X3911Y6325D01*
X3905Y6313D01*
X3905Y6302D01*
X3911Y6291D01*
X3925Y6286D01*
X3938Y6286D01*
X3951Y6291D01*
X3958Y6302D01*
G54D11*
X6675Y7038D02*
X6678Y7025D01*
X6673Y7012D01*
X6663Y7003D01*
X6650Y6997D01*
X6637Y7000D01*
X6629Y7008D01*
X6626Y7021D01*
X6632Y7034D01*
X6641Y7044D01*
X6647Y7057D01*
X6643Y7069D01*
X6636Y7077D01*
X6623Y7080D01*
X6610Y7075D01*
X6600Y7066D01*
X6595Y7052D01*
X6598Y7040D01*
G54D11*
X6583Y6946D02*
X6595Y6943D01*
X6609Y6948D01*
X6618Y6958D01*
X6624Y6971D01*
X6620Y6984D01*
X6581Y7023D01*
X6569Y7026D01*
X6555Y7021D01*
X6546Y7011D01*
X6540Y6998D01*
X6543Y6985D01*
G54D11*
X6515Y6980D02*
X6578Y6917D01*
X6545Y6884D01*
G54D11*
X6878Y7063D02*
X6882Y7051D01*
X6876Y7037D01*
X6867Y7028D01*
X6853Y7022D01*
X6841Y7025D01*
X6833Y7033D01*
X6830Y7046D01*
X6835Y7059D01*
X6845Y7069D01*
X6850Y7082D01*
X6847Y7095D01*
X6839Y7102D01*
X6827Y7106D01*
X6813Y7100D01*
X6804Y7091D01*
X6798Y7077D01*
X6801Y7065D01*
G54D11*
X6836Y6997D02*
X6773Y7060D01*
X6749Y7036D01*
X6744Y7023D01*
X6747Y7010D01*
X6786Y6971D01*
X6799Y6968D01*
X6812Y6973D01*
X6836Y6997D01*
G54D11*
X6781Y6943D02*
X6695Y6982D01*
X6734Y6895D01*
G54D11*
X6748Y6957D02*
X6720Y6928D01*
G54D11*
X6671Y6832D02*
X6608Y6895D01*
X6676Y6884D01*
X6684Y6876D01*
X6646Y6839D01*
G54D15*
X4076Y6584D02*
X4056Y6573D01*
X4049Y6562D01*
X4049Y6540D01*
G54D15*
X4102Y6540D02*
X4102Y6629D01*
X4069Y6629D01*
X4056Y6623D01*
X4049Y6612D01*
X4049Y6601D01*
X4056Y6590D01*
X4069Y6584D01*
X4102Y6584D01*
G54D15*
X3978Y6545D02*
X3989Y6540D01*
X4002Y6540D01*
X4016Y6545D01*
X4018Y6556D01*
X4018Y6575D01*
X4012Y6586D01*
X3998Y6590D01*
X3985Y6586D01*
X3978Y6579D01*
X3978Y6567D01*
X4018Y6567D01*
G54D15*
X3948Y6545D02*
X3934Y6540D01*
X3921Y6540D01*
X3908Y6545D01*
X3908Y6556D01*
X3914Y6562D01*
X3941Y6567D01*
X3948Y6573D01*
X3948Y6584D01*
X3934Y6590D01*
X3921Y6590D01*
X3908Y6584D01*
G54D15*
X4057Y6794D02*
X4057Y6883D01*
X4024Y6883D01*
X4011Y6877D01*
X4004Y6866D01*
X4004Y6810D01*
X4011Y6799D01*
X4024Y6794D01*
X4057Y6794D01*
G54D15*
X3920Y6866D02*
X3920Y6810D01*
X3927Y6799D01*
X3940Y6794D01*
X3953Y6794D01*
X3967Y6799D01*
X3973Y6810D01*
X3973Y6866D01*
X3967Y6877D01*
X3953Y6883D01*
X3940Y6883D01*
X3927Y6877D01*
X3920Y6866D01*
G54D12*
X3952Y5335D02*
X3960Y5322D01*
X3976Y5315D01*
X3992Y5315D01*
X4008Y5322D01*
X4016Y5335D01*
X4016Y5402D01*
X4008Y5415D01*
X3992Y5422D01*
X3976Y5422D01*
X3960Y5415D01*
X3952Y5402D01*
G54D12*
X3859Y5315D02*
X3923Y5315D01*
X3923Y5322D01*
X3915Y5335D01*
X3867Y5375D01*
X3859Y5388D01*
X3859Y5402D01*
X3867Y5415D01*
X3883Y5422D01*
X3899Y5422D01*
X3915Y5415D01*
X3923Y5402D01*
G54D15*
X4158Y7262D02*
X4125Y7295D01*
X4125Y7206D01*
G54D15*
X4094Y7279D02*
X4088Y7290D01*
X4074Y7295D01*
X4061Y7295D01*
X4048Y7290D01*
X4041Y7279D01*
X4041Y7267D01*
X4048Y7256D01*
X4061Y7251D01*
X4048Y7245D01*
X4041Y7234D01*
X4041Y7223D01*
X4048Y7212D01*
X4061Y7206D01*
X4074Y7206D01*
X4088Y7212D01*
X4094Y7223D01*
G54D15*
X3821Y7327D02*
X3874Y7327D01*
X3874Y7288D01*
X3867Y7288D01*
X3854Y7294D01*
X3841Y7294D01*
X3827Y7288D01*
X3821Y7277D01*
X3821Y7255D01*
X3827Y7244D01*
X3841Y7238D01*
X3854Y7238D01*
X3867Y7244D01*
X3874Y7255D01*
G54D15*
X3790Y7327D02*
X3757Y7238D01*
X3723Y7327D01*
G54D13*
X4052Y4965D02*
X4052Y4787D01*
X3959Y4787D01*
G54D11*
X3939Y4779D02*
X3939Y4829D01*
G54D11*
X3939Y4846D02*
X3939Y4846D01*
G54D11*
X3915Y4779D02*
X3915Y4829D01*
G54D11*
X3915Y4818D02*
X3908Y4826D01*
X3895Y4829D01*
X3882Y4826D01*
X3875Y4818D01*
X3875Y4779D01*
G54D12*
X4492Y5241D02*
X4468Y5228D01*
X4460Y5215D01*
X4460Y5188D01*
G54D12*
X4524Y5188D02*
X4524Y5295D01*
X4484Y5295D01*
X4468Y5288D01*
X4460Y5275D01*
X4460Y5261D01*
X4468Y5248D01*
X4484Y5241D01*
X4524Y5241D01*
G54D12*
X4367Y5295D02*
X4431Y5295D01*
X4431Y5248D01*
X4423Y5248D01*
X4407Y5255D01*
X4391Y5255D01*
X4375Y5248D01*
X4367Y5235D01*
X4367Y5208D01*
X4375Y5195D01*
X4391Y5188D01*
X4407Y5188D01*
X4423Y5195D01*
X4431Y5208D01*
G54D12*
X5183Y6940D02*
X5159Y6927D01*
X5151Y6913D01*
X5151Y6887D01*
G54D12*
X5215Y6887D02*
X5215Y6993D01*
X5175Y6993D01*
X5159Y6987D01*
X5151Y6973D01*
X5151Y6960D01*
X5159Y6947D01*
X5175Y6940D01*
X5215Y6940D01*
G54D12*
X5122Y6953D02*
X5082Y6993D01*
X5082Y6887D01*
G54D12*
X5053Y6953D02*
X5013Y6993D01*
X5013Y6887D01*
G54D12*
X5496Y6940D02*
X5472Y6927D01*
X5464Y6913D01*
X5464Y6887D01*
G54D12*
X5528Y6887D02*
X5528Y6993D01*
X5488Y6993D01*
X5472Y6987D01*
X5464Y6973D01*
X5464Y6960D01*
X5472Y6947D01*
X5488Y6940D01*
X5528Y6940D01*
G54D12*
X5435Y6953D02*
X5395Y6993D01*
X5395Y6887D01*
G54D12*
X5302Y6973D02*
X5302Y6907D01*
X5310Y6893D01*
X5326Y6887D01*
X5342Y6887D01*
X5358Y6893D01*
X5366Y6907D01*
X5366Y6973D01*
X5358Y6987D01*
X5342Y6993D01*
X5326Y6993D01*
X5310Y6987D01*
X5302Y6973D01*
G54D12*
X5782Y6940D02*
X5758Y6927D01*
X5750Y6913D01*
X5750Y6887D01*
G54D12*
X5814Y6887D02*
X5814Y6993D01*
X5774Y6993D01*
X5758Y6987D01*
X5750Y6973D01*
X5750Y6960D01*
X5758Y6947D01*
X5774Y6940D01*
X5814Y6940D01*
G54D12*
X5721Y6953D02*
X5681Y6993D01*
X5681Y6887D01*
G54D12*
X5588Y6993D02*
X5652Y6993D01*
X5652Y6947D01*
X5644Y6947D01*
X5628Y6953D01*
X5612Y6953D01*
X5596Y6947D01*
X5588Y6933D01*
X5588Y6907D01*
X5596Y6893D01*
X5612Y6887D01*
X5628Y6887D01*
X5644Y6893D01*
X5652Y6907D01*
G54D12*
X4830Y6940D02*
X4806Y6927D01*
X4798Y6913D01*
X4798Y6887D01*
G54D12*
X4862Y6887D02*
X4862Y6993D01*
X4822Y6993D01*
X4806Y6987D01*
X4798Y6973D01*
X4798Y6960D01*
X4806Y6947D01*
X4822Y6940D01*
X4862Y6940D01*
G54D12*
X4769Y6953D02*
X4729Y6993D01*
X4729Y6887D01*
G54D12*
X4700Y6907D02*
X4692Y6893D01*
X4676Y6887D01*
X4660Y6887D01*
X4644Y6893D01*
X4636Y6907D01*
X4636Y6940D01*
X4636Y6947D01*
X4660Y6933D01*
X4676Y6933D01*
X4692Y6940D01*
X4700Y6953D01*
X4700Y6973D01*
X4692Y6987D01*
X4676Y6993D01*
X4660Y6993D01*
X4644Y6987D01*
X4636Y6973D01*
X4636Y6940D01*
G54D12*
X6449Y6940D02*
X6425Y6927D01*
X6417Y6913D01*
X6417Y6887D01*
G54D12*
X6481Y6887D02*
X6481Y6993D01*
X6441Y6993D01*
X6425Y6987D01*
X6417Y6973D01*
X6417Y6960D01*
X6425Y6947D01*
X6441Y6940D01*
X6481Y6940D01*
G54D12*
X6388Y6953D02*
X6348Y6993D01*
X6348Y6887D01*
G54D12*
X6271Y6887D02*
X6271Y6993D01*
X6319Y6927D01*
X6319Y6913D01*
X6255Y6913D01*
G54D12*
X5302Y3918D02*
X5302Y4025D01*
X5262Y4025D01*
X5246Y4018D01*
X5238Y4005D01*
X5238Y3938D01*
X5246Y3925D01*
X5262Y3918D01*
X5302Y3918D01*
G54D12*
X5145Y3918D02*
X5209Y3918D01*
X5209Y3925D01*
X5201Y3938D01*
X5153Y3978D01*
X5145Y3991D01*
X5145Y4005D01*
X5153Y4018D01*
X5169Y4025D01*
X5185Y4025D01*
X5201Y4018D01*
X5209Y4005D01*
G54D12*
X4939Y3902D02*
X4939Y4009D01*
X4899Y4009D01*
X4883Y4002D01*
X4875Y3989D01*
X4875Y3922D01*
X4883Y3909D01*
X4899Y3902D01*
X4939Y3902D01*
G54D12*
X4846Y3989D02*
X4838Y4002D01*
X4822Y4009D01*
X4806Y4009D01*
X4790Y4002D01*
X4782Y3989D01*
X4782Y3975D01*
X4790Y3962D01*
X4806Y3955D01*
X4790Y3949D01*
X4782Y3935D01*
X4782Y3922D01*
X4790Y3909D01*
X4806Y3902D01*
X4822Y3902D01*
X4838Y3909D01*
X4846Y3922D01*
M02*
