; Drill file
; Format: 2.4 (00.0000)
M48
INCH
T01C0.012
T02C0.024
T03C0.035
T04C0.039
T05C0.043
%
G05
G90
T01
X019810Y016680
X023190Y018930
X023560Y018930
X023190Y020060
X023560Y020310
X022940Y020870
X022630Y020180
X022190Y021310
X022190Y021620
X023310Y022000
X023870Y021430
X023690Y023180
X024630Y024430
X024630Y024680
X025810Y023870
X022560Y024870
X023690Y026560
X022500Y027810
X021940Y027120
X023310Y029500
X024690Y028680
X025000Y028680
X025940Y029180
X026560Y029180
X025940Y030120
X027810Y030060
X028250Y030060
X029250Y029620
X029690Y029930
X028690Y029060
X029000Y028310
X029370Y028310
X029250Y027240
X028500Y027240
X027690Y027240
X027690Y027930
X025810Y027560
X023310Y031430
X027690Y032870
X028440Y032870
X029130Y032870
X029940Y032870
X030690Y030930
T02
X017330Y019350
X016170Y020830
X019250Y020620
X019250Y018620
T03
X018190Y029740
X019630Y029710
X019630Y031680
X018190Y031740
X031220Y033730
X031750Y033430
X031750Y032430
X031750Y031430
X031750Y030430
X031750Y029430
X031750Y028430
X031220Y027670
T04
X021300Y022440
X021300Y025410
X027250Y025400
X029230Y025400
X031200Y025400
X031200Y022430
X029230Y022430
X027250Y022430
T05
X020810Y017310
X020810Y018560
X020810Y019740
X020810Y020870
X022410Y019280
X024370Y019280
X026340Y019280
X028310Y019280
X030280Y019280
X030280Y017310
X028310Y017310
X026340Y017310
X024370Y017310
X022410Y017310
X018940Y022590
X016970Y022590
X016970Y024560
X018940Y024560
X016560Y028060
X016560Y030030
M30
