%FSLAX32Y32*%
%MOMM*%
%LNKUPFERSEITE1*%
G71*
G01*
%ADD10C, 2.00*%
%ADD11C, 3.00*%
%ADD12C, 2.50*%
%ADD13C, 3.00*%
%ADD14C, 0.60*%
%ADD15C, 0.80*%
%ADD16C, 0.40*%
%ADD17C, 2.00*%
%ADD18C, 0.60*%
%LPD*%
X5409Y6454D02*
G54D10*
D03*
X5409Y5701D02*
G54D10*
D03*
X6922Y5698D02*
G54D11*
D03*
X6922Y6451D02*
G54D11*
D03*
X7424Y5698D02*
G54D11*
D03*
X7424Y6451D02*
G54D11*
D03*
X7926Y5698D02*
G54D11*
D03*
X7926Y6451D02*
G54D11*
D03*
X5691Y4396D02*
G54D12*
D03*
X5691Y4896D02*
G54D12*
D03*
X6191Y4396D02*
G54D12*
D03*
X6191Y4896D02*
G54D12*
D03*
X6691Y4396D02*
G54D12*
D03*
X6691Y4896D02*
G54D12*
D03*
X7191Y4396D02*
G54D12*
D03*
X7191Y4896D02*
G54D12*
D03*
X7691Y4396D02*
G54D12*
D03*
X7691Y4896D02*
G54D12*
D03*
G54D13*
X7668Y4412D02*
X7668Y4984D01*
X7922Y5238D01*
X7922Y6460D01*
G54D13*
X7414Y6444D02*
X7414Y5444D01*
X7176Y5206D01*
X7176Y4412D01*
G54D13*
X6922Y6460D02*
X6922Y5698D01*
X6731Y5507D01*
X6731Y4412D01*
X5286Y5301D02*
G54D12*
D03*
X5286Y5015D02*
G54D12*
D03*
X5286Y4396D02*
G54D12*
D03*
X5636Y5412D02*
G54D14*
D03*
X5636Y5492D02*
G54D14*
D03*
G54D15*
X5636Y5412D02*
X5636Y6206D01*
X5382Y6444D01*
G54D15*
X5334Y4412D02*
X5413Y4460D01*
X5572Y4650D01*
X5953Y4650D01*
X6175Y4428D01*
G54D16*
X5334Y5015D02*
X5620Y5158D01*
X5622Y5222D01*
X5973Y5222D01*
X5977Y5158D01*
X6144Y5158D01*
X6144Y6634D01*
G54D16*
X5334Y5301D02*
X5445Y5301D01*
X5620Y5301D01*
X5826Y5301D01*
X5826Y6619D01*
X4985Y8047D02*
G54D17*
D03*
X4985Y7547D02*
G54D17*
D03*
X7931Y8568D02*
G54D17*
D03*
X7931Y7028D02*
G54D17*
D03*
X4811Y6238D02*
G54D12*
D03*
X4811Y5738D02*
G54D12*
D03*
X4311Y6238D02*
G54D12*
D03*
X4311Y5738D02*
G54D12*
D03*
G54D15*
X7966Y7018D02*
X7966Y7289D01*
X7633Y7290D01*
X6266Y7290D01*
G54D18*
X7598Y8343D02*
X7598Y8531D01*
X7683Y8615D01*
X7958Y8615D01*
X6271Y7285D02*
G54D14*
D03*
X6350Y7285D02*
G54D14*
D03*
X5731Y6317D02*
G54D14*
D03*
G54D15*
X5731Y6317D02*
X5715Y6317D01*
X5652Y6254D01*
G54D18*
X6017Y5904D02*
X6017Y6777D01*
X6017Y5888D02*
G54D14*
D03*
X6017Y6746D02*
G54D14*
D03*
X5826Y5301D02*
G54D14*
D03*
X5985Y5158D02*
G54D14*
D03*
G54D18*
X6017Y5888D02*
X6017Y5587D01*
X6064Y5444D01*
X6064Y5444D02*
G54D14*
D03*
G54D16*
X6239Y4936D02*
X6239Y7095D01*
X7041Y7095D01*
G54D18*
X6017Y6762D02*
X6017Y7000D01*
X6017Y7142D01*
X6017Y7587D01*
X6175Y7746D01*
X7461Y7746D01*
X7604Y7889D01*
X7604Y8365D01*
X7604Y8349D02*
G54D14*
D03*
X7604Y6936D02*
G54D14*
D03*
G54D16*
X5826Y6619D02*
X5826Y7000D01*
X5826Y7571D01*
X6112Y7857D01*
X7334Y7857D01*
X7398Y7920D01*
X7398Y8349D01*
X7398Y8349D02*
G54D14*
D03*
G54D16*
X6144Y6634D02*
X6144Y7190D01*
X8017Y8285D02*
G54D17*
D03*
X8017Y8031D02*
G54D17*
D03*
X8017Y7777D02*
G54D17*
D03*
X8017Y7523D02*
G54D17*
D03*
G54D16*
X5826Y6968D02*
X5652Y6968D01*
X5572Y6888D01*
X5572Y6888D02*
G54D14*
D03*
G54D16*
X7604Y7873D02*
X7604Y7682D01*
X7747Y7539D01*
X8033Y7539D01*
X7874Y7666D02*
G54D14*
D03*
G54D16*
X7874Y7666D02*
X7795Y7658D01*
X7795Y8254D01*
X7826Y8286D01*
X7985Y8286D01*
X4620Y8063D02*
G54D17*
D03*
X4620Y7555D02*
G54D17*
D03*
X4207Y7127D02*
G54D12*
D03*
X4207Y7627D02*
G54D12*
D03*
G54D16*
X6144Y7190D02*
X7255Y7190D01*
X7255Y7016D01*
X7128Y7016D01*
X7033Y6920D01*
X7033Y7095D02*
G54D14*
D03*
X7048Y6936D02*
G54D14*
D03*
X5715Y7063D02*
G54D14*
D03*
G54D16*
X5715Y7063D02*
X5715Y7619D01*
X6080Y7984D01*
X7223Y7984D01*
X7223Y8349D01*
X7223Y8349D02*
G54D14*
D03*
X5985Y4809D02*
G54D14*
D03*
X5286Y4714D02*
G54D12*
D03*
X5890Y4809D02*
G54D14*
D03*
X5890Y5095D02*
G54D14*
D03*
G54D16*
X5985Y5158D02*
X5985Y4809D01*
G54D16*
X5890Y4809D02*
X5890Y5095D01*
G54D16*
X5366Y4745D02*
X5413Y4809D01*
X5556Y4999D01*
X5556Y4999D01*
X5683Y5126D01*
X5858Y5126D01*
X5890Y5095D01*
X5921Y5587D02*
G54D14*
D03*
X5747Y5126D02*
G54D14*
D03*
G54D16*
X5921Y5587D02*
X5921Y7492D01*
G54D16*
X5921Y7984D02*
X6032Y8095D01*
X6969Y8095D01*
X7033Y8158D01*
X7033Y8349D01*
X7033Y8349D02*
G54D14*
D03*
X5921Y7492D02*
G54D14*
D03*
X5921Y7984D02*
G54D14*
D03*
M02*
