%FSLAX32Y32*%
%MOMM*%
%LNKUPFERSEITE2*%
G71*
G01*
%ADD10C, 2.00*%
%ADD11C, 3.00*%
%ADD12C, 2.50*%
%ADD13C, 3.00*%
%ADD14C, 1.00*%
%ADD15C, 0.80*%
%ADD16C, 0.60*%
%ADD17C, 2.00*%
%ADD18C, 2.00*%
%ADD19C, 0.40*%
%ADD20C, 0.60*%
%ADD21C, 2.00*%
%ADD22C, 1.80*%
%ADD23C, 0.30*%
%ADD24C, 0.50*%
%LPD*%
X5409Y6454D02*
G54D10*
D03*
X5409Y5701D02*
G54D10*
D03*
X6922Y5698D02*
G54D11*
D03*
X6922Y6451D02*
G54D11*
D03*
X7424Y5698D02*
G54D11*
D03*
X7424Y6451D02*
G54D11*
D03*
X7926Y5698D02*
G54D11*
D03*
X7926Y6451D02*
G54D11*
D03*
X5691Y4396D02*
G54D12*
D03*
X5691Y4896D02*
G54D12*
D03*
X6191Y4396D02*
G54D12*
D03*
X6191Y4896D02*
G54D12*
D03*
X6691Y4396D02*
G54D12*
D03*
X6691Y4896D02*
G54D12*
D03*
X7191Y4396D02*
G54D12*
D03*
X7191Y4896D02*
G54D12*
D03*
X7691Y4396D02*
G54D12*
D03*
X7691Y4896D02*
G54D12*
D03*
G54D13*
X7668Y4412D02*
X7668Y4984D01*
X7922Y5238D01*
X7922Y6460D01*
G54D13*
X7414Y6444D02*
X7414Y5444D01*
X7176Y5206D01*
X7176Y4412D01*
G54D13*
X6922Y6460D02*
X6922Y5698D01*
X6731Y5507D01*
X6731Y4412D01*
X5286Y5301D02*
G54D12*
D03*
X5286Y5015D02*
G54D12*
D03*
X5286Y4396D02*
G54D12*
D03*
G36*
X5562Y6344D02*
X5562Y6194D01*
X5262Y6194D01*
X5262Y6344D01*
X5562Y6344D01*
G37*
G36*
X5562Y5964D02*
X5562Y5814D01*
X5262Y5814D01*
X5262Y5964D01*
X5562Y5964D01*
G37*
G36*
X5621Y6777D02*
X5621Y6687D01*
X5531Y6687D01*
X5531Y6777D01*
X5621Y6777D01*
G37*
G36*
X5620Y6610D02*
X5620Y6520D01*
X5530Y6520D01*
X5530Y6610D01*
X5620Y6610D01*
G37*
G36*
X5928Y5658D02*
X5818Y5658D01*
X5818Y5768D01*
X5928Y5768D01*
X5928Y5658D01*
G37*
G36*
X5738Y5658D02*
X5628Y5658D01*
X5628Y5768D01*
X5738Y5768D01*
X5738Y5658D01*
G37*
G36*
X5833Y5436D02*
X5723Y5436D01*
X5723Y5546D01*
X5833Y5546D01*
X5833Y5436D01*
G37*
G54D14*
X5398Y5714D02*
X5398Y5825D01*
X5382Y5841D01*
G54D14*
X5398Y6428D02*
X5398Y6254D01*
G54D15*
X5636Y4396D02*
X5636Y5492D01*
X5636Y5412D02*
G54D16*
D03*
X5636Y5492D02*
G54D16*
D03*
X4985Y8047D02*
G54D17*
D03*
X4985Y7547D02*
G54D17*
D03*
X7931Y8568D02*
G54D17*
D03*
X7931Y7028D02*
G54D17*
D03*
X4811Y6238D02*
G54D18*
D03*
X4811Y5738D02*
G54D18*
D03*
X4311Y6238D02*
G54D18*
D03*
X4311Y5738D02*
G54D18*
D03*
G54D15*
X5401Y6465D02*
X5401Y6888D01*
X5602Y7137D01*
X5835Y7290D01*
X6361Y7290D01*
X6271Y7285D02*
G54D16*
D03*
X6350Y7285D02*
G54D16*
D03*
G36*
X6330Y5921D02*
X6180Y5921D01*
X6180Y6111D01*
X6330Y6111D01*
X6330Y5921D01*
G37*
G36*
X6100Y5920D02*
X5950Y5920D01*
X5950Y6110D01*
X6100Y6110D01*
X6100Y5920D01*
G37*
G36*
X5870Y5920D02*
X5720Y5920D01*
X5720Y6110D01*
X5870Y6110D01*
X5870Y5920D01*
G37*
G36*
X6234Y6497D02*
X5814Y6497D01*
X5814Y6707D01*
X6234Y6707D01*
X6234Y6497D01*
G37*
G54D19*
X5461Y5682D02*
X5524Y5682D01*
X5604Y5603D01*
X5699Y5603D01*
X5763Y5539D01*
G54D19*
X5636Y6571D02*
X5636Y5872D01*
X5699Y5746D01*
G54D20*
X5858Y5825D02*
X5858Y5730D01*
G54D15*
X6160Y4364D02*
X6160Y5523D01*
X5985Y5714D01*
X5874Y5714D01*
X5731Y6317D02*
G54D16*
D03*
G36*
X6114Y5872D02*
X6114Y5782D01*
X6024Y5782D01*
X6024Y5872D01*
X6114Y5872D01*
G37*
G36*
X6113Y5705D02*
X6113Y5615D01*
X6023Y5615D01*
X6023Y5705D01*
X6113Y5705D01*
G37*
G54D19*
X6032Y5952D02*
X6032Y5825D01*
X6017Y5888D02*
G54D16*
D03*
X6017Y6746D02*
G54D16*
D03*
G36*
X6002Y5491D02*
X6002Y5401D01*
X5912Y5401D01*
X5912Y5491D01*
X6002Y5491D01*
G37*
G36*
X6001Y5324D02*
X6001Y5234D01*
X5911Y5234D01*
X5911Y5324D01*
X6001Y5324D01*
G37*
G36*
X6034Y5190D02*
X6034Y5100D01*
X5944Y5100D01*
X5944Y5190D01*
X6034Y5190D01*
G37*
G36*
X6033Y5023D02*
X6033Y4933D01*
X5943Y4933D01*
X5943Y5023D01*
X6033Y5023D01*
G37*
X5826Y5301D02*
G54D16*
D03*
X5985Y5158D02*
G54D16*
D03*
G54D20*
X5826Y5301D02*
X5906Y5301D01*
X5937Y5269D01*
X6064Y5444D02*
G54D16*
D03*
G54D19*
X5969Y5444D02*
X6080Y5444D01*
X6080Y5079D01*
X6001Y4999D01*
X5874Y4999D01*
G54D19*
X6017Y6682D02*
X6017Y6746D01*
X7398Y8349D02*
G54D16*
D03*
X8017Y8285D02*
G54D17*
D03*
X8017Y8031D02*
G54D17*
D03*
X8017Y7777D02*
G54D17*
D03*
X8017Y7523D02*
G54D17*
D03*
G36*
X5764Y6777D02*
X5764Y6687D01*
X5674Y6687D01*
X5674Y6777D01*
X5764Y6777D01*
G37*
G36*
X5763Y6610D02*
X5763Y6520D01*
X5673Y6520D01*
X5673Y6610D01*
X5763Y6610D01*
G37*
G54D19*
X5572Y6571D02*
X5731Y6571D01*
X5572Y6888D02*
G54D16*
D03*
G54D19*
X5572Y6888D02*
X5572Y6746D01*
G54D19*
X6398Y6904D02*
X6398Y7000D01*
X6525Y7127D01*
X6922Y7127D01*
X7572Y7778D01*
X7969Y7778D01*
G54D19*
X6191Y6920D02*
X6191Y7016D01*
X6350Y7174D01*
X6414Y7174D01*
X6493Y7254D01*
X6922Y7254D01*
X7715Y8047D01*
X8001Y8047D01*
G54D19*
X7588Y6936D02*
X7588Y7460D01*
X7787Y7658D01*
X7874Y7666D01*
X7874Y7666D02*
G54D16*
D03*
G36*
X4636Y6408D02*
X4636Y6608D01*
X5011Y6608D01*
X5011Y6408D01*
X4636Y6408D01*
G37*
G36*
X4637Y7249D02*
X4637Y7449D01*
X5012Y7449D01*
X5012Y7249D01*
X4637Y7249D01*
G37*
G54D21*
X4810Y6460D02*
X4810Y5746D01*
G54D21*
X4207Y7127D02*
X4207Y7635D01*
X4326Y7881D01*
X4572Y8063D01*
X4937Y8063D01*
X4620Y8063D02*
G54D17*
D03*
X4620Y7555D02*
G54D17*
D03*
G54D21*
X4572Y7349D02*
X4572Y7539D01*
X4786Y7539D01*
X4937Y7539D01*
X4207Y7127D02*
G54D18*
D03*
X4207Y7627D02*
G54D18*
D03*
X7033Y7095D02*
G54D16*
D03*
G54D19*
X7033Y7095D02*
X7588Y7095D01*
X7033Y6920D02*
G54D16*
D03*
G54D19*
X5715Y7047D02*
X5715Y6746D01*
X5715Y7063D02*
G54D16*
D03*
X7223Y8349D02*
G54D16*
D03*
G36*
X5887Y5796D02*
X5797Y5796D01*
X5797Y5886D01*
X5887Y5886D01*
X5887Y5796D01*
G37*
G36*
X5720Y5795D02*
X5630Y5795D01*
X5630Y5885D01*
X5720Y5885D01*
X5720Y5795D01*
G37*
G36*
X6034Y4888D02*
X6034Y4798D01*
X5944Y4798D01*
X5944Y4888D01*
X6034Y4888D01*
G37*
G36*
X6033Y4721D02*
X6033Y4631D01*
X5943Y4631D01*
X5943Y4721D01*
X6033Y4721D01*
G37*
G36*
X5529Y5460D02*
X5439Y5460D01*
X5439Y5550D01*
X5529Y5550D01*
X5529Y5460D01*
G37*
G36*
X5362Y5461D02*
X5272Y5461D01*
X5272Y5551D01*
X5362Y5551D01*
X5362Y5461D01*
G37*
G54D19*
X5318Y5492D02*
X5318Y5317D01*
X5985Y4809D02*
G54D16*
D03*
G36*
X6062Y4478D02*
X5972Y4478D01*
X5972Y4568D01*
X6062Y4568D01*
X6062Y4478D01*
G37*
G36*
X5895Y4477D02*
X5805Y4477D01*
X5805Y4567D01*
X5895Y4567D01*
X5895Y4477D01*
G37*
G54D20*
X6017Y4523D02*
X6160Y4523D01*
X5286Y4714D02*
G54D12*
D03*
G36*
X5923Y5190D02*
X5923Y5100D01*
X5833Y5100D01*
X5833Y5190D01*
X5923Y5190D01*
G37*
G36*
X5922Y5023D02*
X5922Y4933D01*
X5832Y4933D01*
X5832Y5023D01*
X5922Y5023D01*
G37*
G36*
X5923Y4888D02*
X5923Y4798D01*
X5833Y4798D01*
X5833Y4888D01*
X5923Y4888D01*
G37*
G36*
X5922Y4721D02*
X5922Y4631D01*
X5832Y4631D01*
X5832Y4721D01*
X5922Y4721D01*
G37*
X5890Y4809D02*
G54D16*
D03*
X5890Y5095D02*
G54D16*
D03*
G54D19*
X5747Y5126D02*
X5747Y5364D01*
X5763Y5380D01*
X5874Y5380D01*
X5874Y5539D01*
X5921Y5587D01*
X5921Y5587D02*
G54D16*
D03*
X5747Y5126D02*
G54D16*
D03*
X7033Y8349D02*
G54D16*
D03*
X5921Y7492D02*
G54D16*
D03*
X5921Y7984D02*
G54D16*
D03*
G54D19*
X5921Y7492D02*
X5921Y7984D01*
X4402Y4915D02*
G54D22*
D03*
X4107Y5290D02*
G54D22*
D03*
X4890Y4729D02*
G54D22*
D03*
X4890Y5237D02*
G54D22*
D03*
G54D21*
X4302Y6238D02*
X4302Y5730D01*
G54D23*
X4890Y4714D02*
X4890Y4523D01*
X4969Y4444D01*
X5223Y4444D01*
X5255Y4476D01*
G36*
X4681Y4376D02*
X4758Y4454D01*
X4836Y4376D01*
X4758Y4299D01*
X4681Y4376D01*
G37*
G36*
X4815Y4511D02*
X4893Y4589D01*
X4971Y4511D01*
X4893Y4433D01*
X4815Y4511D01*
G37*
G36*
X4591Y4601D02*
X4669Y4678D01*
X4746Y4601D01*
X4669Y4523D01*
X4591Y4601D01*
G37*
G36*
X4454Y4923D02*
X4532Y4845D01*
X4433Y4746D01*
X4355Y4824D01*
X4454Y4923D01*
G37*
G36*
X4600Y4777D02*
X4677Y4699D01*
X4578Y4600D01*
X4501Y4678D01*
X4600Y4777D01*
G37*
G54D24*
X4588Y4682D02*
X4667Y4602D01*
X4667Y4491D01*
X4778Y4380D01*
G54D23*
X4762Y4364D02*
X4890Y4301D01*
X5080Y4206D01*
X6318Y4206D01*
X6366Y4253D01*
X6366Y5142D01*
G36*
X6380Y5428D02*
X6380Y5323D01*
X6290Y5324D01*
X6290Y5429D01*
X6380Y5428D01*
G37*
G36*
X6380Y5182D02*
X6380Y5077D01*
X6290Y5076D01*
X6290Y5181D01*
X6380Y5182D01*
G37*
G36*
X5459Y6238D02*
X5459Y6133D01*
X5369Y6133D01*
X5369Y6238D01*
X5459Y6238D01*
G37*
G36*
X5459Y5991D02*
X5459Y5886D01*
X5369Y5886D01*
X5369Y5991D01*
X5459Y5991D01*
G37*
G36*
X6381Y6124D02*
X6381Y6214D01*
X6471Y6214D01*
X6471Y6124D01*
X6381Y6124D01*
G37*
G36*
X6380Y6291D02*
X6380Y6381D01*
X6470Y6381D01*
X6470Y6291D01*
X6380Y6291D01*
G37*
G36*
X6508Y6124D02*
X6508Y6214D01*
X6598Y6214D01*
X6598Y6124D01*
X6508Y6124D01*
G37*
G36*
X6507Y6291D02*
X6507Y6381D01*
X6597Y6381D01*
X6597Y6291D01*
X6507Y6291D01*
G37*
G54D23*
X6334Y5364D02*
X6334Y5634D01*
X6556Y5857D01*
X6556Y6158D01*
G54D23*
X6429Y6158D02*
X6540Y6158D01*
X6556Y6063D02*
G54D16*
D03*
X6826Y6904D02*
G54D16*
D03*
X7430Y6920D02*
G54D16*
D03*
G36*
X7805Y8559D02*
X7715Y8559D01*
X7715Y8649D01*
X7805Y8649D01*
X7805Y8559D01*
G37*
G36*
X7638Y8558D02*
X7548Y8558D01*
X7548Y8648D01*
X7638Y8648D01*
X7638Y8558D01*
G37*
G36*
X7439Y8559D02*
X7349Y8559D01*
X7349Y8649D01*
X7439Y8649D01*
X7439Y8559D01*
G37*
G36*
X7272Y8558D02*
X7182Y8558D01*
X7182Y8648D01*
X7272Y8648D01*
X7272Y8558D01*
G37*
G36*
X7154Y8559D02*
X7064Y8559D01*
X7064Y8649D01*
X7154Y8649D01*
X7154Y8559D01*
G37*
G36*
X6987Y8558D02*
X6897Y8558D01*
X6897Y8648D01*
X6987Y8648D01*
X6987Y8558D01*
G37*
G36*
X6868Y8559D02*
X6778Y8559D01*
X6778Y8649D01*
X6868Y8649D01*
X6868Y8559D01*
G37*
G36*
X6701Y8558D02*
X6611Y8558D01*
X6611Y8648D01*
X6701Y8648D01*
X6701Y8558D01*
G37*
G36*
X6550Y8559D02*
X6460Y8559D01*
X6460Y8649D01*
X6550Y8649D01*
X6550Y8559D01*
G37*
G36*
X6383Y8558D02*
X6293Y8558D01*
X6293Y8648D01*
X6383Y8648D01*
X6383Y8558D01*
G37*
G36*
X7570Y6934D02*
X7690Y6934D01*
X7690Y6784D01*
X7570Y6784D01*
X7570Y6934D01*
G37*
G36*
X7370Y6934D02*
X7490Y6934D01*
X7490Y6784D01*
X7370Y6784D01*
X7370Y6934D01*
G37*
G36*
X7170Y6934D02*
X7290Y6934D01*
X7290Y6784D01*
X7170Y6784D01*
X7170Y6934D01*
G37*
G36*
X6970Y6934D02*
X7090Y6934D01*
X7090Y6784D01*
X6970Y6784D01*
X6970Y6934D01*
G37*
G36*
X6770Y6934D02*
X6890Y6934D01*
X6890Y6784D01*
X6770Y6784D01*
X6770Y6934D01*
G37*
G36*
X6570Y6934D02*
X6690Y6934D01*
X6690Y6784D01*
X6570Y6784D01*
X6570Y6934D01*
G37*
G36*
X6370Y6934D02*
X6490Y6934D01*
X6490Y6784D01*
X6370Y6784D01*
X6370Y6934D01*
G37*
G36*
X6170Y6934D02*
X6290Y6934D01*
X6290Y6784D01*
X6170Y6784D01*
X6170Y6934D01*
G37*
G36*
X7570Y8497D02*
X7690Y8497D01*
X7690Y8347D01*
X7570Y8347D01*
X7570Y8497D01*
G37*
G36*
X7370Y8497D02*
X7490Y8497D01*
X7490Y8347D01*
X7370Y8347D01*
X7370Y8497D01*
G37*
G36*
X7170Y8497D02*
X7290Y8497D01*
X7290Y8347D01*
X7170Y8347D01*
X7170Y8497D01*
G37*
G36*
X6970Y8497D02*
X7090Y8497D01*
X7090Y8347D01*
X6970Y8347D01*
X6970Y8497D01*
G37*
G36*
X6770Y8497D02*
X6890Y8497D01*
X6890Y8347D01*
X6770Y8347D01*
X6770Y8497D01*
G37*
G36*
X6570Y8497D02*
X6690Y8497D01*
X6690Y8347D01*
X6570Y8347D01*
X6570Y8497D01*
G37*
G36*
X6370Y8497D02*
X6490Y8497D01*
X6490Y8347D01*
X6370Y8347D01*
X6370Y8497D01*
G37*
G36*
X6170Y8497D02*
X6290Y8497D01*
X6290Y8347D01*
X6170Y8347D01*
X6170Y8497D01*
G37*
G54D23*
X6826Y8603D02*
X6826Y8682D01*
X7112Y8682D01*
X7112Y8619D01*
X7112Y8682D01*
X7398Y8682D01*
X7398Y8619D01*
X7398Y8682D01*
X7684Y8682D01*
X7684Y8460D01*
X7604Y8349D02*
G54D16*
D03*
G54D15*
X5731Y6317D02*
X5778Y6317D01*
X5778Y6063D01*
G54D20*
X6255Y6047D02*
X6255Y6301D01*
X6286Y6333D01*
X6540Y6333D01*
G54D14*
X7938Y8571D02*
X7938Y8365D01*
X8017Y8286D01*
G54D24*
X6652Y8603D02*
X6652Y8460D01*
X7239Y6920D02*
G54D16*
D03*
X7366Y7190D02*
G54D16*
D03*
X7461Y7190D02*
G54D16*
D03*
X7366Y7412D02*
G54D16*
D03*
X7461Y7412D02*
G54D16*
D03*
G54D23*
X7588Y8603D02*
X7525Y8524D01*
X7525Y7984D01*
X7176Y7635D01*
X7064Y7539D02*
G54D16*
D03*
X7176Y7635D02*
G54D16*
D03*
G54D23*
X7366Y7190D02*
X7366Y7412D01*
G54D23*
X7461Y7190D02*
X7461Y7412D01*
G54D23*
X7223Y8587D02*
X7255Y8587D01*
X7334Y8508D01*
X7334Y7920D01*
X7064Y7650D01*
X7064Y7539D01*
G54D23*
X7763Y8587D02*
X7858Y8587D01*
G54D23*
X6842Y8682D02*
X6509Y8682D01*
X6509Y8619D01*
G54D23*
X6334Y8603D02*
X6239Y8603D01*
X6239Y8460D01*
G54D20*
X5683Y4523D02*
X5826Y4523D01*
G54D23*
X5874Y4682D02*
X6160Y4682D01*
G54D23*
X5382Y4428D02*
X5382Y4444D01*
X5509Y4571D01*
X5509Y5460D01*
X5477Y5492D01*
G54D23*
X4112Y5317D02*
X4143Y5317D01*
X4334Y5507D01*
X4334Y5682D01*
G54D23*
X4572Y7333D02*
X4572Y7142D01*
X4366Y6936D01*
X4366Y6587D01*
X4493Y6460D01*
X4556Y6301D01*
X4556Y5523D01*
X4842Y5238D01*
G36*
X6380Y5857D02*
X6380Y5752D01*
X6290Y5752D01*
X6290Y5857D01*
X6380Y5857D01*
G37*
G36*
X6380Y5610D02*
X6380Y5505D01*
X6290Y5505D01*
X6290Y5610D01*
X6380Y5610D01*
G37*
X6255Y6206D02*
G54D16*
D03*
X6255Y6269D02*
G54D16*
D03*
G54D20*
X6064Y5825D02*
X6318Y5825D01*
M02*
