%FSLAX32Y32*%
%MOMM*%
%LNKUPFERSEITE2*%
G71*
G01*
%ADD10C, 2.00*%
%ADD11C, 3.00*%
%ADD12C, 2.50*%
%ADD13C, 3.00*%
%ADD14C, 1.00*%
%ADD15C, 0.33*%
%ADD16C, 0.80*%
%ADD17C, 0.60*%
%ADD18C, 2.00*%
%ADD19C, 0.40*%
%ADD20C, 0.60*%
%ADD21C, 2.00*%
%ADD22C, 0.22*%
%LPD*%
X5409Y6454D02*
G54D10*
D03*
X5409Y5701D02*
G54D10*
D03*
X6922Y5698D02*
G54D11*
D03*
X6922Y6451D02*
G54D11*
D03*
X7424Y5698D02*
G54D11*
D03*
X7424Y6451D02*
G54D11*
D03*
X7926Y5698D02*
G54D11*
D03*
X7926Y6451D02*
G54D11*
D03*
X5691Y4396D02*
G54D12*
D03*
X5691Y4896D02*
G54D12*
D03*
X6191Y4396D02*
G54D12*
D03*
X6191Y4896D02*
G54D12*
D03*
X6691Y4396D02*
G54D12*
D03*
X6691Y4896D02*
G54D12*
D03*
X7191Y4396D02*
G54D12*
D03*
X7191Y4896D02*
G54D12*
D03*
X7691Y4396D02*
G54D12*
D03*
X7691Y4896D02*
G54D12*
D03*
G54D13*
X7668Y4412D02*
X7668Y4984D01*
X7922Y5238D01*
X7922Y6460D01*
G54D13*
X7414Y6444D02*
X7414Y5444D01*
X7176Y5206D01*
X7176Y4412D01*
G54D13*
X6922Y6460D02*
X6922Y5698D01*
X6731Y5507D01*
X6731Y4412D01*
X5286Y5301D02*
G54D12*
D03*
X5286Y5015D02*
G54D12*
D03*
X5286Y4396D02*
G54D12*
D03*
G36*
X5562Y6344D02*
X5562Y6194D01*
X5262Y6194D01*
X5262Y6344D01*
X5562Y6344D01*
G37*
G36*
X5562Y5964D02*
X5562Y5814D01*
X5262Y5814D01*
X5262Y5964D01*
X5562Y5964D01*
G37*
G36*
X5621Y6777D02*
X5621Y6687D01*
X5531Y6687D01*
X5531Y6777D01*
X5621Y6777D01*
G37*
G36*
X5620Y6610D02*
X5620Y6520D01*
X5530Y6520D01*
X5530Y6610D01*
X5620Y6610D01*
G37*
G36*
X5928Y5658D02*
X5818Y5658D01*
X5818Y5768D01*
X5928Y5768D01*
X5928Y5658D01*
G37*
G36*
X5738Y5658D02*
X5628Y5658D01*
X5628Y5768D01*
X5738Y5768D01*
X5738Y5658D01*
G37*
G36*
X5833Y5436D02*
X5723Y5436D01*
X5723Y5546D01*
X5833Y5546D01*
X5833Y5436D01*
G37*
G54D14*
X5398Y5714D02*
X5398Y5825D01*
X5382Y5841D01*
G54D14*
X5398Y6428D02*
X5398Y6254D01*
G54D15*
X6365Y4182D02*
X6205Y4182D01*
G54D15*
X5904Y4195D02*
X5744Y4195D01*
G54D15*
X5824Y4262D02*
X5824Y4128D01*
G54D16*
X5636Y4396D02*
X5636Y5492D01*
X5636Y5412D02*
G54D17*
D03*
X5636Y5492D02*
G54D17*
D03*
X4985Y8047D02*
G54D18*
D03*
X4985Y7547D02*
G54D18*
D03*
X7931Y8568D02*
G54D18*
D03*
X7931Y7028D02*
G54D18*
D03*
X4811Y6238D02*
G54D12*
D03*
X4811Y5738D02*
G54D12*
D03*
X4311Y6238D02*
G54D12*
D03*
X4311Y5738D02*
G54D12*
D03*
G36*
X7570Y6965D02*
X7690Y6965D01*
X7690Y6815D01*
X7570Y6815D01*
X7570Y6965D01*
G37*
G36*
X7370Y6965D02*
X7490Y6965D01*
X7490Y6815D01*
X7370Y6815D01*
X7370Y6965D01*
G37*
G36*
X7170Y6965D02*
X7290Y6965D01*
X7290Y6815D01*
X7170Y6815D01*
X7170Y6965D01*
G37*
G36*
X6970Y6965D02*
X7090Y6965D01*
X7090Y6815D01*
X6970Y6815D01*
X6970Y6965D01*
G37*
G36*
X6770Y6965D02*
X6890Y6965D01*
X6890Y6815D01*
X6770Y6815D01*
X6770Y6965D01*
G37*
G36*
X6570Y6965D02*
X6690Y6965D01*
X6690Y6815D01*
X6570Y6815D01*
X6570Y6965D01*
G37*
G36*
X6370Y6965D02*
X6490Y6965D01*
X6490Y6815D01*
X6370Y6815D01*
X6370Y6965D01*
G37*
G36*
X6170Y6965D02*
X6290Y6965D01*
X6290Y6815D01*
X6170Y6815D01*
X6170Y6965D01*
G37*
G36*
X7570Y8465D02*
X7690Y8465D01*
X7690Y8315D01*
X7570Y8315D01*
X7570Y8465D01*
G37*
G36*
X7370Y8465D02*
X7490Y8465D01*
X7490Y8315D01*
X7370Y8315D01*
X7370Y8465D01*
G37*
G36*
X7170Y8465D02*
X7290Y8465D01*
X7290Y8315D01*
X7170Y8315D01*
X7170Y8465D01*
G37*
G36*
X6970Y8465D02*
X7090Y8465D01*
X7090Y8315D01*
X6970Y8315D01*
X6970Y8465D01*
G37*
G36*
X6770Y8465D02*
X6890Y8465D01*
X6890Y8315D01*
X6770Y8315D01*
X6770Y8465D01*
G37*
G36*
X6570Y8465D02*
X6690Y8465D01*
X6690Y8315D01*
X6570Y8315D01*
X6570Y8465D01*
G37*
G36*
X6370Y8465D02*
X6490Y8465D01*
X6490Y8315D01*
X6370Y8315D01*
X6370Y8465D01*
G37*
G36*
X6170Y8465D02*
X6290Y8465D01*
X6290Y8315D01*
X6170Y8315D01*
X6170Y8465D01*
G37*
G54D16*
X5401Y6465D02*
X5401Y6888D01*
X5602Y7137D01*
X5835Y7290D01*
X6361Y7290D01*
X6271Y7285D02*
G54D17*
D03*
X6350Y7285D02*
G54D17*
D03*
G36*
X6330Y5921D02*
X6180Y5921D01*
X6180Y6111D01*
X6330Y6111D01*
X6330Y5921D01*
G37*
G36*
X6100Y5920D02*
X5950Y5920D01*
X5950Y6110D01*
X6100Y6110D01*
X6100Y5920D01*
G37*
G36*
X5870Y5920D02*
X5720Y5920D01*
X5720Y6110D01*
X5870Y6110D01*
X5870Y5920D01*
G37*
G36*
X6234Y6497D02*
X5814Y6497D01*
X5814Y6707D01*
X6234Y6707D01*
X6234Y6497D01*
G37*
G54D19*
X5461Y5682D02*
X5524Y5682D01*
X5604Y5603D01*
X5699Y5603D01*
X5763Y5539D01*
G54D19*
X5636Y6571D02*
X5636Y5872D01*
X5699Y5746D01*
G54D20*
X5794Y6015D02*
X5794Y5920D01*
X5874Y5841D01*
X5874Y5746D01*
G54D16*
X6160Y4364D02*
X6160Y5523D01*
X5985Y5714D01*
X5874Y5714D01*
G54D16*
X5731Y6317D02*
X6207Y6317D01*
X6239Y6285D01*
X6239Y6079D01*
X6255Y6063D01*
X5731Y6317D02*
G54D17*
D03*
G36*
X6114Y5872D02*
X6114Y5782D01*
X6024Y5782D01*
X6024Y5872D01*
X6114Y5872D01*
G37*
G36*
X6113Y5705D02*
X6113Y5615D01*
X6023Y5615D01*
X6023Y5705D01*
X6113Y5705D01*
G37*
G54D19*
X6032Y5952D02*
X6032Y5825D01*
X6017Y5888D02*
G54D17*
D03*
X6017Y6746D02*
G54D17*
D03*
G36*
X6002Y5491D02*
X6002Y5401D01*
X5912Y5401D01*
X5912Y5491D01*
X6002Y5491D01*
G37*
G36*
X6001Y5324D02*
X6001Y5234D01*
X5911Y5234D01*
X5911Y5324D01*
X6001Y5324D01*
G37*
G36*
X6034Y5190D02*
X6034Y5100D01*
X5944Y5100D01*
X5944Y5190D01*
X6034Y5190D01*
G37*
G36*
X6033Y5023D02*
X6033Y4933D01*
X5943Y4933D01*
X5943Y5023D01*
X6033Y5023D01*
G37*
X5826Y5301D02*
G54D17*
D03*
X5985Y5158D02*
G54D17*
D03*
G54D20*
X5826Y5301D02*
X5906Y5301D01*
X5937Y5269D01*
X6064Y5444D02*
G54D17*
D03*
G54D19*
X5969Y5444D02*
X6080Y5444D01*
X6080Y5079D01*
X6001Y4999D01*
X5874Y4999D01*
G54D19*
X6017Y6682D02*
X6017Y6746D01*
X7604Y8349D02*
G54D17*
D03*
X7604Y6936D02*
G54D17*
D03*
X7398Y8349D02*
G54D17*
D03*
X8017Y8285D02*
G54D18*
D03*
X8017Y8031D02*
G54D18*
D03*
X8017Y7777D02*
G54D18*
D03*
X8017Y7523D02*
G54D18*
D03*
G36*
X5764Y6777D02*
X5764Y6687D01*
X5674Y6687D01*
X5674Y6777D01*
X5764Y6777D01*
G37*
G36*
X5763Y6610D02*
X5763Y6520D01*
X5673Y6520D01*
X5673Y6610D01*
X5763Y6610D01*
G37*
G54D19*
X5572Y6571D02*
X5731Y6571D01*
X5572Y6888D02*
G54D17*
D03*
G54D19*
X5572Y6888D02*
X5572Y6746D01*
G54D19*
X6398Y6904D02*
X6398Y7000D01*
X6525Y7127D01*
X6922Y7127D01*
X7572Y7778D01*
X7969Y7778D01*
G54D19*
X6191Y6920D02*
X6191Y7016D01*
X6350Y7174D01*
X6414Y7174D01*
X6493Y7254D01*
X6922Y7254D01*
X7715Y8047D01*
X8001Y8047D01*
G54D19*
X7588Y6936D02*
X7588Y7460D01*
X7787Y7658D01*
X7874Y7666D01*
X7874Y7666D02*
G54D17*
D03*
G36*
X4585Y6611D02*
X4585Y6851D01*
X4935Y6851D01*
X4935Y6611D01*
X4585Y6611D01*
G37*
G36*
X4586Y7213D02*
X4586Y7453D01*
X4936Y7453D01*
X4936Y7213D01*
X4586Y7213D01*
G37*
G54D21*
X4810Y6650D02*
X4810Y5746D01*
G54D21*
X4302Y5746D02*
X4302Y6238D01*
X4207Y6317D01*
X4207Y7635D01*
X4278Y7849D01*
X4493Y8063D01*
X4937Y8063D01*
X4620Y8063D02*
G54D18*
D03*
X4620Y7555D02*
G54D18*
D03*
G54D21*
X4620Y7317D02*
X4620Y7539D01*
X4834Y7539D01*
X4985Y7539D01*
X4207Y7127D02*
G54D12*
D03*
X4207Y7627D02*
G54D12*
D03*
X7033Y7095D02*
G54D17*
D03*
G54D19*
X7033Y7095D02*
X7588Y7095D01*
X7048Y6936D02*
G54D17*
D03*
G54D19*
X5715Y7047D02*
X5715Y6746D01*
X5715Y7063D02*
G54D17*
D03*
X7223Y8349D02*
G54D17*
D03*
G36*
X5887Y5796D02*
X5797Y5796D01*
X5797Y5886D01*
X5887Y5886D01*
X5887Y5796D01*
G37*
G36*
X5720Y5795D02*
X5630Y5795D01*
X5630Y5885D01*
X5720Y5885D01*
X5720Y5795D01*
G37*
G54D22*
X4349Y5390D02*
X4349Y5568D01*
X4242Y5390D01*
X4242Y5568D01*
G54D22*
X4828Y5568D02*
X4828Y5390D01*
X4735Y5390D01*
G36*
X6034Y4888D02*
X6034Y4798D01*
X5944Y4798D01*
X5944Y4888D01*
X6034Y4888D01*
G37*
G36*
X6033Y4721D02*
X6033Y4631D01*
X5943Y4631D01*
X5943Y4721D01*
X6033Y4721D01*
G37*
G36*
X5529Y5460D02*
X5439Y5460D01*
X5439Y5550D01*
X5529Y5550D01*
X5529Y5460D01*
G37*
G36*
X5362Y5461D02*
X5272Y5461D01*
X5272Y5551D01*
X5362Y5551D01*
X5362Y5461D01*
G37*
G54D19*
X5493Y5492D02*
X5620Y5492D01*
G54D19*
X5318Y5492D02*
X5318Y5317D01*
X5985Y4809D02*
G54D17*
D03*
G54D19*
X5985Y4682D02*
X5652Y4682D01*
G36*
X6062Y4478D02*
X5972Y4478D01*
X5972Y4568D01*
X6062Y4568D01*
X6062Y4478D01*
G37*
G36*
X5895Y4477D02*
X5805Y4477D01*
X5805Y4567D01*
X5895Y4567D01*
X5895Y4477D01*
G37*
G54D20*
X6017Y4523D02*
X6160Y4523D01*
G54D20*
X5842Y4523D02*
X5652Y4523D01*
X5286Y4714D02*
G54D12*
D03*
G36*
X5923Y5190D02*
X5923Y5100D01*
X5833Y5100D01*
X5833Y5190D01*
X5923Y5190D01*
G37*
G36*
X5922Y5023D02*
X5922Y4933D01*
X5832Y4933D01*
X5832Y5023D01*
X5922Y5023D01*
G37*
G36*
X5923Y4888D02*
X5923Y4798D01*
X5833Y4798D01*
X5833Y4888D01*
X5923Y4888D01*
G37*
G36*
X5922Y4721D02*
X5922Y4631D01*
X5832Y4631D01*
X5832Y4721D01*
X5922Y4721D01*
G37*
X5890Y4809D02*
G54D17*
D03*
X5890Y5095D02*
G54D17*
D03*
G54D19*
X5747Y5126D02*
X5747Y5364D01*
X5763Y5380D01*
X5874Y5380D01*
X5874Y5539D01*
X5921Y5587D01*
X5921Y5587D02*
G54D17*
D03*
X5747Y5126D02*
G54D17*
D03*
X7033Y8349D02*
G54D17*
D03*
X5921Y7492D02*
G54D17*
D03*
X5921Y7984D02*
G54D17*
D03*
G54D19*
X5921Y7492D02*
X5921Y7984D01*
M02*
