%FSLAX32Y32*%
%MOMM*%
%LNLOETSTOP2*%
G71*
G01*
%ADD10C, 2.60*%
%ADD11C, 3.60*%
%ADD12C, 3.10*%
%ADD13C, 1.20*%
%ADD14C, 2.60*%
%LPD*%
X5409Y6454D02*
G54D10*
D03*
X5409Y5701D02*
G54D10*
D03*
X6922Y5698D02*
G54D11*
D03*
X6922Y6451D02*
G54D11*
D03*
X7424Y5698D02*
G54D11*
D03*
X7424Y6451D02*
G54D11*
D03*
X7926Y5698D02*
G54D11*
D03*
X7926Y6451D02*
G54D11*
D03*
X5691Y4396D02*
G54D12*
D03*
X5691Y4896D02*
G54D12*
D03*
X6191Y4396D02*
G54D12*
D03*
X6191Y4896D02*
G54D12*
D03*
X6691Y4396D02*
G54D12*
D03*
X6691Y4896D02*
G54D12*
D03*
X7191Y4396D02*
G54D12*
D03*
X7191Y4896D02*
G54D12*
D03*
X7691Y4396D02*
G54D12*
D03*
X7691Y4896D02*
G54D12*
D03*
X5286Y5301D02*
G54D12*
D03*
X5286Y5015D02*
G54D12*
D03*
X5286Y4396D02*
G54D12*
D03*
G36*
X5572Y6354D02*
X5572Y6184D01*
X5252Y6184D01*
X5252Y6354D01*
X5572Y6354D01*
G37*
G36*
X5572Y5974D02*
X5572Y5804D01*
X5252Y5804D01*
X5252Y5974D01*
X5572Y5974D01*
G37*
G36*
X5631Y6787D02*
X5631Y6677D01*
X5521Y6677D01*
X5521Y6787D01*
X5631Y6787D01*
G37*
G36*
X5630Y6620D02*
X5630Y6510D01*
X5520Y6510D01*
X5520Y6620D01*
X5630Y6620D01*
G37*
G36*
X5938Y5648D02*
X5808Y5648D01*
X5808Y5778D01*
X5938Y5778D01*
X5938Y5648D01*
G37*
G36*
X5748Y5648D02*
X5618Y5648D01*
X5618Y5778D01*
X5748Y5778D01*
X5748Y5648D01*
G37*
G36*
X5843Y5426D02*
X5713Y5426D01*
X5713Y5556D01*
X5843Y5556D01*
X5843Y5426D01*
G37*
X5636Y5412D02*
G54D13*
D03*
X5636Y5492D02*
G54D13*
D03*
X4985Y8047D02*
G54D14*
D03*
X4985Y7547D02*
G54D14*
D03*
X7931Y8568D02*
G54D14*
D03*
X7931Y7028D02*
G54D14*
D03*
X4811Y6238D02*
G54D12*
D03*
X4811Y5738D02*
G54D12*
D03*
X4311Y6238D02*
G54D12*
D03*
X4311Y5738D02*
G54D12*
D03*
G36*
X7560Y6975D02*
X7700Y6975D01*
X7700Y6805D01*
X7560Y6805D01*
X7560Y6975D01*
G37*
G36*
X7360Y6975D02*
X7500Y6975D01*
X7500Y6805D01*
X7360Y6805D01*
X7360Y6975D01*
G37*
G36*
X7160Y6975D02*
X7300Y6975D01*
X7300Y6805D01*
X7160Y6805D01*
X7160Y6975D01*
G37*
G36*
X6960Y6975D02*
X7100Y6975D01*
X7100Y6805D01*
X6960Y6805D01*
X6960Y6975D01*
G37*
G36*
X6760Y6975D02*
X6900Y6975D01*
X6900Y6805D01*
X6760Y6805D01*
X6760Y6975D01*
G37*
G36*
X6560Y6975D02*
X6700Y6975D01*
X6700Y6805D01*
X6560Y6805D01*
X6560Y6975D01*
G37*
G36*
X6360Y6975D02*
X6500Y6975D01*
X6500Y6805D01*
X6360Y6805D01*
X6360Y6975D01*
G37*
G36*
X6160Y6975D02*
X6300Y6975D01*
X6300Y6805D01*
X6160Y6805D01*
X6160Y6975D01*
G37*
G36*
X7560Y8475D02*
X7700Y8475D01*
X7700Y8305D01*
X7560Y8305D01*
X7560Y8475D01*
G37*
G36*
X7360Y8475D02*
X7500Y8475D01*
X7500Y8305D01*
X7360Y8305D01*
X7360Y8475D01*
G37*
G36*
X7160Y8475D02*
X7300Y8475D01*
X7300Y8305D01*
X7160Y8305D01*
X7160Y8475D01*
G37*
G36*
X6960Y8475D02*
X7100Y8475D01*
X7100Y8305D01*
X6960Y8305D01*
X6960Y8475D01*
G37*
G36*
X6760Y8475D02*
X6900Y8475D01*
X6900Y8305D01*
X6760Y8305D01*
X6760Y8475D01*
G37*
G36*
X6560Y8475D02*
X6700Y8475D01*
X6700Y8305D01*
X6560Y8305D01*
X6560Y8475D01*
G37*
G36*
X6360Y8475D02*
X6500Y8475D01*
X6500Y8305D01*
X6360Y8305D01*
X6360Y8475D01*
G37*
G36*
X6160Y8475D02*
X6300Y8475D01*
X6300Y8305D01*
X6160Y8305D01*
X6160Y8475D01*
G37*
X6271Y7285D02*
G54D13*
D03*
X6350Y7285D02*
G54D13*
D03*
G36*
X6340Y5911D02*
X6170Y5911D01*
X6170Y6121D01*
X6340Y6121D01*
X6340Y5911D01*
G37*
G36*
X6110Y5910D02*
X5940Y5910D01*
X5940Y6120D01*
X6110Y6120D01*
X6110Y5910D01*
G37*
G36*
X5880Y5910D02*
X5710Y5910D01*
X5710Y6120D01*
X5880Y6120D01*
X5880Y5910D01*
G37*
G36*
X6244Y6487D02*
X5804Y6487D01*
X5804Y6717D01*
X6244Y6717D01*
X6244Y6487D01*
G37*
X5731Y6317D02*
G54D13*
D03*
G36*
X6124Y5882D02*
X6124Y5772D01*
X6014Y5772D01*
X6014Y5882D01*
X6124Y5882D01*
G37*
G36*
X6123Y5715D02*
X6123Y5605D01*
X6013Y5605D01*
X6013Y5715D01*
X6123Y5715D01*
G37*
X6017Y5888D02*
G54D13*
D03*
X6017Y6746D02*
G54D13*
D03*
G36*
X6012Y5501D02*
X6012Y5391D01*
X5902Y5391D01*
X5902Y5501D01*
X6012Y5501D01*
G37*
G36*
X6011Y5334D02*
X6011Y5224D01*
X5901Y5224D01*
X5901Y5334D01*
X6011Y5334D01*
G37*
G36*
X6044Y5200D02*
X6044Y5090D01*
X5934Y5090D01*
X5934Y5200D01*
X6044Y5200D01*
G37*
G36*
X6043Y5033D02*
X6043Y4923D01*
X5933Y4923D01*
X5933Y5033D01*
X6043Y5033D01*
G37*
X5826Y5301D02*
G54D13*
D03*
X5985Y5158D02*
G54D13*
D03*
X6064Y5444D02*
G54D13*
D03*
X7604Y8349D02*
G54D13*
D03*
X7604Y6936D02*
G54D13*
D03*
X7398Y8349D02*
G54D13*
D03*
X8017Y8285D02*
G54D14*
D03*
X8017Y8031D02*
G54D14*
D03*
X8017Y7777D02*
G54D14*
D03*
X8017Y7523D02*
G54D14*
D03*
G36*
X5774Y6787D02*
X5774Y6677D01*
X5664Y6677D01*
X5664Y6787D01*
X5774Y6787D01*
G37*
G36*
X5773Y6620D02*
X5773Y6510D01*
X5663Y6510D01*
X5663Y6620D01*
X5773Y6620D01*
G37*
X5572Y6888D02*
G54D13*
D03*
X7874Y7666D02*
G54D13*
D03*
G36*
X4575Y6601D02*
X4575Y6861D01*
X4945Y6861D01*
X4945Y6601D01*
X4575Y6601D01*
G37*
G36*
X4576Y7203D02*
X4576Y7463D01*
X4946Y7463D01*
X4946Y7203D01*
X4576Y7203D01*
G37*
X4620Y8063D02*
G54D14*
D03*
X4620Y7555D02*
G54D14*
D03*
X4207Y7127D02*
G54D12*
D03*
X4207Y7627D02*
G54D12*
D03*
X7033Y7095D02*
G54D13*
D03*
X7048Y6936D02*
G54D13*
D03*
X5715Y7063D02*
G54D13*
D03*
X7223Y8349D02*
G54D13*
D03*
G36*
X5897Y5786D02*
X5787Y5786D01*
X5787Y5896D01*
X5897Y5896D01*
X5897Y5786D01*
G37*
G36*
X5730Y5785D02*
X5620Y5785D01*
X5620Y5895D01*
X5730Y5895D01*
X5730Y5785D01*
G37*
G36*
X6044Y4898D02*
X6044Y4788D01*
X5934Y4788D01*
X5934Y4898D01*
X6044Y4898D01*
G37*
G36*
X6043Y4731D02*
X6043Y4621D01*
X5933Y4621D01*
X5933Y4731D01*
X6043Y4731D01*
G37*
G36*
X5539Y5450D02*
X5429Y5450D01*
X5429Y5560D01*
X5539Y5560D01*
X5539Y5450D01*
G37*
G36*
X5372Y5451D02*
X5262Y5451D01*
X5262Y5561D01*
X5372Y5561D01*
X5372Y5451D01*
G37*
X5985Y4809D02*
G54D13*
D03*
G36*
X6072Y4468D02*
X5962Y4468D01*
X5962Y4578D01*
X6072Y4578D01*
X6072Y4468D01*
G37*
G36*
X5905Y4467D02*
X5795Y4467D01*
X5795Y4577D01*
X5905Y4577D01*
X5905Y4467D01*
G37*
X5286Y4714D02*
G54D12*
D03*
G36*
X5933Y5200D02*
X5933Y5090D01*
X5823Y5090D01*
X5823Y5200D01*
X5933Y5200D01*
G37*
G36*
X5932Y5033D02*
X5932Y4923D01*
X5822Y4923D01*
X5822Y5033D01*
X5932Y5033D01*
G37*
G36*
X5933Y4898D02*
X5933Y4788D01*
X5823Y4788D01*
X5823Y4898D01*
X5933Y4898D01*
G37*
G36*
X5932Y4731D02*
X5932Y4621D01*
X5822Y4621D01*
X5822Y4731D01*
X5932Y4731D01*
G37*
X5890Y4809D02*
G54D13*
D03*
X5890Y5095D02*
G54D13*
D03*
X5921Y5587D02*
G54D13*
D03*
X5747Y5126D02*
G54D13*
D03*
X7033Y8349D02*
G54D13*
D03*
X5921Y7492D02*
G54D13*
D03*
X5921Y7984D02*
G54D13*
D03*
M02*
