%FSLAX32Y32*%
%MOMM*%
%LNLOETSTOP1*%
G71*
G01*
%ADD10C, 2.60*%
%ADD11C, 3.60*%
%ADD12C, 3.10*%
%ADD13C, 1.20*%
%ADD14C, 2.60*%
%ADD15C, 2.60*%
%ADD16C, 2.40*%
%LPD*%
X5409Y6454D02*
G54D10*
D03*
X5409Y5701D02*
G54D10*
D03*
X6922Y5698D02*
G54D11*
D03*
X6922Y6451D02*
G54D11*
D03*
X7424Y5698D02*
G54D11*
D03*
X7424Y6451D02*
G54D11*
D03*
X7926Y5698D02*
G54D11*
D03*
X7926Y6451D02*
G54D11*
D03*
X5691Y4396D02*
G54D12*
D03*
X5691Y4896D02*
G54D12*
D03*
X6191Y4396D02*
G54D12*
D03*
X6191Y4896D02*
G54D12*
D03*
X6691Y4396D02*
G54D12*
D03*
X6691Y4896D02*
G54D12*
D03*
X7191Y4396D02*
G54D12*
D03*
X7191Y4896D02*
G54D12*
D03*
X7691Y4396D02*
G54D12*
D03*
X7691Y4896D02*
G54D12*
D03*
X5286Y5301D02*
G54D12*
D03*
X5286Y5015D02*
G54D12*
D03*
X5286Y4396D02*
G54D12*
D03*
X5636Y5412D02*
G54D13*
D03*
X5636Y5492D02*
G54D13*
D03*
X4985Y8047D02*
G54D14*
D03*
X4985Y7547D02*
G54D14*
D03*
X7931Y8568D02*
G54D14*
D03*
X7931Y7028D02*
G54D14*
D03*
X4811Y6238D02*
G54D15*
D03*
X4811Y5738D02*
G54D15*
D03*
X4311Y6238D02*
G54D15*
D03*
X4311Y5738D02*
G54D15*
D03*
X6271Y7285D02*
G54D13*
D03*
X6350Y7285D02*
G54D13*
D03*
X5731Y6317D02*
G54D13*
D03*
X6017Y5888D02*
G54D13*
D03*
X6017Y6746D02*
G54D13*
D03*
X5826Y5301D02*
G54D13*
D03*
X5985Y5158D02*
G54D13*
D03*
X6064Y5444D02*
G54D13*
D03*
X7398Y8349D02*
G54D13*
D03*
X8017Y8285D02*
G54D14*
D03*
X8017Y8031D02*
G54D14*
D03*
X8017Y7777D02*
G54D14*
D03*
X8017Y7523D02*
G54D14*
D03*
X5572Y6888D02*
G54D13*
D03*
X7874Y7666D02*
G54D13*
D03*
X4620Y8063D02*
G54D14*
D03*
X4620Y7555D02*
G54D14*
D03*
X4207Y7127D02*
G54D15*
D03*
X4207Y7627D02*
G54D15*
D03*
X7033Y7095D02*
G54D13*
D03*
X7033Y6920D02*
G54D13*
D03*
X5715Y7063D02*
G54D13*
D03*
X7223Y8349D02*
G54D13*
D03*
X5985Y4809D02*
G54D13*
D03*
X5286Y4714D02*
G54D12*
D03*
X5890Y4809D02*
G54D13*
D03*
X5890Y5095D02*
G54D13*
D03*
X5921Y5587D02*
G54D13*
D03*
X5747Y5126D02*
G54D13*
D03*
X7033Y8349D02*
G54D13*
D03*
X5921Y7492D02*
G54D13*
D03*
X5921Y7984D02*
G54D13*
D03*
X4402Y4915D02*
G54D16*
D03*
X4107Y5290D02*
G54D16*
D03*
X4890Y4729D02*
G54D16*
D03*
X4890Y5237D02*
G54D16*
D03*
X6556Y6063D02*
G54D13*
D03*
X6826Y6904D02*
G54D13*
D03*
X7430Y6920D02*
G54D13*
D03*
X7604Y8349D02*
G54D13*
D03*
X7239Y6920D02*
G54D13*
D03*
X7366Y7190D02*
G54D13*
D03*
X7461Y7190D02*
G54D13*
D03*
X7366Y7412D02*
G54D13*
D03*
X7461Y7412D02*
G54D13*
D03*
X7064Y7539D02*
G54D13*
D03*
X7176Y7635D02*
G54D13*
D03*
X6255Y6206D02*
G54D13*
D03*
X6255Y6269D02*
G54D13*
D03*
M02*
