%FSLAX32Y32*%
%MOMM*%
%LNBESTUECKUNG1*%
G71*
G01*
%ADD10C, 0.33*%
%ADD11C, 0.16*%
%ADD12C, 0.24*%
%ADD13C, 0.17*%
%ADD14C, 0.13*%
%ADD15C, 0.22*%
%ADD16C, 0.25*%
%ADD17C, 0.11*%
%LPD*%
G54D10*
X6285Y4198D02*
X6125Y4198D01*
G54D10*
X5904Y4195D02*
X5744Y4195D01*
G54D10*
X5824Y4262D02*
X5824Y4128D01*
G54D11*
X7915Y7755D02*
X7908Y7766D01*
X7895Y7772D01*
X7881Y7772D01*
X7868Y7766D01*
X7861Y7755D01*
X7861Y7744D01*
X7868Y7733D01*
X7881Y7727D01*
X7868Y7722D01*
X7861Y7710D01*
X7861Y7699D01*
X7868Y7688D01*
X7881Y7683D01*
X7895Y7683D01*
X7908Y7688D01*
X7915Y7699D01*
G54D11*
X7831Y7683D02*
X7831Y7683D01*
G54D11*
X7800Y7755D02*
X7793Y7766D01*
X7780Y7772D01*
X7766Y7772D01*
X7753Y7766D01*
X7746Y7755D01*
X7746Y7744D01*
X7753Y7733D01*
X7766Y7727D01*
X7753Y7722D01*
X7746Y7710D01*
X7746Y7699D01*
X7753Y7688D01*
X7766Y7683D01*
X7780Y7683D01*
X7793Y7688D01*
X7800Y7699D01*
G54D11*
X7890Y8397D02*
X7944Y8397D01*
G54D11*
X7924Y8133D02*
X7861Y8196D01*
G54D11*
X7880Y8215D02*
X7842Y8177D01*
G54D11*
X7821Y8155D02*
X7836Y8045D01*
G54D11*
X7884Y8092D02*
X7774Y8108D01*
G54D11*
X7889Y7981D02*
X7869Y7970D01*
X7862Y7959D01*
X7862Y7937D01*
G54D11*
X7915Y7937D02*
X7915Y8026D01*
X7882Y8026D01*
X7869Y8020D01*
X7862Y8009D01*
X7862Y7998D01*
X7869Y7987D01*
X7882Y7981D01*
X7915Y7981D01*
G54D11*
X7831Y8026D02*
X7765Y7937D01*
G54D11*
X7831Y7937D02*
X7765Y8026D01*
G54D12*
X5251Y7226D02*
X5251Y7360D01*
X5181Y7360D01*
G54D12*
X5251Y7293D02*
X5181Y7293D01*
G54D12*
X5134Y7310D02*
X5084Y7360D01*
X5084Y7226D01*
G54D13*
X5327Y6571D02*
X5327Y6705D01*
X5277Y6705D01*
X5257Y6696D01*
X5247Y6680D01*
X5247Y6596D01*
X5257Y6580D01*
X5277Y6571D01*
X5327Y6571D01*
G54D13*
X5210Y6655D02*
X5160Y6705D01*
X5160Y6571D01*
G54D14*
X6167Y5114D02*
X6143Y5101D01*
X6135Y5088D01*
X6135Y5061D01*
G54D14*
X6199Y5061D02*
X6199Y5168D01*
X6159Y5168D01*
X6143Y5161D01*
X6135Y5148D01*
X6135Y5134D01*
X6143Y5121D01*
X6159Y5114D01*
X6199Y5114D01*
G54D14*
X6106Y5128D02*
X6066Y5168D01*
X6066Y5061D01*
G54D14*
X6156Y5337D02*
X6132Y5324D01*
X6124Y5310D01*
X6124Y5284D01*
G54D14*
X6188Y5284D02*
X6188Y5390D01*
X6148Y5390D01*
X6132Y5384D01*
X6124Y5370D01*
X6124Y5357D01*
X6132Y5344D01*
X6148Y5337D01*
X6188Y5337D01*
G54D14*
X6031Y5284D02*
X6095Y5284D01*
X6095Y5290D01*
X6087Y5304D01*
X6039Y5344D01*
X6031Y5357D01*
X6031Y5370D01*
X6039Y5384D01*
X6055Y5390D01*
X6071Y5390D01*
X6087Y5384D01*
X6095Y5370D01*
G54D14*
X5635Y6046D02*
X5648Y6022D01*
X5662Y6014D01*
X5688Y6014D01*
G54D14*
X5688Y6078D02*
X5582Y6078D01*
X5582Y6038D01*
X5588Y6022D01*
X5602Y6014D01*
X5615Y6014D01*
X5628Y6022D01*
X5635Y6038D01*
X5635Y6078D01*
G54D14*
X5602Y5985D02*
X5588Y5977D01*
X5582Y5961D01*
X5582Y5945D01*
X5588Y5929D01*
X5602Y5921D01*
X5615Y5921D01*
X5628Y5929D01*
X5635Y5945D01*
X5642Y5929D01*
X5655Y5921D01*
X5668Y5921D01*
X5682Y5929D01*
X5688Y5945D01*
X5688Y5961D01*
X5682Y5977D01*
X5668Y5985D01*
G54D14*
X6211Y5716D02*
X6219Y5703D01*
X6235Y5696D01*
X6251Y5696D01*
X6267Y5703D01*
X6275Y5716D01*
X6275Y5783D01*
X6267Y5796D01*
X6251Y5803D01*
X6235Y5803D01*
X6219Y5796D01*
X6211Y5783D01*
G54D14*
X6182Y5763D02*
X6142Y5803D01*
X6142Y5696D01*
G54D14*
X6180Y5490D02*
X6180Y5597D01*
G54D14*
X6212Y5597D02*
X6148Y5597D01*
G54D14*
X6118Y5557D02*
X6078Y5597D01*
X6078Y5490D01*
G54D14*
X5810Y6996D02*
X5823Y6972D01*
X5836Y6964D01*
X5863Y6964D01*
G54D14*
X5863Y7028D02*
X5756Y7028D01*
X5756Y6988D01*
X5763Y6972D01*
X5776Y6964D01*
X5790Y6964D01*
X5803Y6972D01*
X5810Y6988D01*
X5810Y7028D01*
G54D14*
X5863Y6887D02*
X5756Y6887D01*
X5823Y6935D01*
X5836Y6935D01*
X5836Y6871D01*
G54D14*
X5937Y6996D02*
X5950Y6972D01*
X5963Y6964D01*
X5990Y6964D01*
G54D14*
X5990Y7028D02*
X5883Y7028D01*
X5883Y6988D01*
X5890Y6972D01*
X5903Y6964D01*
X5917Y6964D01*
X5930Y6972D01*
X5937Y6988D01*
X5937Y7028D01*
G54D14*
X5883Y6871D02*
X5883Y6935D01*
X5930Y6935D01*
X5930Y6927D01*
X5923Y6911D01*
X5923Y6895D01*
X5930Y6879D01*
X5943Y6871D01*
X5970Y6871D01*
X5983Y6879D01*
X5990Y6895D01*
X5990Y6911D01*
X5983Y6927D01*
X5970Y6935D01*
G54D15*
X4253Y6756D02*
X4253Y6934D01*
X4147Y6756D01*
X4147Y6934D01*
G54D15*
X4940Y5600D02*
X4940Y5422D01*
X4846Y5422D01*
G54D14*
X6489Y5966D02*
X6489Y6073D01*
G54D14*
X6521Y6073D02*
X6457Y6073D01*
G54D14*
X6364Y5966D02*
X6428Y5966D01*
X6428Y5973D01*
X6420Y5986D01*
X6372Y6026D01*
X6364Y6039D01*
X6364Y6053D01*
X6372Y6066D01*
X6388Y6073D01*
X6404Y6073D01*
X6420Y6066D01*
X6428Y6053D01*
G54D14*
X6994Y7585D02*
X7050Y7585D01*
X7050Y7692D01*
X6994Y7692D01*
G54D14*
X7050Y7639D02*
X6994Y7639D01*
G54D14*
X6965Y7605D02*
X6957Y7592D01*
X6941Y7585D01*
X6925Y7585D01*
X6909Y7592D01*
X6901Y7605D01*
X6901Y7619D01*
X6909Y7632D01*
X6925Y7639D01*
X6941Y7639D01*
X6957Y7645D01*
X6965Y7659D01*
X6965Y7672D01*
X6957Y7685D01*
X6941Y7692D01*
X6925Y7692D01*
X6909Y7685D01*
X6901Y7672D01*
G54D14*
X6872Y7585D02*
X6872Y7692D01*
X6832Y7692D01*
X6816Y7685D01*
X6808Y7672D01*
X6808Y7659D01*
X6816Y7645D01*
X6832Y7639D01*
X6872Y7639D01*
G54D14*
X6739Y7639D02*
X6755Y7639D01*
X6771Y7645D01*
X6779Y7659D01*
X6779Y7672D01*
X6771Y7685D01*
X6755Y7692D01*
X6739Y7692D01*
X6723Y7685D01*
X6715Y7672D01*
X6715Y7659D01*
X6723Y7645D01*
X6739Y7639D01*
X6723Y7632D01*
X6715Y7619D01*
X6715Y7605D01*
X6723Y7592D01*
X6739Y7585D01*
X6755Y7585D01*
X6771Y7592D01*
X6779Y7605D01*
X6779Y7619D01*
X6771Y7632D01*
X6755Y7639D01*
G54D14*
X6622Y7585D02*
X6686Y7585D01*
X6686Y7592D01*
X6678Y7605D01*
X6630Y7645D01*
X6622Y7659D01*
X6622Y7672D01*
X6630Y7685D01*
X6646Y7692D01*
X6662Y7692D01*
X6678Y7685D01*
X6686Y7672D01*
G54D14*
X6529Y7672D02*
X6537Y7685D01*
X6553Y7692D01*
X6569Y7692D01*
X6585Y7685D01*
X6593Y7672D01*
X6593Y7639D01*
X6593Y7632D01*
X6569Y7645D01*
X6553Y7645D01*
X6537Y7639D01*
X6529Y7625D01*
X6529Y7605D01*
X6537Y7592D01*
X6553Y7585D01*
X6569Y7585D01*
X6585Y7592D01*
X6593Y7605D01*
X6593Y7639D01*
G54D14*
X6436Y7672D02*
X6444Y7685D01*
X6460Y7692D01*
X6476Y7692D01*
X6492Y7685D01*
X6500Y7672D01*
X6500Y7639D01*
X6500Y7632D01*
X6476Y7645D01*
X6460Y7645D01*
X6444Y7639D01*
X6436Y7625D01*
X6436Y7605D01*
X6444Y7592D01*
X6460Y7585D01*
X6476Y7585D01*
X6492Y7592D01*
X6500Y7605D01*
X6500Y7639D01*
G54D14*
X6376Y7652D02*
X6336Y7692D01*
X6336Y7585D01*
G54D14*
X6243Y7585D02*
X6307Y7585D01*
X6307Y7592D01*
X6299Y7605D01*
X6251Y7645D01*
X6243Y7659D01*
X6243Y7672D01*
X6251Y7685D01*
X6267Y7692D01*
X6283Y7692D01*
X6299Y7685D01*
X6307Y7672D01*
G54D14*
X6158Y7585D02*
X6214Y7585D01*
X6214Y7692D01*
X6158Y7692D01*
G54D14*
X6214Y7639D02*
X6158Y7639D01*
G54D14*
X5632Y5289D02*
X5608Y5276D01*
X5600Y5263D01*
X5600Y5236D01*
G54D14*
X5664Y5236D02*
X5664Y5343D01*
X5624Y5343D01*
X5608Y5336D01*
X5600Y5323D01*
X5600Y5309D01*
X5608Y5296D01*
X5624Y5289D01*
X5664Y5289D01*
G54D14*
X5507Y5323D02*
X5515Y5336D01*
X5531Y5343D01*
X5547Y5343D01*
X5563Y5336D01*
X5571Y5323D01*
X5571Y5289D01*
X5571Y5283D01*
X5547Y5296D01*
X5531Y5296D01*
X5515Y5289D01*
X5507Y5276D01*
X5507Y5256D01*
X5515Y5243D01*
X5531Y5236D01*
X5547Y5236D01*
X5563Y5243D01*
X5571Y5256D01*
X5571Y5289D01*
G54D14*
X6188Y4654D02*
X6164Y4641D01*
X6156Y4628D01*
X6156Y4601D01*
G54D14*
X6220Y4601D02*
X6220Y4708D01*
X6180Y4708D01*
X6164Y4701D01*
X6156Y4688D01*
X6156Y4674D01*
X6164Y4661D01*
X6180Y4654D01*
X6220Y4654D01*
G54D14*
X6127Y4708D02*
X6063Y4708D01*
X6071Y4694D01*
X6087Y4674D01*
X6103Y4648D01*
X6111Y4628D01*
X6111Y4601D01*
G54D14*
X5438Y4973D02*
X5438Y4907D01*
X5446Y4893D01*
X5462Y4887D01*
X5478Y4887D01*
X5494Y4893D01*
X5502Y4907D01*
X5502Y4973D01*
X5494Y4987D01*
X5478Y4993D01*
X5462Y4993D01*
X5446Y4987D01*
X5438Y4973D01*
G54D14*
X5303Y5636D02*
X5263Y5676D01*
X5263Y5569D01*
G54D14*
X5234Y5656D02*
X5226Y5669D01*
X5210Y5676D01*
X5194Y5676D01*
X5178Y5669D01*
X5170Y5656D01*
X5170Y5643D01*
X5178Y5629D01*
X5194Y5623D01*
X5178Y5616D01*
X5170Y5603D01*
X5170Y5589D01*
X5178Y5576D01*
X5194Y5569D01*
X5210Y5569D01*
X5226Y5576D01*
X5234Y5589D01*
G54D14*
X6853Y8083D02*
X6821Y8083D01*
X6821Y8050D01*
X6829Y8037D01*
X6845Y8030D01*
X6861Y8030D01*
X6877Y8037D01*
X6885Y8050D01*
X6885Y8117D01*
X6877Y8130D01*
X6861Y8137D01*
X6845Y8137D01*
X6829Y8130D01*
X6821Y8117D01*
G54D14*
X6792Y8030D02*
X6792Y8137D01*
X6752Y8137D01*
X6736Y8130D01*
X6728Y8117D01*
X6728Y8103D01*
X6736Y8090D01*
X6752Y8083D01*
X6792Y8083D01*
G54D14*
X6699Y8030D02*
X6699Y8137D01*
G54D14*
X6606Y8117D02*
X6606Y8050D01*
X6614Y8037D01*
X6630Y8030D01*
X6646Y8030D01*
X6662Y8037D01*
X6670Y8050D01*
X6670Y8117D01*
X6662Y8130D01*
X6646Y8137D01*
X6630Y8137D01*
X6614Y8130D01*
X6606Y8117D01*
G54D14*
X6577Y8097D02*
X6537Y8137D01*
X6537Y8030D01*
G54D14*
X6444Y8030D02*
X6508Y8030D01*
X6508Y8037D01*
X6500Y8050D01*
X6452Y8090D01*
X6444Y8103D01*
X6444Y8117D01*
X6452Y8130D01*
X6468Y8137D01*
X6484Y8137D01*
X6500Y8130D01*
X6508Y8117D01*
G54D14*
X6352Y8083D02*
X6328Y8070D01*
X6320Y8057D01*
X6320Y8030D01*
G54D14*
X6384Y8030D02*
X6384Y8137D01*
X6344Y8137D01*
X6328Y8130D01*
X6320Y8117D01*
X6320Y8103D01*
X6328Y8090D01*
X6344Y8083D01*
X6384Y8083D01*
G54D14*
X6243Y8037D02*
X6256Y8030D01*
X6272Y8030D01*
X6288Y8037D01*
X6291Y8050D01*
X6291Y8073D01*
X6283Y8086D01*
X6267Y8090D01*
X6251Y8086D01*
X6243Y8077D01*
X6243Y8063D01*
X6291Y8063D01*
G54D14*
X6214Y8030D02*
X6214Y8137D01*
G54D14*
X6185Y8083D02*
X6169Y8090D01*
X6150Y8090D01*
X6137Y8077D01*
X6137Y8030D01*
G54D14*
X6137Y8050D02*
X6145Y8063D01*
X6161Y8066D01*
X6177Y8063D01*
X6185Y8050D01*
X6182Y8037D01*
X6169Y8030D01*
X6161Y8030D01*
X6158Y8030D01*
X6145Y8037D01*
X6137Y8050D01*
G54D14*
X6108Y8030D02*
X6108Y8090D01*
G54D14*
X6108Y8110D02*
X6108Y8110D01*
G54D14*
X6079Y8037D02*
X6063Y8030D01*
X6047Y8030D01*
X6031Y8037D01*
X6031Y8050D01*
X6039Y8057D01*
X6071Y8063D01*
X6079Y8070D01*
X6079Y8083D01*
X6063Y8090D01*
X6047Y8090D01*
X6031Y8083D01*
G54D14*
X4937Y8327D02*
X4897Y8220D01*
X4857Y8327D01*
G54D14*
X4828Y8220D02*
X4828Y8327D01*
X4788Y8327D01*
X4772Y8320D01*
X4764Y8307D01*
X4764Y8240D01*
X4772Y8227D01*
X4788Y8220D01*
X4828Y8220D01*
G54D14*
X4703Y8274D02*
X4679Y8260D01*
X4671Y8247D01*
X4671Y8220D01*
G54D14*
X4735Y8220D02*
X4735Y8327D01*
X4695Y8327D01*
X4679Y8320D01*
X4671Y8307D01*
X4671Y8294D01*
X4679Y8280D01*
X4695Y8274D01*
X4735Y8274D01*
G54D14*
X4642Y8287D02*
X4602Y8327D01*
X4602Y8220D01*
G54D14*
X5953Y4351D02*
X5961Y4337D01*
X5977Y4331D01*
X5993Y4331D01*
X6009Y4337D01*
X6017Y4351D01*
X6017Y4417D01*
X6009Y4431D01*
X5993Y4437D01*
X5977Y4437D01*
X5961Y4431D01*
X5953Y4417D01*
G54D14*
X5860Y4331D02*
X5924Y4331D01*
X5924Y4337D01*
X5916Y4351D01*
X5868Y4391D01*
X5860Y4404D01*
X5860Y4417D01*
X5868Y4431D01*
X5884Y4437D01*
X5900Y4437D01*
X5916Y4431D01*
X5924Y4417D01*
G54D14*
X5569Y4715D02*
X5529Y4755D01*
X5529Y4648D01*
G54D14*
X5452Y4648D02*
X5452Y4755D01*
X5500Y4688D01*
X5500Y4675D01*
X5436Y4675D01*
G54D14*
X5760Y4654D02*
X5736Y4641D01*
X5728Y4628D01*
X5728Y4601D01*
G54D14*
X5792Y4601D02*
X5792Y4708D01*
X5752Y4708D01*
X5736Y4701D01*
X5728Y4688D01*
X5728Y4674D01*
X5736Y4661D01*
X5752Y4654D01*
X5792Y4654D01*
G54D14*
X5659Y4654D02*
X5675Y4654D01*
X5691Y4661D01*
X5699Y4674D01*
X5699Y4688D01*
X5691Y4701D01*
X5675Y4708D01*
X5659Y4708D01*
X5643Y4701D01*
X5635Y4688D01*
X5635Y4674D01*
X5643Y4661D01*
X5659Y4654D01*
X5643Y4648D01*
X5635Y4634D01*
X5635Y4621D01*
X5643Y4608D01*
X5659Y4601D01*
X5675Y4601D01*
X5691Y4608D01*
X5699Y4621D01*
X5699Y4634D01*
X5691Y4648D01*
X5675Y4654D01*
G54D14*
X5632Y5099D02*
X5608Y5085D01*
X5600Y5072D01*
X5600Y5045D01*
G54D14*
X5664Y5045D02*
X5664Y5152D01*
X5624Y5152D01*
X5608Y5145D01*
X5600Y5132D01*
X5600Y5119D01*
X5608Y5105D01*
X5624Y5099D01*
X5664Y5099D01*
G54D14*
X5571Y5065D02*
X5563Y5052D01*
X5547Y5045D01*
X5531Y5045D01*
X5515Y5052D01*
X5507Y5065D01*
X5507Y5099D01*
X5507Y5105D01*
X5531Y5092D01*
X5547Y5092D01*
X5563Y5099D01*
X5571Y5112D01*
X5571Y5132D01*
X5563Y5145D01*
X5547Y5152D01*
X5531Y5152D01*
X5515Y5145D01*
X5507Y5132D01*
X5507Y5099D01*
G54D15*
X5496Y5437D02*
X5571Y5362D01*
G54D15*
X5702Y5050D02*
X5809Y5050D01*
G54D14*
X6817Y8260D02*
X6793Y8246D01*
X6785Y8233D01*
X6785Y8206D01*
G54D14*
X6849Y8206D02*
X6849Y8313D01*
X6809Y8313D01*
X6793Y8306D01*
X6785Y8293D01*
X6785Y8280D01*
X6793Y8266D01*
X6809Y8260D01*
X6849Y8260D01*
G54D14*
X6756Y8273D02*
X6716Y8313D01*
X6716Y8206D01*
G54D14*
X6623Y8293D02*
X6623Y8226D01*
X6631Y8213D01*
X6647Y8206D01*
X6663Y8206D01*
X6679Y8213D01*
X6687Y8226D01*
X6687Y8293D01*
X6679Y8306D01*
X6663Y8313D01*
X6647Y8313D01*
X6631Y8306D01*
X6623Y8293D01*
G54D14*
X7749Y8242D02*
X7725Y8229D01*
X7717Y8215D01*
X7717Y8189D01*
G54D14*
X7781Y8189D02*
X7781Y8295D01*
X7741Y8295D01*
X7725Y8289D01*
X7717Y8275D01*
X7717Y8262D01*
X7725Y8249D01*
X7741Y8242D01*
X7781Y8242D01*
G54D14*
X7688Y8255D02*
X7648Y8295D01*
X7648Y8189D01*
G54D14*
X7571Y8189D02*
X7571Y8295D01*
X7619Y8229D01*
X7619Y8215D01*
X7555Y8215D01*
G54D14*
X6317Y8258D02*
X6341Y8244D01*
X6349Y8231D01*
X6349Y8204D01*
G54D14*
X6285Y8204D02*
X6285Y8311D01*
X6325Y8311D01*
X6341Y8304D01*
X6349Y8291D01*
X6349Y8278D01*
X6341Y8264D01*
X6325Y8258D01*
X6285Y8258D01*
G54D14*
X6378Y8271D02*
X6418Y8311D01*
X6418Y8204D01*
G54D14*
X6447Y8271D02*
X6487Y8311D01*
X6487Y8204D01*
G54D14*
X7400Y8242D02*
X7376Y8229D01*
X7368Y8215D01*
X7368Y8189D01*
G54D14*
X7432Y8189D02*
X7432Y8295D01*
X7392Y8295D01*
X7376Y8289D01*
X7368Y8275D01*
X7368Y8262D01*
X7376Y8249D01*
X7392Y8242D01*
X7432Y8242D01*
G54D14*
X7339Y8255D02*
X7299Y8295D01*
X7299Y8189D01*
G54D14*
X7206Y8295D02*
X7270Y8295D01*
X7270Y8249D01*
X7262Y8249D01*
X7246Y8255D01*
X7230Y8255D01*
X7214Y8249D01*
X7206Y8235D01*
X7206Y8209D01*
X7214Y8195D01*
X7230Y8189D01*
X7246Y8189D01*
X7262Y8195D01*
X7270Y8209D01*
G54D14*
X6538Y6628D02*
X6552Y6604D01*
X6565Y6596D01*
X6592Y6596D01*
G54D14*
X6592Y6660D02*
X6485Y6660D01*
X6485Y6620D01*
X6492Y6604D01*
X6505Y6596D01*
X6518Y6596D01*
X6532Y6604D01*
X6538Y6620D01*
X6538Y6660D01*
G54D14*
X6525Y6567D02*
X6485Y6527D01*
X6592Y6527D01*
G54D14*
X6505Y6434D02*
X6492Y6442D01*
X6485Y6458D01*
X6485Y6474D01*
X6492Y6490D01*
X6505Y6498D01*
X6538Y6498D01*
X6545Y6498D01*
X6532Y6474D01*
X6532Y6458D01*
X6538Y6442D01*
X6552Y6434D01*
X6572Y6434D01*
X6585Y6442D01*
X6592Y6458D01*
X6592Y6474D01*
X6585Y6490D01*
X6572Y6498D01*
X6538Y6498D01*
G54D14*
X6429Y6527D02*
X6442Y6535D01*
X6449Y6551D01*
X6449Y6567D01*
X6442Y6583D01*
X6429Y6591D01*
X6362Y6591D01*
X6349Y6583D01*
X6342Y6567D01*
X6342Y6551D01*
X6349Y6535D01*
X6362Y6527D01*
G54D14*
X6362Y6498D02*
X6349Y6490D01*
X6342Y6474D01*
X6342Y6458D01*
X6349Y6442D01*
X6362Y6434D01*
X6375Y6434D01*
X6389Y6442D01*
X6395Y6458D01*
X6402Y6442D01*
X6415Y6434D01*
X6429Y6434D01*
X6442Y6442D01*
X6449Y6458D01*
X6449Y6474D01*
X6442Y6490D01*
X6429Y6498D01*
G54D14*
X6397Y4594D02*
X6290Y4594D01*
X6290Y4634D01*
X6297Y4650D01*
X6310Y4658D01*
X6377Y4658D01*
X6390Y4650D01*
X6397Y4634D01*
X6397Y4594D01*
G54D14*
X6397Y4751D02*
X6397Y4687D01*
X6390Y4687D01*
X6377Y4695D01*
X6337Y4743D01*
X6324Y4751D01*
X6310Y4751D01*
X6297Y4743D01*
X6290Y4727D01*
X6290Y4711D01*
X6297Y4695D01*
X6310Y4687D01*
G54D14*
X5983Y5569D02*
X6047Y5569D01*
G54D14*
X5254Y6490D02*
X5254Y6426D01*
G54D14*
X4717Y4908D02*
X4693Y4895D01*
X4685Y4882D01*
X4685Y4855D01*
G54D14*
X4749Y4855D02*
X4749Y4962D01*
X4709Y4962D01*
X4693Y4955D01*
X4685Y4942D01*
X4685Y4928D01*
X4693Y4915D01*
X4709Y4908D01*
X4749Y4908D01*
G54D14*
X4656Y4922D02*
X4616Y4962D01*
X4616Y4855D01*
G54D14*
X4587Y4962D02*
X4523Y4962D01*
X4531Y4948D01*
X4547Y4928D01*
X4563Y4902D01*
X4571Y4882D01*
X4571Y4855D01*
G54D14*
X5108Y4299D02*
X5108Y4406D01*
X5068Y4406D01*
X5052Y4399D01*
X5044Y4386D01*
X5044Y4319D01*
X5052Y4306D01*
X5068Y4299D01*
X5108Y4299D01*
G54D14*
X5015Y4386D02*
X5007Y4399D01*
X4991Y4406D01*
X4975Y4406D01*
X4959Y4399D01*
X4951Y4386D01*
X4951Y4373D01*
X4959Y4359D01*
X4975Y4353D01*
X4959Y4346D01*
X4951Y4333D01*
X4951Y4319D01*
X4959Y4306D01*
X4975Y4299D01*
X4991Y4299D01*
X5007Y4306D01*
X5015Y4319D01*
G54D14*
X4409Y5161D02*
X4417Y5147D01*
X4433Y5141D01*
X4449Y5141D01*
X4465Y5147D01*
X4473Y5161D01*
X4473Y5227D01*
X4465Y5241D01*
X4449Y5247D01*
X4433Y5247D01*
X4417Y5241D01*
X4409Y5227D01*
G54D14*
X4332Y5141D02*
X4332Y5247D01*
X4380Y5181D01*
X4380Y5167D01*
X4316Y5167D01*
G54D14*
X4917Y4970D02*
X4925Y4957D01*
X4941Y4950D01*
X4957Y4950D01*
X4973Y4957D01*
X4981Y4970D01*
X4981Y5037D01*
X4973Y5050D01*
X4957Y5057D01*
X4941Y5057D01*
X4925Y5050D01*
X4917Y5037D01*
G54D14*
X4824Y5057D02*
X4888Y5057D01*
X4888Y5010D01*
X4880Y5010D01*
X4864Y5017D01*
X4848Y5017D01*
X4832Y5010D01*
X4824Y4997D01*
X4824Y4970D01*
X4832Y4957D01*
X4848Y4950D01*
X4864Y4950D01*
X4880Y4957D01*
X4888Y4970D01*
G54D14*
X5476Y4615D02*
X5412Y4615D01*
G54D14*
X5206Y5472D02*
X5206Y5536D01*
G54D10*
X5364Y4198D02*
X5204Y4198D01*
G54D14*
X7233Y4145D02*
X7241Y4131D01*
X7257Y4125D01*
X7273Y4125D01*
X7289Y4131D01*
X7297Y4145D01*
X7297Y4211D01*
X7289Y4225D01*
X7273Y4231D01*
X7257Y4231D01*
X7241Y4225D01*
X7233Y4211D01*
G54D14*
X7140Y4211D02*
X7140Y4145D01*
X7148Y4131D01*
X7164Y4125D01*
X7180Y4125D01*
X7196Y4131D01*
X7204Y4145D01*
X7204Y4211D01*
X7196Y4225D01*
X7180Y4231D01*
X7164Y4231D01*
X7148Y4225D01*
X7140Y4211D01*
G54D14*
X7111Y4125D02*
X7111Y4231D01*
X7071Y4165D01*
X7031Y4231D01*
X7031Y4125D01*
G54D14*
X7775Y4125D02*
X7775Y4231D01*
X7711Y4125D01*
X7711Y4231D01*
G54D14*
X7618Y4211D02*
X7618Y4145D01*
X7626Y4131D01*
X7642Y4125D01*
X7658Y4125D01*
X7674Y4131D01*
X7682Y4145D01*
X7682Y4211D01*
X7674Y4225D01*
X7658Y4231D01*
X7642Y4231D01*
X7626Y4225D01*
X7618Y4211D01*
G54D14*
X6807Y4125D02*
X6807Y4231D01*
X6743Y4125D01*
X6743Y4231D01*
G54D14*
X6650Y4145D02*
X6658Y4131D01*
X6674Y4125D01*
X6690Y4125D01*
X6706Y4131D01*
X6714Y4145D01*
X6714Y4211D01*
X6706Y4225D01*
X6690Y4231D01*
X6674Y4231D01*
X6658Y4225D01*
X6650Y4211D01*
G54D16*
X6376Y4818D02*
X6376Y5031D01*
G54D14*
X6581Y5810D02*
X6581Y5916D01*
X6541Y5916D01*
X6525Y5910D01*
X6517Y5896D01*
X6517Y5830D01*
X6525Y5816D01*
X6541Y5810D01*
X6581Y5810D01*
G54D14*
X6440Y5810D02*
X6440Y5916D01*
X6488Y5850D01*
X6488Y5836D01*
X6424Y5836D01*
G54D14*
X6300Y5696D02*
X6364Y5696D01*
G54D14*
X6300Y5267D02*
X6364Y5267D01*
G54D14*
X5380Y6077D02*
X5444Y6077D01*
G54D15*
X4393Y5600D02*
X4393Y5422D01*
X4300Y5422D01*
G54D15*
X4251Y5422D02*
X4251Y5522D01*
G54D15*
X4251Y5556D02*
X4251Y5556D01*
G54D15*
X4202Y5422D02*
X4202Y5522D01*
G54D15*
X4202Y5500D02*
X4189Y5516D01*
X4162Y5522D01*
X4136Y5516D01*
X4122Y5500D01*
X4122Y5422D01*
G54D17*
X7918Y7204D02*
X7911Y7193D01*
X7898Y7188D01*
X7884Y7188D01*
X7871Y7193D01*
X7864Y7204D01*
X7864Y7215D01*
X7871Y7226D01*
X7884Y7232D01*
X7898Y7232D01*
X7911Y7238D01*
X7918Y7249D01*
X7918Y7260D01*
X7911Y7271D01*
X7898Y7276D01*
X7884Y7276D01*
X7871Y7271D01*
X7864Y7260D01*
G54D17*
X7841Y7188D02*
X7841Y7276D01*
X7807Y7276D01*
X7794Y7271D01*
X7787Y7260D01*
X7787Y7204D01*
X7794Y7193D01*
X7807Y7188D01*
X7841Y7188D01*
G54D17*
X7764Y7188D02*
X7730Y7276D01*
X7697Y7188D01*
G54D17*
X7750Y7221D02*
X7710Y7221D01*
G54D17*
X7914Y7458D02*
X7907Y7447D01*
X7894Y7442D01*
X7880Y7442D01*
X7867Y7447D01*
X7860Y7458D01*
X7860Y7469D01*
X7867Y7480D01*
X7880Y7486D01*
X7894Y7486D01*
X7907Y7492D01*
X7914Y7503D01*
X7914Y7514D01*
X7907Y7525D01*
X7894Y7530D01*
X7880Y7530D01*
X7867Y7525D01*
X7860Y7514D01*
G54D17*
X7783Y7458D02*
X7790Y7447D01*
X7803Y7442D01*
X7817Y7442D01*
X7830Y7447D01*
X7837Y7458D01*
X7837Y7514D01*
X7830Y7525D01*
X7817Y7530D01*
X7803Y7530D01*
X7790Y7525D01*
X7783Y7514D01*
G54D17*
X7760Y7530D02*
X7760Y7442D01*
X7713Y7442D01*
M02*
