%FSLAX32Y32*%
%MOMM*%
%LNBESTUECKUNG1*%
G71*
G01*
%ADD10C, 0.16*%
%ADD11C, 0.24*%
%ADD12C, 0.17*%
%ADD13C, 0.13*%
%ADD14C, 0.22*%
%LPD*%
G54D10*
X7652Y7533D02*
X7659Y7544D01*
X7672Y7549D01*
X7685Y7549D01*
X7699Y7544D01*
X7705Y7533D01*
X7705Y7521D01*
X7699Y7510D01*
X7685Y7505D01*
X7699Y7499D01*
X7705Y7488D01*
X7705Y7477D01*
X7699Y7466D01*
X7685Y7460D01*
X7672Y7460D01*
X7659Y7466D01*
X7652Y7477D01*
G54D10*
X7736Y7460D02*
X7736Y7460D01*
G54D10*
X7767Y7533D02*
X7774Y7544D01*
X7787Y7549D01*
X7800Y7549D01*
X7814Y7544D01*
X7820Y7533D01*
X7820Y7521D01*
X7814Y7510D01*
X7800Y7505D01*
X7814Y7499D01*
X7820Y7488D01*
X7820Y7477D01*
X7814Y7466D01*
X7800Y7460D01*
X7787Y7460D01*
X7774Y7466D01*
X7767Y7477D01*
G54D10*
X7747Y8302D02*
X7801Y8302D01*
G54D10*
X7726Y8000D02*
X7726Y8089D01*
G54D10*
X7700Y8089D02*
X7753Y8089D01*
G54D10*
X7784Y8089D02*
X7850Y8000D01*
G54D10*
X7784Y8000D02*
X7850Y8089D01*
G54D10*
X7695Y7775D02*
X7715Y7764D01*
X7721Y7752D01*
X7721Y7730D01*
G54D10*
X7668Y7730D02*
X7668Y7819D01*
X7701Y7819D01*
X7715Y7814D01*
X7721Y7802D01*
X7721Y7791D01*
X7715Y7780D01*
X7701Y7775D01*
X7668Y7775D01*
G54D10*
X7752Y7819D02*
X7819Y7730D01*
G54D10*
X7752Y7730D02*
X7819Y7819D01*
G54D11*
X5188Y7226D02*
X5188Y7360D01*
X5118Y7360D01*
G54D11*
X5188Y7293D02*
X5118Y7293D01*
G54D11*
X5071Y7310D02*
X5021Y7360D01*
X5021Y7226D01*
G54D12*
X5327Y6571D02*
X5327Y6705D01*
X5277Y6705D01*
X5257Y6696D01*
X5247Y6680D01*
X5247Y6596D01*
X5257Y6580D01*
X5277Y6571D01*
X5327Y6571D01*
G54D12*
X5210Y6655D02*
X5160Y6705D01*
X5160Y6571D01*
G54D13*
X6214Y5130D02*
X6190Y5117D01*
X6182Y5103D01*
X6182Y5077D01*
G54D13*
X6246Y5077D02*
X6246Y5183D01*
X6206Y5183D01*
X6190Y5177D01*
X6182Y5163D01*
X6182Y5150D01*
X6190Y5137D01*
X6206Y5130D01*
X6246Y5130D01*
G54D13*
X6153Y5143D02*
X6113Y5183D01*
X6113Y5077D01*
G54D13*
X6219Y5337D02*
X6195Y5324D01*
X6187Y5310D01*
X6187Y5284D01*
G54D13*
X6251Y5284D02*
X6251Y5390D01*
X6211Y5390D01*
X6195Y5384D01*
X6187Y5370D01*
X6187Y5357D01*
X6195Y5344D01*
X6211Y5337D01*
X6251Y5337D01*
G54D13*
X6094Y5284D02*
X6158Y5284D01*
X6158Y5290D01*
X6150Y5304D01*
X6102Y5344D01*
X6094Y5357D01*
X6094Y5370D01*
X6102Y5384D01*
X6118Y5390D01*
X6134Y5390D01*
X6150Y5384D01*
X6158Y5370D01*
G54D13*
X5619Y6109D02*
X5632Y6085D01*
X5646Y6077D01*
X5672Y6077D01*
G54D13*
X5672Y6141D02*
X5566Y6141D01*
X5566Y6101D01*
X5572Y6085D01*
X5586Y6077D01*
X5599Y6077D01*
X5612Y6085D01*
X5619Y6101D01*
X5619Y6141D01*
G54D13*
X5586Y6048D02*
X5572Y6040D01*
X5566Y6024D01*
X5566Y6008D01*
X5572Y5992D01*
X5586Y5984D01*
X5599Y5984D01*
X5612Y5992D01*
X5619Y6008D01*
X5626Y5992D01*
X5639Y5984D01*
X5652Y5984D01*
X5666Y5992D01*
X5672Y6008D01*
X5672Y6024D01*
X5666Y6040D01*
X5652Y6048D01*
G54D13*
X6227Y5716D02*
X6235Y5703D01*
X6251Y5696D01*
X6267Y5696D01*
X6283Y5703D01*
X6291Y5716D01*
X6291Y5783D01*
X6283Y5796D01*
X6267Y5803D01*
X6251Y5803D01*
X6235Y5796D01*
X6227Y5783D01*
G54D13*
X6198Y5763D02*
X6158Y5803D01*
X6158Y5696D01*
G54D13*
X6180Y5490D02*
X6180Y5597D01*
G54D13*
X6212Y5597D02*
X6148Y5597D01*
G54D13*
X6118Y5557D02*
X6078Y5597D01*
X6078Y5490D01*
G54D13*
X5810Y6996D02*
X5823Y6972D01*
X5836Y6964D01*
X5863Y6964D01*
G54D13*
X5863Y7028D02*
X5756Y7028D01*
X5756Y6988D01*
X5763Y6972D01*
X5776Y6964D01*
X5790Y6964D01*
X5803Y6972D01*
X5810Y6988D01*
X5810Y7028D01*
G54D13*
X5863Y6887D02*
X5756Y6887D01*
X5823Y6935D01*
X5836Y6935D01*
X5836Y6871D01*
G54D13*
X5937Y6996D02*
X5950Y6972D01*
X5963Y6964D01*
X5990Y6964D01*
G54D13*
X5990Y7028D02*
X5883Y7028D01*
X5883Y6988D01*
X5890Y6972D01*
X5903Y6964D01*
X5917Y6964D01*
X5930Y6972D01*
X5937Y6988D01*
X5937Y7028D01*
G54D13*
X5883Y6871D02*
X5883Y6935D01*
X5930Y6935D01*
X5930Y6927D01*
X5923Y6911D01*
X5923Y6895D01*
X5930Y6879D01*
X5943Y6871D01*
X5970Y6871D01*
X5983Y6879D01*
X5990Y6895D01*
X5990Y6911D01*
X5983Y6927D01*
X5970Y6935D01*
G54D13*
X6442Y6347D02*
X6442Y6454D01*
G54D13*
X6474Y6454D02*
X6410Y6454D01*
G54D13*
X6317Y6347D02*
X6381Y6347D01*
X6381Y6354D01*
X6373Y6367D01*
X6325Y6407D01*
X6317Y6420D01*
X6317Y6434D01*
X6325Y6447D01*
X6341Y6454D01*
X6357Y6454D01*
X6373Y6447D01*
X6381Y6434D01*
G54D13*
X7026Y7538D02*
X7082Y7538D01*
X7082Y7644D01*
X7026Y7644D01*
G54D13*
X7082Y7591D02*
X7026Y7591D01*
G54D13*
X6997Y7558D02*
X6989Y7544D01*
X6973Y7538D01*
X6957Y7538D01*
X6941Y7544D01*
X6933Y7558D01*
X6933Y7571D01*
X6941Y7584D01*
X6957Y7591D01*
X6973Y7591D01*
X6989Y7598D01*
X6997Y7611D01*
X6997Y7624D01*
X6989Y7638D01*
X6973Y7644D01*
X6957Y7644D01*
X6941Y7638D01*
X6933Y7624D01*
G54D13*
X6904Y7538D02*
X6904Y7644D01*
X6864Y7644D01*
X6848Y7638D01*
X6840Y7624D01*
X6840Y7611D01*
X6848Y7598D01*
X6864Y7591D01*
X6904Y7591D01*
G54D13*
X6771Y7591D02*
X6787Y7591D01*
X6803Y7598D01*
X6811Y7611D01*
X6811Y7624D01*
X6803Y7638D01*
X6787Y7644D01*
X6771Y7644D01*
X6755Y7638D01*
X6747Y7624D01*
X6747Y7611D01*
X6755Y7598D01*
X6771Y7591D01*
X6755Y7584D01*
X6747Y7571D01*
X6747Y7558D01*
X6755Y7544D01*
X6771Y7538D01*
X6787Y7538D01*
X6803Y7544D01*
X6811Y7558D01*
X6811Y7571D01*
X6803Y7584D01*
X6787Y7591D01*
G54D13*
X6654Y7538D02*
X6718Y7538D01*
X6718Y7544D01*
X6710Y7558D01*
X6662Y7598D01*
X6654Y7611D01*
X6654Y7624D01*
X6662Y7638D01*
X6678Y7644D01*
X6694Y7644D01*
X6710Y7638D01*
X6718Y7624D01*
G54D13*
X6561Y7624D02*
X6569Y7638D01*
X6585Y7644D01*
X6601Y7644D01*
X6617Y7638D01*
X6625Y7624D01*
X6625Y7591D01*
X6625Y7584D01*
X6601Y7598D01*
X6585Y7598D01*
X6569Y7591D01*
X6561Y7578D01*
X6561Y7558D01*
X6569Y7544D01*
X6585Y7538D01*
X6601Y7538D01*
X6617Y7544D01*
X6625Y7558D01*
X6625Y7591D01*
G54D13*
X6468Y7624D02*
X6476Y7638D01*
X6492Y7644D01*
X6508Y7644D01*
X6524Y7638D01*
X6532Y7624D01*
X6532Y7591D01*
X6532Y7584D01*
X6508Y7598D01*
X6492Y7598D01*
X6476Y7591D01*
X6468Y7578D01*
X6468Y7558D01*
X6476Y7544D01*
X6492Y7538D01*
X6508Y7538D01*
X6524Y7544D01*
X6532Y7558D01*
X6532Y7591D01*
G54D13*
X6408Y7604D02*
X6368Y7644D01*
X6368Y7538D01*
G54D13*
X6275Y7538D02*
X6339Y7538D01*
X6339Y7544D01*
X6331Y7558D01*
X6283Y7598D01*
X6275Y7611D01*
X6275Y7624D01*
X6283Y7638D01*
X6299Y7644D01*
X6315Y7644D01*
X6331Y7638D01*
X6339Y7624D01*
G54D13*
X6190Y7538D02*
X6246Y7538D01*
X6246Y7644D01*
X6190Y7644D01*
G54D13*
X6246Y7591D02*
X6190Y7591D01*
G54D13*
X5632Y5289D02*
X5608Y5276D01*
X5600Y5263D01*
X5600Y5236D01*
G54D13*
X5664Y5236D02*
X5664Y5343D01*
X5624Y5343D01*
X5608Y5336D01*
X5600Y5323D01*
X5600Y5309D01*
X5608Y5296D01*
X5624Y5289D01*
X5664Y5289D01*
G54D13*
X5507Y5323D02*
X5515Y5336D01*
X5531Y5343D01*
X5547Y5343D01*
X5563Y5336D01*
X5571Y5323D01*
X5571Y5289D01*
X5571Y5283D01*
X5547Y5296D01*
X5531Y5296D01*
X5515Y5289D01*
X5507Y5276D01*
X5507Y5256D01*
X5515Y5243D01*
X5531Y5236D01*
X5547Y5236D01*
X5563Y5243D01*
X5571Y5256D01*
X5571Y5289D01*
G54D13*
X6188Y4654D02*
X6164Y4641D01*
X6156Y4628D01*
X6156Y4601D01*
G54D13*
X6220Y4601D02*
X6220Y4708D01*
X6180Y4708D01*
X6164Y4701D01*
X6156Y4688D01*
X6156Y4674D01*
X6164Y4661D01*
X6180Y4654D01*
X6220Y4654D01*
G54D13*
X6127Y4708D02*
X6063Y4708D01*
X6071Y4694D01*
X6087Y4674D01*
X6103Y4648D01*
X6111Y4628D01*
X6111Y4601D01*
G54D13*
X4974Y5019D02*
X4942Y5019D01*
X4942Y4986D01*
X4950Y4973D01*
X4966Y4966D01*
X4982Y4966D01*
X4998Y4973D01*
X5006Y4986D01*
X5006Y5053D01*
X4998Y5066D01*
X4982Y5073D01*
X4966Y5073D01*
X4950Y5066D01*
X4942Y5053D01*
G54D13*
X4913Y4966D02*
X4913Y5073D01*
X4873Y5073D01*
X4857Y5066D01*
X4849Y5053D01*
X4849Y5039D01*
X4857Y5026D01*
X4873Y5019D01*
X4913Y5019D01*
G54D13*
X4820Y4966D02*
X4820Y5073D01*
G54D13*
X4727Y5053D02*
X4727Y4986D01*
X4735Y4973D01*
X4751Y4966D01*
X4767Y4966D01*
X4783Y4973D01*
X4791Y4986D01*
X4791Y5053D01*
X4783Y5066D01*
X4767Y5073D01*
X4751Y5073D01*
X4735Y5066D01*
X4727Y5053D01*
G54D13*
X4634Y5053D02*
X4634Y4986D01*
X4642Y4973D01*
X4658Y4966D01*
X4674Y4966D01*
X4690Y4973D01*
X4698Y4986D01*
X4698Y5053D01*
X4690Y5066D01*
X4674Y5073D01*
X4658Y5073D01*
X4642Y5066D01*
X4634Y5053D01*
G54D13*
X4980Y5289D02*
X4948Y5289D01*
X4948Y5256D01*
X4956Y5243D01*
X4972Y5236D01*
X4988Y5236D01*
X5004Y5243D01*
X5012Y5256D01*
X5012Y5323D01*
X5004Y5336D01*
X4988Y5343D01*
X4972Y5343D01*
X4956Y5336D01*
X4948Y5323D01*
G54D13*
X4919Y5236D02*
X4919Y5343D01*
X4879Y5343D01*
X4863Y5336D01*
X4855Y5323D01*
X4855Y5309D01*
X4863Y5296D01*
X4879Y5289D01*
X4919Y5289D01*
G54D13*
X4826Y5236D02*
X4826Y5343D01*
G54D13*
X4733Y5323D02*
X4733Y5256D01*
X4741Y5243D01*
X4757Y5236D01*
X4773Y5236D01*
X4789Y5243D01*
X4797Y5256D01*
X4797Y5323D01*
X4789Y5336D01*
X4773Y5343D01*
X4757Y5343D01*
X4741Y5336D01*
X4733Y5323D01*
G54D13*
X4704Y5303D02*
X4664Y5343D01*
X4664Y5236D01*
G54D13*
X4635Y5323D02*
X4627Y5336D01*
X4611Y5343D01*
X4595Y5343D01*
X4579Y5336D01*
X4571Y5323D01*
X4571Y5309D01*
X4579Y5296D01*
X4595Y5289D01*
X4579Y5283D01*
X4571Y5269D01*
X4571Y5256D01*
X4579Y5243D01*
X4595Y5236D01*
X4611Y5236D01*
X4627Y5243D01*
X4635Y5256D01*
G54D14*
X5020Y4368D02*
X5127Y4368D01*
G54D13*
X6853Y8083D02*
X6821Y8083D01*
X6821Y8050D01*
X6829Y8037D01*
X6845Y8030D01*
X6861Y8030D01*
X6877Y8037D01*
X6885Y8050D01*
X6885Y8117D01*
X6877Y8130D01*
X6861Y8137D01*
X6845Y8137D01*
X6829Y8130D01*
X6821Y8117D01*
G54D13*
X6792Y8030D02*
X6792Y8137D01*
X6752Y8137D01*
X6736Y8130D01*
X6728Y8117D01*
X6728Y8103D01*
X6736Y8090D01*
X6752Y8083D01*
X6792Y8083D01*
G54D13*
X6699Y8030D02*
X6699Y8137D01*
G54D13*
X6606Y8117D02*
X6606Y8050D01*
X6614Y8037D01*
X6630Y8030D01*
X6646Y8030D01*
X6662Y8037D01*
X6670Y8050D01*
X6670Y8117D01*
X6662Y8130D01*
X6646Y8137D01*
X6630Y8137D01*
X6614Y8130D01*
X6606Y8117D01*
G54D13*
X6577Y8097D02*
X6537Y8137D01*
X6537Y8030D01*
G54D13*
X6444Y8030D02*
X6508Y8030D01*
X6508Y8037D01*
X6500Y8050D01*
X6452Y8090D01*
X6444Y8103D01*
X6444Y8117D01*
X6452Y8130D01*
X6468Y8137D01*
X6484Y8137D01*
X6500Y8130D01*
X6508Y8117D01*
G54D13*
X6352Y8083D02*
X6328Y8070D01*
X6320Y8057D01*
X6320Y8030D01*
G54D13*
X6384Y8030D02*
X6384Y8137D01*
X6344Y8137D01*
X6328Y8130D01*
X6320Y8117D01*
X6320Y8103D01*
X6328Y8090D01*
X6344Y8083D01*
X6384Y8083D01*
G54D13*
X6243Y8037D02*
X6256Y8030D01*
X6272Y8030D01*
X6288Y8037D01*
X6291Y8050D01*
X6291Y8073D01*
X6283Y8086D01*
X6267Y8090D01*
X6251Y8086D01*
X6243Y8077D01*
X6243Y8063D01*
X6291Y8063D01*
G54D13*
X6214Y8030D02*
X6214Y8137D01*
G54D13*
X6185Y8083D02*
X6169Y8090D01*
X6150Y8090D01*
X6137Y8077D01*
X6137Y8030D01*
G54D13*
X6137Y8050D02*
X6145Y8063D01*
X6161Y8066D01*
X6177Y8063D01*
X6185Y8050D01*
X6182Y8037D01*
X6169Y8030D01*
X6161Y8030D01*
X6158Y8030D01*
X6145Y8037D01*
X6137Y8050D01*
G54D13*
X6108Y8030D02*
X6108Y8090D01*
G54D13*
X6108Y8110D02*
X6108Y8110D01*
G54D13*
X6079Y8037D02*
X6063Y8030D01*
X6047Y8030D01*
X6031Y8037D01*
X6031Y8050D01*
X6039Y8057D01*
X6071Y8063D01*
X6079Y8070D01*
X6079Y8083D01*
X6063Y8090D01*
X6047Y8090D01*
X6031Y8083D01*
G54D13*
X4937Y8327D02*
X4897Y8220D01*
X4857Y8327D01*
G54D13*
X4828Y8220D02*
X4828Y8327D01*
X4788Y8327D01*
X4772Y8320D01*
X4764Y8307D01*
X4764Y8240D01*
X4772Y8227D01*
X4788Y8220D01*
X4828Y8220D01*
G54D13*
X4703Y8274D02*
X4679Y8260D01*
X4671Y8247D01*
X4671Y8220D01*
G54D13*
X4735Y8220D02*
X4735Y8327D01*
X4695Y8327D01*
X4679Y8320D01*
X4671Y8307D01*
X4671Y8294D01*
X4679Y8280D01*
X4695Y8274D01*
X4735Y8274D01*
G54D13*
X4642Y8287D02*
X4602Y8327D01*
X4602Y8220D01*
G54D13*
X5953Y4351D02*
X5961Y4337D01*
X5977Y4331D01*
X5993Y4331D01*
X6009Y4337D01*
X6017Y4351D01*
X6017Y4417D01*
X6009Y4431D01*
X5993Y4437D01*
X5977Y4437D01*
X5961Y4431D01*
X5953Y4417D01*
G54D13*
X5860Y4331D02*
X5924Y4331D01*
X5924Y4337D01*
X5916Y4351D01*
X5868Y4391D01*
X5860Y4404D01*
X5860Y4417D01*
X5868Y4431D01*
X5884Y4437D01*
X5900Y4437D01*
X5916Y4431D01*
X5924Y4417D01*
G54D13*
X4977Y4765D02*
X4945Y4765D01*
X4945Y4732D01*
X4953Y4719D01*
X4969Y4712D01*
X4985Y4712D01*
X5001Y4719D01*
X5009Y4732D01*
X5009Y4799D01*
X5001Y4812D01*
X4985Y4819D01*
X4969Y4819D01*
X4953Y4812D01*
X4945Y4799D01*
G54D13*
X4916Y4712D02*
X4916Y4819D01*
X4876Y4819D01*
X4860Y4812D01*
X4852Y4799D01*
X4852Y4785D01*
X4860Y4772D01*
X4876Y4765D01*
X4916Y4765D01*
G54D13*
X4823Y4712D02*
X4823Y4819D01*
G54D13*
X4730Y4799D02*
X4730Y4732D01*
X4738Y4719D01*
X4754Y4712D01*
X4770Y4712D01*
X4786Y4719D01*
X4794Y4732D01*
X4794Y4799D01*
X4786Y4812D01*
X4770Y4819D01*
X4754Y4819D01*
X4738Y4812D01*
X4730Y4799D01*
G54D13*
X4701Y4779D02*
X4661Y4819D01*
X4661Y4712D01*
G54D13*
X4584Y4712D02*
X4584Y4819D01*
X4632Y4752D01*
X4632Y4739D01*
X4568Y4739D01*
G54D13*
X5760Y4654D02*
X5736Y4641D01*
X5728Y4628D01*
X5728Y4601D01*
G54D13*
X5792Y4601D02*
X5792Y4708D01*
X5752Y4708D01*
X5736Y4701D01*
X5728Y4688D01*
X5728Y4674D01*
X5736Y4661D01*
X5752Y4654D01*
X5792Y4654D01*
G54D13*
X5659Y4654D02*
X5675Y4654D01*
X5691Y4661D01*
X5699Y4674D01*
X5699Y4688D01*
X5691Y4701D01*
X5675Y4708D01*
X5659Y4708D01*
X5643Y4701D01*
X5635Y4688D01*
X5635Y4674D01*
X5643Y4661D01*
X5659Y4654D01*
X5643Y4648D01*
X5635Y4634D01*
X5635Y4621D01*
X5643Y4608D01*
X5659Y4601D01*
X5675Y4601D01*
X5691Y4608D01*
X5699Y4621D01*
X5699Y4634D01*
X5691Y4648D01*
X5675Y4654D01*
G54D13*
X5632Y5099D02*
X5608Y5085D01*
X5600Y5072D01*
X5600Y5045D01*
G54D13*
X5664Y5045D02*
X5664Y5152D01*
X5624Y5152D01*
X5608Y5145D01*
X5600Y5132D01*
X5600Y5119D01*
X5608Y5105D01*
X5624Y5099D01*
X5664Y5099D01*
G54D13*
X5571Y5065D02*
X5563Y5052D01*
X5547Y5045D01*
X5531Y5045D01*
X5515Y5052D01*
X5507Y5065D01*
X5507Y5099D01*
X5507Y5105D01*
X5531Y5092D01*
X5547Y5092D01*
X5563Y5099D01*
X5571Y5112D01*
X5571Y5132D01*
X5563Y5145D01*
X5547Y5152D01*
X5531Y5152D01*
X5515Y5145D01*
X5507Y5132D01*
X5507Y5099D01*
G54D14*
X5496Y5437D02*
X5571Y5362D01*
G54D14*
X5702Y5050D02*
X5809Y5050D01*
M02*
