%FSLAX32Y32*%
%MOMM*%
%LNKUPFERSEITE2*%
G71*
G01*
%ADD10C, 2.00*%
%ADD11C, 3.00*%
%ADD12C, 1.00*%
%ADD13C, 0.60*%
%ADD14C, 0.30*%
%ADD15C, 0.50*%
%ADD16C, 2.00*%
%ADD17C, 0.40*%
%LPD*%
X6874Y6085D02*
G54D10*
D03*
X6874Y6585D02*
G54D10*
D03*
X3927Y5564D02*
G54D10*
D03*
X3927Y7104D02*
G54D10*
D03*
G36*
X5888Y5146D02*
X6088Y5146D01*
X6088Y4771D01*
X5888Y4771D01*
X5888Y5146D01*
G37*
G36*
X6728Y5145D02*
X6928Y5145D01*
X6928Y4770D01*
X6728Y4770D01*
X6728Y5145D01*
G37*
X7239Y6666D02*
G54D10*
D03*
X7239Y6158D02*
G54D10*
D03*
G36*
X6253Y5616D02*
X6373Y5616D01*
X6373Y5466D01*
X6253Y5466D01*
X6253Y5616D01*
G37*
G36*
X6053Y5616D02*
X6173Y5616D01*
X6173Y5466D01*
X6053Y5466D01*
X6053Y5616D01*
G37*
G36*
X5853Y5616D02*
X5973Y5616D01*
X5973Y5466D01*
X5853Y5466D01*
X5853Y5616D01*
G37*
G36*
X5653Y5616D02*
X5773Y5616D01*
X5773Y5466D01*
X5653Y5466D01*
X5653Y5616D01*
G37*
G36*
X5453Y5616D02*
X5573Y5616D01*
X5573Y5466D01*
X5453Y5466D01*
X5453Y5616D01*
G37*
G36*
X5253Y5616D02*
X5373Y5616D01*
X5373Y5466D01*
X5253Y5466D01*
X5253Y5616D01*
G37*
G36*
X5053Y5616D02*
X5173Y5616D01*
X5173Y5466D01*
X5053Y5466D01*
X5053Y5616D01*
G37*
G36*
X4853Y5616D02*
X4973Y5616D01*
X4973Y5466D01*
X4853Y5466D01*
X4853Y5616D01*
G37*
G36*
X6253Y7179D02*
X6373Y7179D01*
X6373Y7029D01*
X6253Y7029D01*
X6253Y7179D01*
G37*
G36*
X6053Y7179D02*
X6173Y7179D01*
X6173Y7029D01*
X6053Y7029D01*
X6053Y7179D01*
G37*
G36*
X5853Y7179D02*
X5973Y7179D01*
X5973Y7029D01*
X5853Y7029D01*
X5853Y7179D01*
G37*
G36*
X5653Y7179D02*
X5773Y7179D01*
X5773Y7029D01*
X5653Y7029D01*
X5653Y7179D01*
G37*
G36*
X5453Y7179D02*
X5573Y7179D01*
X5573Y7029D01*
X5453Y7029D01*
X5453Y7179D01*
G37*
G36*
X5253Y7179D02*
X5373Y7179D01*
X5373Y7029D01*
X5253Y7029D01*
X5253Y7179D01*
G37*
G36*
X5053Y7179D02*
X5173Y7179D01*
X5173Y7029D01*
X5053Y7029D01*
X5053Y7179D01*
G37*
G36*
X4853Y7179D02*
X4973Y7179D01*
X4973Y7029D01*
X4853Y7029D01*
X4853Y7179D01*
G37*
X7334Y6888D02*
G54D11*
D03*
G54D12*
X7334Y6873D02*
X7334Y6603D01*
X6842Y6603D01*
X6382Y5865D02*
G54D13*
D03*
G36*
X6487Y7226D02*
X6397Y7226D01*
X6397Y7316D01*
X6487Y7316D01*
X6487Y7226D01*
G37*
G36*
X6320Y7225D02*
X6230Y7225D01*
X6230Y7315D01*
X6320Y7315D01*
X6320Y7225D01*
G37*
G36*
X4884Y7226D02*
X4794Y7226D01*
X4794Y7316D01*
X4884Y7316D01*
X4884Y7226D01*
G37*
G36*
X4717Y7225D02*
X4627Y7225D01*
X4627Y7315D01*
X4717Y7315D01*
X4717Y7225D01*
G37*
G36*
X5836Y7226D02*
X5746Y7226D01*
X5746Y7316D01*
X5836Y7316D01*
X5836Y7226D01*
G37*
G36*
X5669Y7225D02*
X5579Y7225D01*
X5579Y7315D01*
X5669Y7315D01*
X5669Y7225D01*
G37*
G36*
X5550Y7226D02*
X5460Y7226D01*
X5460Y7316D01*
X5550Y7316D01*
X5550Y7226D01*
G37*
G36*
X5383Y7225D02*
X5293Y7225D01*
X5293Y7315D01*
X5383Y7315D01*
X5383Y7225D01*
G37*
G36*
X5233Y7226D02*
X5143Y7226D01*
X5143Y7316D01*
X5233Y7316D01*
X5233Y7226D01*
G37*
G36*
X5066Y7225D02*
X4976Y7225D01*
X4976Y7315D01*
X5066Y7315D01*
X5066Y7225D01*
G37*
G54D14*
X5509Y7270D02*
X5509Y7349D01*
X5794Y7349D01*
X5794Y7285D01*
X5794Y7349D01*
X6080Y7349D01*
X6080Y7349D01*
X6080Y7349D01*
X6366Y7349D01*
X6366Y7127D01*
G54D15*
X5334Y7270D02*
X5334Y7127D01*
G54D14*
X5524Y7349D02*
X5191Y7349D01*
X5191Y7285D01*
G54D14*
X5016Y7270D02*
X4921Y7270D01*
X4921Y7127D01*
G54D14*
X5620Y7270D02*
X5620Y6015D01*
X5921Y5714D01*
X5921Y5571D01*
X5493Y5746D02*
G54D13*
D03*
G54D14*
X5493Y5761D02*
X5493Y7095D01*
X6302Y7047D02*
G54D13*
D03*
X6461Y7222D02*
G54D13*
D03*
X3794Y6840D02*
G54D16*
D03*
X3794Y6586D02*
G54D16*
D03*
X3794Y6332D02*
G54D16*
D03*
X3794Y6078D02*
G54D16*
D03*
X3794Y5824D02*
G54D16*
D03*
X3794Y5570D02*
G54D16*
D03*
G54D14*
X4905Y7095D02*
X4905Y6587D01*
X3842Y6587D01*
G54D14*
X5715Y5555D02*
X5715Y5714D01*
X5556Y5872D01*
X5556Y6825D01*
G54D14*
X4572Y6825D02*
X3810Y6825D01*
X4588Y6825D02*
G54D13*
D03*
X5556Y6825D02*
G54D13*
D03*
G54D14*
X4905Y5555D02*
X4905Y6079D01*
X4588Y6079D01*
X4334Y5825D01*
X3794Y5825D01*
X3778Y5809D01*
G54D14*
X3810Y6063D02*
X4334Y6063D01*
X4413Y6142D01*
X5112Y6142D01*
X5112Y5571D01*
X5128Y5555D01*
G54D14*
X5223Y7349D02*
X4842Y7349D01*
X4842Y7285D01*
G54D14*
X4667Y7270D02*
X4667Y6904D01*
X4588Y6825D01*
X6906Y7222D02*
G54D16*
D03*
X6652Y7222D02*
G54D16*
D03*
X6207Y5968D02*
G54D13*
D03*
G54D14*
X6112Y5523D02*
X6112Y5761D01*
X6223Y5872D01*
X6223Y5968D01*
G54D14*
X5302Y5555D02*
X5302Y6158D01*
G54D14*
X5509Y5571D02*
X5509Y5587D01*
X5398Y5698D01*
X5398Y6079D01*
X5302Y6158D02*
G54D13*
D03*
X5398Y6079D02*
G54D13*
D03*
X6128Y6079D02*
G54D13*
D03*
X6088Y6698D02*
G54D13*
D03*
G54D14*
X6906Y7222D02*
X6858Y7111D01*
X6794Y7063D01*
X6763Y7063D01*
X6318Y6619D01*
X6318Y6126D01*
X6271Y6079D01*
X6128Y6079D01*
G54D14*
X6088Y6698D02*
X6223Y6698D01*
X6683Y7158D01*
G36*
X4540Y7329D02*
X4540Y7179D01*
X4190Y7179D01*
X4190Y7329D01*
X4540Y7329D01*
G37*
X6128Y7031D02*
G54D13*
D03*
X3794Y7095D02*
G54D16*
D03*
X4461Y7206D02*
G54D13*
D03*
X6223Y7270D02*
G54D13*
D03*
G54D17*
X3937Y5587D02*
X3937Y5730D01*
X4397Y5730D01*
X4651Y5984D01*
X4651Y5984D02*
G54D13*
D03*
G36*
X4627Y5276D02*
X4777Y5276D01*
X4777Y5086D01*
X4627Y5086D01*
X4627Y5276D01*
G37*
G36*
X4881Y5276D02*
X5031Y5276D01*
X5031Y5086D01*
X4881Y5086D01*
X4881Y5276D01*
G37*
G36*
X5135Y5276D02*
X5285Y5276D01*
X5285Y5086D01*
X5135Y5086D01*
X5135Y5276D01*
G37*
G36*
X5389Y5276D02*
X5539Y5276D01*
X5539Y5086D01*
X5389Y5086D01*
X5389Y5276D01*
G37*
G36*
X4627Y4443D02*
X4777Y4443D01*
X4777Y4253D01*
X4627Y4253D01*
X4627Y4443D01*
G37*
G36*
X5135Y4443D02*
X5285Y4443D01*
X5285Y4253D01*
X5135Y4253D01*
X5135Y4443D01*
G37*
G36*
X5389Y4443D02*
X5539Y4443D01*
X5539Y4253D01*
X5389Y4253D01*
X5389Y4443D01*
G37*
G36*
X3579Y5276D02*
X3729Y5276D01*
X3729Y5086D01*
X3579Y5086D01*
X3579Y5276D01*
G37*
G36*
X3833Y5276D02*
X3983Y5276D01*
X3983Y5086D01*
X3833Y5086D01*
X3833Y5276D01*
G37*
G36*
X4087Y5276D02*
X4237Y5276D01*
X4237Y5086D01*
X4087Y5086D01*
X4087Y5276D01*
G37*
G36*
X4341Y5276D02*
X4491Y5276D01*
X4491Y5086D01*
X4341Y5086D01*
X4341Y5276D01*
G37*
G36*
X3579Y4443D02*
X3729Y4443D01*
X3729Y4253D01*
X3579Y4253D01*
X3579Y4443D01*
G37*
G36*
X4087Y4443D02*
X4237Y4443D01*
X4237Y4253D01*
X4087Y4253D01*
X4087Y4443D01*
G37*
G36*
X4341Y4443D02*
X4491Y4443D01*
X4491Y4253D01*
X4341Y4253D01*
X4341Y4443D01*
G37*
G36*
X5880Y4630D02*
X6080Y4630D01*
X6080Y4255D01*
X5880Y4255D01*
X5880Y4630D01*
G37*
G36*
X6720Y4629D02*
X6920Y4629D01*
X6920Y4254D01*
X6720Y4254D01*
X6720Y4629D01*
G37*
G36*
X6729Y5630D02*
X6929Y5630D01*
X6929Y5255D01*
X6729Y5255D01*
X6729Y5630D01*
G37*
G36*
X7570Y5629D02*
X7770Y5629D01*
X7770Y5254D01*
X7570Y5254D01*
X7570Y5629D01*
G37*
G54D12*
X6826Y4348D02*
X6826Y5388D01*
G54D12*
X4167Y4396D02*
X4167Y4658D01*
X5707Y4658D01*
X5945Y4420D01*
G54D12*
X5207Y4380D02*
X5207Y4650D01*
X7279Y4730D02*
G54D13*
D03*
X7279Y4682D02*
G54D13*
D03*
X7279Y4634D02*
G54D13*
D03*
X7279Y4587D02*
G54D13*
D03*
X7239Y4706D02*
G54D13*
D03*
X7239Y4658D02*
G54D13*
D03*
X7239Y4602D02*
G54D13*
D03*
X3977Y3888D02*
G54D11*
D03*
X4577Y3888D02*
G54D11*
D03*
X5177Y3888D02*
G54D11*
D03*
X5777Y3888D02*
G54D11*
D03*
X6377Y3888D02*
G54D11*
D03*
X6993Y3872D02*
G54D11*
D03*
G54D12*
X3643Y4333D02*
X3643Y4150D01*
X3929Y3864D01*
G54D12*
X4715Y4325D02*
X4770Y4325D01*
X4893Y4122D01*
X5064Y3928D01*
X3651Y5166D02*
G54D13*
D03*
X4707Y5150D02*
G54D13*
D03*
X6013Y4782D02*
G54D13*
D03*
X5966Y4782D02*
G54D13*
D03*
X5918Y4782D02*
G54D13*
D03*
X5870Y4782D02*
G54D13*
D03*
X5989Y4822D02*
G54D13*
D03*
X5942Y4822D02*
G54D13*
D03*
X5886Y4822D02*
G54D13*
D03*
G54D17*
X6326Y5587D02*
X6326Y5690D01*
X6382Y5746D01*
X6382Y5872D01*
X6144Y5746D02*
G54D13*
D03*
X5977Y5753D02*
G54D13*
D03*
G54D14*
X5913Y7071D02*
X5913Y6293D01*
X5715Y6293D01*
X5715Y6293D02*
G54D13*
D03*
X5247Y6301D02*
G54D13*
D03*
X4207Y6158D02*
G54D13*
D03*
G54D14*
X5247Y6301D02*
X5144Y6285D01*
X4342Y6285D01*
X4207Y6158D01*
G54D14*
X5715Y7071D02*
X5715Y6396D01*
X5715Y6396D02*
G54D13*
D03*
X5421Y6396D02*
G54D13*
D03*
X4628Y5412D02*
G54D13*
D03*
X4747Y5412D02*
G54D13*
D03*
G54D14*
X3913Y5230D02*
X3913Y5317D01*
X3969Y5372D01*
X4588Y5372D01*
X4628Y5412D01*
G54D14*
X4961Y5214D02*
X4961Y5277D01*
X4842Y5396D01*
X4762Y5396D01*
X4747Y5412D01*
G36*
X6138Y7226D02*
X6048Y7226D01*
X6048Y7316D01*
X6138Y7316D01*
X6138Y7226D01*
G37*
G36*
X5971Y7225D02*
X5881Y7225D01*
X5881Y7315D01*
X5971Y7315D01*
X5971Y7225D01*
G37*
G54D14*
X5921Y7277D02*
X5921Y7349D01*
G54D14*
X6096Y7270D02*
X6096Y7135D01*
X7564Y4063D02*
G54D11*
D03*
G54D12*
X6874Y6071D02*
X7144Y6071D01*
X7231Y6158D01*
G54D12*
X7247Y6150D02*
X7334Y6150D01*
X7644Y5841D01*
X7644Y5364D01*
G54D12*
X7263Y4610D02*
X7263Y4698D01*
X7644Y5079D01*
X7644Y5309D01*
G54D12*
X6834Y4333D02*
X6882Y4333D01*
X6993Y4222D01*
X6993Y3880D01*
X6985Y3872D01*
G54D14*
X3850Y6341D02*
X4826Y6341D01*
X4858Y6373D01*
X4858Y6373D02*
G54D13*
D03*
X5540Y5579D02*
G54D13*
D03*
X5326Y5579D02*
G54D13*
D03*
G54D14*
X5421Y6396D02*
X5421Y6341D01*
X5310Y6230D01*
X4389Y6230D01*
X4310Y6150D01*
X4310Y6150D02*
G54D13*
D03*
X5636Y6706D02*
G54D13*
D03*
M02*
