%FSLAX32Y32*%
%MOMM*%
%LNLOETSTOP1*%
G71*
G01*
%ADD10C, 2.60*%
%ADD11C, 3.60*%
%ADD12C, 1.20*%
%ADD13C, 2.60*%
%LPD*%
X6874Y6085D02*
G54D10*
D03*
X6874Y6585D02*
G54D10*
D03*
X3927Y5564D02*
G54D10*
D03*
X3927Y7104D02*
G54D10*
D03*
X7239Y6666D02*
G54D10*
D03*
X7239Y6158D02*
G54D10*
D03*
X7334Y6888D02*
G54D11*
D03*
X6382Y5865D02*
G54D12*
D03*
X5493Y5746D02*
G54D12*
D03*
X6302Y7047D02*
G54D12*
D03*
X6461Y7222D02*
G54D12*
D03*
X3794Y6840D02*
G54D13*
D03*
X3794Y6586D02*
G54D13*
D03*
X3794Y6332D02*
G54D13*
D03*
X3794Y6078D02*
G54D13*
D03*
X3794Y5824D02*
G54D13*
D03*
X3794Y5570D02*
G54D13*
D03*
X4588Y6825D02*
G54D12*
D03*
X5556Y6825D02*
G54D12*
D03*
G36*
X4476Y6373D02*
X4366Y6373D01*
X4366Y6483D01*
X4476Y6483D01*
X4476Y6373D01*
G37*
G36*
X4309Y6372D02*
X4199Y6372D01*
X4199Y6482D01*
X4309Y6482D01*
X4309Y6372D01*
G37*
X6906Y7222D02*
G54D13*
D03*
X6652Y7222D02*
G54D13*
D03*
X6207Y5968D02*
G54D12*
D03*
X5302Y6158D02*
G54D12*
D03*
X5398Y6079D02*
G54D12*
D03*
X6128Y6079D02*
G54D12*
D03*
X6088Y6698D02*
G54D12*
D03*
X6128Y7031D02*
G54D12*
D03*
X3794Y7095D02*
G54D13*
D03*
X4461Y7206D02*
G54D12*
D03*
X6223Y7270D02*
G54D12*
D03*
G36*
X5181Y5958D02*
X5011Y5958D01*
X5011Y6168D01*
X5181Y6168D01*
X5181Y5958D01*
G37*
G36*
X4951Y5957D02*
X4781Y5957D01*
X4781Y6167D01*
X4951Y6167D01*
X4951Y5957D01*
G37*
G36*
X4721Y5957D02*
X4551Y5957D01*
X4551Y6167D01*
X4721Y6167D01*
X4721Y5957D01*
G37*
G36*
X5085Y6534D02*
X4645Y6534D01*
X4645Y6764D01*
X5085Y6764D01*
X5085Y6534D01*
G37*
X4651Y5984D02*
G54D12*
D03*
G36*
X4524Y6595D02*
X4414Y6595D01*
X4414Y6705D01*
X4524Y6705D01*
X4524Y6595D01*
G37*
G36*
X4357Y6594D02*
X4247Y6594D01*
X4247Y6704D01*
X4357Y6704D01*
X4357Y6594D01*
G37*
G36*
X4501Y5084D02*
X4331Y5084D01*
X4331Y5294D01*
X4501Y5294D01*
X4501Y5084D01*
G37*
G36*
X4247Y5084D02*
X4077Y5084D01*
X4077Y5294D01*
X4247Y5294D01*
X4247Y5084D01*
G37*
G36*
X3993Y5084D02*
X3823Y5084D01*
X3823Y5294D01*
X3993Y5294D01*
X3993Y5084D01*
G37*
G36*
X3739Y5084D02*
X3569Y5084D01*
X3569Y5294D01*
X3739Y5294D01*
X3739Y5084D01*
G37*
G36*
X4501Y4250D02*
X4331Y4250D01*
X4331Y4460D01*
X4501Y4460D01*
X4501Y4250D01*
G37*
G36*
X3993Y4250D02*
X3823Y4250D01*
X3823Y4460D01*
X3993Y4460D01*
X3993Y4250D01*
G37*
G36*
X3739Y4250D02*
X3569Y4250D01*
X3569Y4460D01*
X3739Y4460D01*
X3739Y4250D01*
G37*
G36*
X5549Y5084D02*
X5379Y5084D01*
X5379Y5294D01*
X5549Y5294D01*
X5549Y5084D01*
G37*
G36*
X5295Y5084D02*
X5125Y5084D01*
X5125Y5294D01*
X5295Y5294D01*
X5295Y5084D01*
G37*
G36*
X5041Y5084D02*
X4871Y5084D01*
X4871Y5294D01*
X5041Y5294D01*
X5041Y5084D01*
G37*
G36*
X4787Y5084D02*
X4617Y5084D01*
X4617Y5294D01*
X4787Y5294D01*
X4787Y5084D01*
G37*
G36*
X5549Y4250D02*
X5379Y4250D01*
X5379Y4460D01*
X5549Y4460D01*
X5549Y4250D01*
G37*
G36*
X5041Y4250D02*
X4871Y4250D01*
X4871Y4460D01*
X5041Y4460D01*
X5041Y4250D01*
G37*
G36*
X4787Y4250D02*
X4617Y4250D01*
X4617Y4460D01*
X4787Y4460D01*
X4787Y4250D01*
G37*
G36*
X6588Y5092D02*
X6418Y5092D01*
X6418Y5302D01*
X6588Y5302D01*
X6588Y5092D01*
G37*
G36*
X6334Y5092D02*
X6164Y5092D01*
X6164Y5302D01*
X6334Y5302D01*
X6334Y5092D01*
G37*
G36*
X6080Y5092D02*
X5910Y5092D01*
X5910Y5302D01*
X6080Y5302D01*
X6080Y5092D01*
G37*
G36*
X5826Y5092D02*
X5656Y5092D01*
X5656Y5302D01*
X5826Y5302D01*
X5826Y5092D01*
G37*
G36*
X6588Y4258D02*
X6418Y4258D01*
X6418Y4468D01*
X6588Y4468D01*
X6588Y4258D01*
G37*
G36*
X6080Y4258D02*
X5910Y4258D01*
X5910Y4468D01*
X6080Y4468D01*
X6080Y4258D01*
G37*
G36*
X5826Y4258D02*
X5656Y4258D01*
X5656Y4468D01*
X5826Y4468D01*
X5826Y4258D01*
G37*
G36*
X7620Y5092D02*
X7450Y5092D01*
X7450Y5302D01*
X7620Y5302D01*
X7620Y5092D01*
G37*
G36*
X7366Y5092D02*
X7196Y5092D01*
X7196Y5302D01*
X7366Y5302D01*
X7366Y5092D01*
G37*
G36*
X7112Y5092D02*
X6942Y5092D01*
X6942Y5302D01*
X7112Y5302D01*
X7112Y5092D01*
G37*
G36*
X6858Y5092D02*
X6688Y5092D01*
X6688Y5302D01*
X6858Y5302D01*
X6858Y5092D01*
G37*
G36*
X7620Y4258D02*
X7450Y4258D01*
X7450Y4468D01*
X7620Y4468D01*
X7620Y4258D01*
G37*
G36*
X7112Y4258D02*
X6942Y4258D01*
X6942Y4468D01*
X7112Y4468D01*
X7112Y4258D01*
G37*
G36*
X6858Y4258D02*
X6688Y4258D01*
X6688Y4468D01*
X6858Y4468D01*
X6858Y4258D01*
G37*
X7279Y4730D02*
G54D12*
D03*
X7279Y4682D02*
G54D12*
D03*
X7279Y4634D02*
G54D12*
D03*
X7279Y4587D02*
G54D12*
D03*
X7239Y4706D02*
G54D12*
D03*
X7239Y4658D02*
G54D12*
D03*
X7239Y4602D02*
G54D12*
D03*
X3977Y3888D02*
G54D11*
D03*
X4577Y3888D02*
G54D11*
D03*
X5177Y3888D02*
G54D11*
D03*
X5777Y3888D02*
G54D11*
D03*
X6377Y3888D02*
G54D11*
D03*
X6993Y3872D02*
G54D11*
D03*
X3651Y5166D02*
G54D12*
D03*
X4707Y5150D02*
G54D12*
D03*
X6013Y4782D02*
G54D12*
D03*
X5966Y4782D02*
G54D12*
D03*
X5918Y4782D02*
G54D12*
D03*
X5870Y4782D02*
G54D12*
D03*
X5989Y4822D02*
G54D12*
D03*
X5942Y4822D02*
G54D12*
D03*
X5886Y4822D02*
G54D12*
D03*
G36*
X5889Y5516D02*
X5779Y5516D01*
X5779Y5626D01*
X5889Y5626D01*
X5889Y5516D01*
G37*
G36*
X5722Y5517D02*
X5612Y5517D01*
X5612Y5627D01*
X5722Y5627D01*
X5722Y5517D01*
G37*
G36*
X6028Y5789D02*
X6028Y5679D01*
X5918Y5679D01*
X5918Y5789D01*
X6028Y5789D01*
G37*
G36*
X6027Y5622D02*
X6027Y5512D01*
X5917Y5512D01*
X5917Y5622D01*
X6027Y5622D01*
G37*
G36*
X6147Y5789D02*
X6147Y5679D01*
X6037Y5679D01*
X6037Y5789D01*
X6147Y5789D01*
G37*
G36*
X6146Y5622D02*
X6146Y5512D01*
X6036Y5512D01*
X6036Y5622D01*
X6146Y5622D01*
G37*
X6144Y5746D02*
G54D12*
D03*
X5977Y5753D02*
G54D12*
D03*
G36*
X4560Y5725D02*
X4560Y5615D01*
X4450Y5615D01*
X4450Y5725D01*
X4560Y5725D01*
G37*
G36*
X4559Y5558D02*
X4559Y5448D01*
X4449Y5448D01*
X4449Y5558D01*
X4559Y5558D01*
G37*
G36*
X4679Y5725D02*
X4679Y5615D01*
X4569Y5615D01*
X4569Y5725D01*
X4679Y5725D01*
G37*
G36*
X4678Y5558D02*
X4678Y5448D01*
X4568Y5448D01*
X4568Y5558D01*
X4678Y5558D01*
G37*
G36*
X4798Y5725D02*
X4798Y5615D01*
X4688Y5615D01*
X4688Y5725D01*
X4798Y5725D01*
G37*
G36*
X4797Y5558D02*
X4797Y5448D01*
X4687Y5448D01*
X4687Y5558D01*
X4797Y5558D01*
G37*
X5715Y6293D02*
G54D12*
D03*
X5247Y6301D02*
G54D12*
D03*
X4207Y6158D02*
G54D12*
D03*
X5715Y6396D02*
G54D12*
D03*
X5421Y6396D02*
G54D12*
D03*
X4628Y5412D02*
G54D12*
D03*
X4747Y5412D02*
G54D12*
D03*
X7564Y4063D02*
G54D11*
D03*
X4858Y6373D02*
G54D12*
D03*
X5540Y5579D02*
G54D12*
D03*
X5326Y5579D02*
G54D12*
D03*
X4310Y6150D02*
G54D12*
D03*
G36*
X5779Y6761D02*
X5889Y6761D01*
X5889Y6651D01*
X5779Y6651D01*
X5779Y6761D01*
G37*
G36*
X5946Y6760D02*
X6056Y6760D01*
X6056Y6650D01*
X5946Y6650D01*
X5946Y6760D01*
G37*
G36*
X5779Y6642D02*
X5889Y6642D01*
X5889Y6532D01*
X5779Y6532D01*
X5779Y6642D01*
G37*
G36*
X5946Y6641D02*
X6056Y6641D01*
X6056Y6531D01*
X5946Y6531D01*
X5946Y6641D01*
G37*
X5636Y6706D02*
G54D12*
D03*
M02*
