%FSLAX32Y32*%
%MOMM*%
%LNSMD_Maske2*%
G71*
G01*
%LPD*%
G36*
X5898Y5136D02*
X6078Y5136D01*
X6078Y4781D01*
X5898Y4781D01*
X5898Y5136D01*
G37*
G36*
X6738Y5135D02*
X6918Y5135D01*
X6918Y4780D01*
X6738Y4780D01*
X6738Y5135D01*
G37*
G36*
X6263Y5606D02*
X6363Y5606D01*
X6363Y5476D01*
X6263Y5476D01*
X6263Y5606D01*
G37*
G36*
X6063Y5606D02*
X6163Y5606D01*
X6163Y5476D01*
X6063Y5476D01*
X6063Y5606D01*
G37*
G36*
X5863Y5606D02*
X5963Y5606D01*
X5963Y5476D01*
X5863Y5476D01*
X5863Y5606D01*
G37*
G36*
X5663Y5606D02*
X5763Y5606D01*
X5763Y5476D01*
X5663Y5476D01*
X5663Y5606D01*
G37*
G36*
X5463Y5606D02*
X5563Y5606D01*
X5563Y5476D01*
X5463Y5476D01*
X5463Y5606D01*
G37*
G36*
X5263Y5606D02*
X5363Y5606D01*
X5363Y5476D01*
X5263Y5476D01*
X5263Y5606D01*
G37*
G36*
X5063Y5606D02*
X5163Y5606D01*
X5163Y5476D01*
X5063Y5476D01*
X5063Y5606D01*
G37*
G36*
X4863Y5606D02*
X4963Y5606D01*
X4963Y5476D01*
X4863Y5476D01*
X4863Y5606D01*
G37*
G36*
X6263Y7169D02*
X6363Y7169D01*
X6363Y7039D01*
X6263Y7039D01*
X6263Y7169D01*
G37*
G36*
X6063Y7169D02*
X6163Y7169D01*
X6163Y7039D01*
X6063Y7039D01*
X6063Y7169D01*
G37*
G36*
X5863Y7169D02*
X5963Y7169D01*
X5963Y7039D01*
X5863Y7039D01*
X5863Y7169D01*
G37*
G36*
X5663Y7169D02*
X5763Y7169D01*
X5763Y7039D01*
X5663Y7039D01*
X5663Y7169D01*
G37*
G36*
X5463Y7169D02*
X5563Y7169D01*
X5563Y7039D01*
X5463Y7039D01*
X5463Y7169D01*
G37*
G36*
X5263Y7169D02*
X5363Y7169D01*
X5363Y7039D01*
X5263Y7039D01*
X5263Y7169D01*
G37*
G36*
X5063Y7169D02*
X5163Y7169D01*
X5163Y7039D01*
X5063Y7039D01*
X5063Y7169D01*
G37*
G36*
X4863Y7169D02*
X4963Y7169D01*
X4963Y7039D01*
X4863Y7039D01*
X4863Y7169D01*
G37*
G36*
X6477Y7236D02*
X6407Y7236D01*
X6407Y7306D01*
X6477Y7306D01*
X6477Y7236D01*
G37*
G36*
X6310Y7235D02*
X6240Y7235D01*
X6240Y7305D01*
X6310Y7305D01*
X6310Y7235D01*
G37*
G36*
X4874Y7236D02*
X4804Y7236D01*
X4804Y7306D01*
X4874Y7306D01*
X4874Y7236D01*
G37*
G36*
X4707Y7235D02*
X4637Y7235D01*
X4637Y7305D01*
X4707Y7305D01*
X4707Y7235D01*
G37*
G36*
X5826Y7236D02*
X5756Y7236D01*
X5756Y7306D01*
X5826Y7306D01*
X5826Y7236D01*
G37*
G36*
X5659Y7235D02*
X5589Y7235D01*
X5589Y7305D01*
X5659Y7305D01*
X5659Y7235D01*
G37*
G36*
X5540Y7236D02*
X5470Y7236D01*
X5470Y7306D01*
X5540Y7306D01*
X5540Y7236D01*
G37*
G36*
X5373Y7235D02*
X5303Y7235D01*
X5303Y7305D01*
X5373Y7305D01*
X5373Y7235D01*
G37*
G36*
X5223Y7236D02*
X5153Y7236D01*
X5153Y7306D01*
X5223Y7306D01*
X5223Y7236D01*
G37*
G36*
X5056Y7235D02*
X4986Y7235D01*
X4986Y7305D01*
X5056Y7305D01*
X5056Y7235D01*
G37*
G36*
X4530Y7319D02*
X4530Y7189D01*
X4200Y7189D01*
X4200Y7319D01*
X4530Y7319D01*
G37*
G36*
X4637Y5266D02*
X4767Y5266D01*
X4767Y5096D01*
X4637Y5096D01*
X4637Y5266D01*
G37*
G36*
X4891Y5266D02*
X5021Y5266D01*
X5021Y5096D01*
X4891Y5096D01*
X4891Y5266D01*
G37*
G36*
X5145Y5266D02*
X5275Y5266D01*
X5275Y5096D01*
X5145Y5096D01*
X5145Y5266D01*
G37*
G36*
X5399Y5266D02*
X5529Y5266D01*
X5529Y5096D01*
X5399Y5096D01*
X5399Y5266D01*
G37*
G36*
X4637Y4433D02*
X4767Y4433D01*
X4767Y4263D01*
X4637Y4263D01*
X4637Y4433D01*
G37*
G36*
X5145Y4433D02*
X5275Y4433D01*
X5275Y4263D01*
X5145Y4263D01*
X5145Y4433D01*
G37*
G36*
X5399Y4433D02*
X5529Y4433D01*
X5529Y4263D01*
X5399Y4263D01*
X5399Y4433D01*
G37*
G36*
X3589Y5266D02*
X3719Y5266D01*
X3719Y5096D01*
X3589Y5096D01*
X3589Y5266D01*
G37*
G36*
X3843Y5266D02*
X3973Y5266D01*
X3973Y5096D01*
X3843Y5096D01*
X3843Y5266D01*
G37*
G36*
X4097Y5266D02*
X4227Y5266D01*
X4227Y5096D01*
X4097Y5096D01*
X4097Y5266D01*
G37*
G36*
X4351Y5266D02*
X4481Y5266D01*
X4481Y5096D01*
X4351Y5096D01*
X4351Y5266D01*
G37*
G36*
X3589Y4433D02*
X3719Y4433D01*
X3719Y4263D01*
X3589Y4263D01*
X3589Y4433D01*
G37*
G36*
X4097Y4433D02*
X4227Y4433D01*
X4227Y4263D01*
X4097Y4263D01*
X4097Y4433D01*
G37*
G36*
X4351Y4433D02*
X4481Y4433D01*
X4481Y4263D01*
X4351Y4263D01*
X4351Y4433D01*
G37*
G36*
X5890Y4620D02*
X6070Y4620D01*
X6070Y4265D01*
X5890Y4265D01*
X5890Y4620D01*
G37*
G36*
X6730Y4619D02*
X6910Y4619D01*
X6910Y4264D01*
X6730Y4264D01*
X6730Y4619D01*
G37*
G36*
X6739Y5620D02*
X6919Y5620D01*
X6919Y5265D01*
X6739Y5265D01*
X6739Y5620D01*
G37*
G36*
X7580Y5619D02*
X7760Y5619D01*
X7760Y5264D01*
X7580Y5264D01*
X7580Y5619D01*
G37*
G36*
X6128Y7236D02*
X6058Y7236D01*
X6058Y7306D01*
X6128Y7306D01*
X6128Y7236D01*
G37*
G36*
X5961Y7235D02*
X5891Y7235D01*
X5891Y7305D01*
X5961Y7305D01*
X5961Y7235D01*
G37*
M02*
