; Drill file
; Format: 2.4 (00.0000)
M48
INCH
T01C0.012
T02C0.039
T03C0.059
%
G05
G90
T01
X010430Y027000
X010470Y032210
T02
X006660Y025320
X006660Y028290
X006670Y030820
X006670Y033790
X012630Y033770
X014600Y033770
X016580Y033770
X016580Y030810
X014600Y030810
X012630Y030810
X012610Y028270
X014590Y028270
X016570Y028270
X016570Y025310
X014590Y025310
X012610Y025310
T03
X012610Y023560
X014580Y023650
X016550Y023620
X016530Y035430
X014590Y035470
X012590Y035460
M30
