%FSLAX32Y32*%
%MOMM*%
%LNBESTUECKUNG1*%
G71*
G01*
%ADD10C, 0.11*%
%ADD11C, 0.13*%
%ADD12C, 0.12*%
%LPD*%
G54D10*
X1629Y6736D02*
X1629Y6825D01*
X1595Y6825D01*
X1582Y6820D01*
X1575Y6808D01*
X1575Y6753D01*
X1582Y6742D01*
X1595Y6736D01*
X1629Y6736D01*
G54D10*
X1552Y6792D02*
X1518Y6825D01*
X1518Y6736D01*
G54D11*
X2298Y6494D02*
X2312Y6470D01*
X2325Y6462D01*
X2352Y6462D01*
G54D11*
X2352Y6526D02*
X2245Y6526D01*
X2245Y6486D01*
X2252Y6470D01*
X2265Y6462D01*
X2278Y6462D01*
X2292Y6470D01*
X2298Y6486D01*
X2298Y6526D01*
G54D11*
X2285Y6433D02*
X2245Y6393D01*
X2352Y6393D01*
G54D11*
X2390Y6212D02*
X2390Y6319D01*
G54D11*
X2422Y6319D02*
X2358Y6319D01*
G54D11*
X2329Y6279D02*
X2289Y6319D01*
X2289Y6212D01*
G54D11*
X3785Y8772D02*
X3793Y8759D01*
X3809Y8752D01*
X3825Y8752D01*
X3841Y8759D01*
X3849Y8772D01*
X3849Y8839D01*
X3841Y8852D01*
X3825Y8859D01*
X3809Y8859D01*
X3793Y8852D01*
X3785Y8839D01*
G54D11*
X3692Y8839D02*
X3692Y8772D01*
X3700Y8759D01*
X3716Y8752D01*
X3732Y8752D01*
X3748Y8759D01*
X3756Y8772D01*
X3756Y8839D01*
X3748Y8852D01*
X3732Y8859D01*
X3716Y8859D01*
X3700Y8852D01*
X3692Y8839D01*
G54D11*
X3663Y8752D02*
X3663Y8859D01*
X3623Y8792D01*
X3583Y8859D01*
X3583Y8752D01*
G54D11*
X4279Y8752D02*
X4279Y8859D01*
X4215Y8752D01*
X4215Y8859D01*
G54D11*
X4122Y8839D02*
X4122Y8772D01*
X4130Y8759D01*
X4146Y8752D01*
X4162Y8752D01*
X4178Y8759D01*
X4186Y8772D01*
X4186Y8839D01*
X4178Y8852D01*
X4162Y8859D01*
X4146Y8859D01*
X4130Y8852D01*
X4122Y8839D01*
G54D11*
X3272Y8752D02*
X3272Y8859D01*
X3208Y8752D01*
X3208Y8859D01*
G54D11*
X3115Y8772D02*
X3123Y8759D01*
X3139Y8752D01*
X3155Y8752D01*
X3171Y8759D01*
X3179Y8772D01*
X3179Y8839D01*
X3171Y8852D01*
X3155Y8859D01*
X3139Y8859D01*
X3123Y8852D01*
X3115Y8839D01*
G54D11*
X1662Y6807D02*
X1726Y6807D01*
G54D11*
X1917Y6887D02*
X1931Y6863D01*
X1944Y6855D01*
X1971Y6855D01*
G54D11*
X1971Y6919D02*
X1864Y6919D01*
X1864Y6879D01*
X1871Y6863D01*
X1884Y6855D01*
X1897Y6855D01*
X1911Y6863D01*
X1917Y6879D01*
X1917Y6919D01*
G54D11*
X1971Y6762D02*
X1971Y6826D01*
X1964Y6826D01*
X1951Y6818D01*
X1911Y6770D01*
X1897Y6762D01*
X1884Y6762D01*
X1871Y6770D01*
X1864Y6786D01*
X1864Y6802D01*
X1871Y6818D01*
X1884Y6826D01*
G54D12*
X2125Y7375D02*
X2028Y7375D01*
G54D12*
X2125Y7348D02*
X2028Y7348D01*
X2125Y7290D01*
X2028Y7290D01*
G54D12*
X2369Y7395D02*
X2369Y7365D01*
X2400Y7365D01*
X2412Y7373D01*
X2418Y7387D01*
X2418Y7402D01*
X2412Y7417D01*
X2400Y7424D01*
X2339Y7424D01*
X2326Y7417D01*
X2320Y7402D01*
X2320Y7387D01*
X2326Y7373D01*
X2339Y7365D01*
G54D12*
X2418Y7338D02*
X2320Y7338D01*
X2418Y7279D01*
X2320Y7279D01*
G54D12*
X2418Y7252D02*
X2320Y7252D01*
X2320Y7215D01*
X2326Y7201D01*
X2339Y7193D01*
X2400Y7193D01*
X2412Y7201D01*
X2418Y7215D01*
X2418Y7252D01*
G54D12*
X2599Y7346D02*
X2599Y7404D01*
X2642Y7404D01*
X2642Y7397D01*
X2635Y7382D01*
X2635Y7368D01*
X2642Y7353D01*
X2654Y7346D01*
X2678Y7346D01*
X2690Y7353D01*
X2697Y7368D01*
X2697Y7382D01*
X2690Y7397D01*
X2678Y7404D01*
G54D12*
X2599Y7318D02*
X2697Y7282D01*
X2599Y7245D01*
G54D10*
X1632Y8133D02*
X1632Y8222D01*
X1598Y8222D01*
X1585Y8217D01*
X1578Y8205D01*
X1578Y8150D01*
X1585Y8139D01*
X1598Y8133D01*
X1632Y8133D01*
G54D10*
X1555Y8189D02*
X1521Y8222D01*
X1521Y8133D01*
G54D11*
X2301Y7891D02*
X2315Y7867D01*
X2328Y7859D01*
X2355Y7859D01*
G54D11*
X2355Y7923D02*
X2248Y7923D01*
X2248Y7883D01*
X2255Y7867D01*
X2268Y7859D01*
X2281Y7859D01*
X2295Y7867D01*
X2301Y7883D01*
X2301Y7923D01*
G54D11*
X2288Y7830D02*
X2248Y7790D01*
X2355Y7790D01*
G54D11*
X2393Y7609D02*
X2393Y7716D01*
G54D11*
X2425Y7716D02*
X2361Y7716D01*
G54D11*
X2332Y7676D02*
X2292Y7716D01*
X2292Y7609D01*
G54D11*
X1665Y8204D02*
X1729Y8204D01*
G54D11*
X1920Y8284D02*
X1934Y8260D01*
X1947Y8252D01*
X1974Y8252D01*
G54D11*
X1974Y8316D02*
X1867Y8316D01*
X1867Y8276D01*
X1874Y8260D01*
X1887Y8252D01*
X1900Y8252D01*
X1914Y8260D01*
X1920Y8276D01*
X1920Y8316D01*
G54D11*
X1974Y8159D02*
X1974Y8223D01*
X1967Y8223D01*
X1954Y8215D01*
X1914Y8167D01*
X1900Y8159D01*
X1887Y8159D01*
X1874Y8167D01*
X1867Y8183D01*
X1867Y8199D01*
X1874Y8215D01*
X1887Y8223D01*
G54D12*
X2128Y8772D02*
X2031Y8772D01*
G54D12*
X2128Y8745D02*
X2031Y8745D01*
X2128Y8687D01*
X2031Y8687D01*
G54D12*
X2372Y8792D02*
X2372Y8762D01*
X2403Y8762D01*
X2415Y8770D01*
X2421Y8784D01*
X2421Y8799D01*
X2415Y8814D01*
X2403Y8821D01*
X2342Y8821D01*
X2329Y8814D01*
X2323Y8799D01*
X2323Y8784D01*
X2329Y8770D01*
X2342Y8762D01*
G54D12*
X2421Y8735D02*
X2323Y8735D01*
X2421Y8676D01*
X2323Y8676D01*
G54D12*
X2421Y8649D02*
X2323Y8649D01*
X2323Y8612D01*
X2329Y8598D01*
X2342Y8590D01*
X2403Y8590D01*
X2415Y8598D01*
X2421Y8612D01*
X2421Y8649D01*
G54D12*
X2602Y8743D02*
X2602Y8801D01*
X2645Y8801D01*
X2645Y8794D01*
X2638Y8779D01*
X2638Y8765D01*
X2645Y8750D01*
X2657Y8743D01*
X2681Y8743D01*
X2693Y8750D01*
X2700Y8765D01*
X2700Y8779D01*
X2693Y8794D01*
X2681Y8801D01*
G54D12*
X2602Y8715D02*
X2700Y8679D01*
X2602Y8642D01*
G54D11*
X3280Y6165D02*
X3280Y6271D01*
X3216Y6165D01*
X3216Y6271D01*
G54D11*
X3123Y6185D02*
X3131Y6171D01*
X3147Y6165D01*
X3163Y6165D01*
X3179Y6171D01*
X3187Y6185D01*
X3187Y6251D01*
X3179Y6265D01*
X3163Y6271D01*
X3147Y6271D01*
X3131Y6265D01*
X3123Y6251D01*
G54D11*
X3785Y6185D02*
X3793Y6171D01*
X3809Y6165D01*
X3825Y6165D01*
X3841Y6171D01*
X3849Y6185D01*
X3849Y6251D01*
X3841Y6265D01*
X3825Y6271D01*
X3809Y6271D01*
X3793Y6265D01*
X3785Y6251D01*
G54D11*
X3692Y6251D02*
X3692Y6185D01*
X3700Y6171D01*
X3716Y6165D01*
X3732Y6165D01*
X3748Y6171D01*
X3756Y6185D01*
X3756Y6251D01*
X3748Y6265D01*
X3732Y6271D01*
X3716Y6271D01*
X3700Y6265D01*
X3692Y6251D01*
G54D11*
X3663Y6165D02*
X3663Y6271D01*
X3623Y6205D01*
X3583Y6271D01*
X3583Y6165D01*
G54D11*
X4287Y6172D02*
X4287Y6279D01*
X4223Y6172D01*
X4223Y6279D01*
G54D11*
X4130Y6259D02*
X4130Y6192D01*
X4138Y6179D01*
X4154Y6172D01*
X4170Y6172D01*
X4186Y6179D01*
X4194Y6192D01*
X4194Y6259D01*
X4186Y6272D01*
X4170Y6279D01*
X4154Y6279D01*
X4138Y6272D01*
X4130Y6259D01*
M02*
