%FSLAX32Y32*%
%MOMM*%
%LNSMD_Maske2*%
G71*
G01*
%LPD*%
G36*
X1834Y7049D02*
X1834Y6919D01*
X1554Y6919D01*
X1554Y7049D01*
X1834Y7049D01*
G37*
G36*
X1834Y6669D02*
X1834Y6539D01*
X1554Y6539D01*
X1554Y6669D01*
X1834Y6669D01*
G37*
G36*
X2200Y6383D02*
X2110Y6383D01*
X2110Y6473D01*
X2200Y6473D01*
X2200Y6383D01*
G37*
G36*
X2010Y6383D02*
X1920Y6383D01*
X1920Y6473D01*
X2010Y6473D01*
X2010Y6383D01*
G37*
G36*
X2106Y6161D02*
X2016Y6161D01*
X2016Y6251D01*
X2106Y6251D01*
X2106Y6161D01*
G37*
G36*
X2175Y6520D02*
X2105Y6520D01*
X2105Y6590D01*
X2175Y6590D01*
X2175Y6520D01*
G37*
G36*
X2008Y6519D02*
X1938Y6519D01*
X1938Y6589D01*
X2008Y6589D01*
X2008Y6519D01*
G37*
G36*
X1731Y6942D02*
X1731Y6857D01*
X1661Y6857D01*
X1661Y6942D01*
X1731Y6942D01*
G37*
G36*
X1731Y6696D02*
X1731Y6610D01*
X1661Y6610D01*
X1661Y6696D01*
X1731Y6696D01*
G37*
G36*
X2148Y6878D02*
X2148Y6808D01*
X2078Y6808D01*
X2078Y6878D01*
X2148Y6878D01*
G37*
G36*
X2147Y6711D02*
X2147Y6641D01*
X2077Y6641D01*
X2077Y6711D01*
X2147Y6711D01*
G37*
G36*
X2002Y7158D02*
X2182Y7158D01*
X2182Y6778D01*
X2002Y6778D01*
X2002Y7158D01*
G37*
G36*
X2272Y7158D02*
X2452Y7158D01*
X2452Y6778D01*
X2272Y6778D01*
X2272Y7158D01*
G37*
G36*
X2558Y7158D02*
X2738Y7158D01*
X2738Y6778D01*
X2558Y6778D01*
X2558Y7158D01*
G37*
G36*
X1837Y8446D02*
X1837Y8316D01*
X1557Y8316D01*
X1557Y8446D01*
X1837Y8446D01*
G37*
G36*
X1837Y8066D02*
X1837Y7936D01*
X1557Y7936D01*
X1557Y8066D01*
X1837Y8066D01*
G37*
G36*
X2204Y7780D02*
X2114Y7780D01*
X2114Y7870D01*
X2204Y7870D01*
X2204Y7780D01*
G37*
G36*
X2014Y7780D02*
X1924Y7780D01*
X1924Y7870D01*
X2014Y7870D01*
X2014Y7780D01*
G37*
G36*
X2108Y7558D02*
X2018Y7558D01*
X2018Y7648D01*
X2108Y7648D01*
X2108Y7558D01*
G37*
G36*
X2178Y7917D02*
X2108Y7917D01*
X2108Y7987D01*
X2178Y7987D01*
X2178Y7917D01*
G37*
G36*
X2011Y7916D02*
X1941Y7916D01*
X1941Y7986D01*
X2011Y7986D01*
X2011Y7916D01*
G37*
G36*
X1734Y8339D02*
X1734Y8254D01*
X1664Y8254D01*
X1664Y8339D01*
X1734Y8339D01*
G37*
G36*
X1734Y8092D02*
X1734Y8008D01*
X1664Y8008D01*
X1664Y8092D01*
X1734Y8092D01*
G37*
G36*
X2151Y8275D02*
X2151Y8205D01*
X2081Y8205D01*
X2081Y8275D01*
X2151Y8275D01*
G37*
G36*
X2150Y8108D02*
X2150Y8038D01*
X2080Y8038D01*
X2080Y8108D01*
X2150Y8108D01*
G37*
G36*
X2006Y8555D02*
X2186Y8555D01*
X2186Y8175D01*
X2006Y8175D01*
X2006Y8555D01*
G37*
G36*
X2275Y8555D02*
X2455Y8555D01*
X2455Y8175D01*
X2275Y8175D01*
X2275Y8555D01*
G37*
G36*
X2561Y8555D02*
X2741Y8555D01*
X2741Y8175D01*
X2561Y8175D01*
X2561Y8555D01*
G37*
M02*
