; Drill file
; Format: 2.4 (00.0000)
M48
INCH
T01C0.012
T02C0.035
T03C0.043
T04C0.059
%
G05
G90
T01
X014370Y020340
X018220Y021310
X018690Y021310
X018530Y020280
X020970Y021960
X021810Y021960
X021630Y022620
X021250Y023930
X020870Y024240
X020660Y024810
X021340Y025180
X022500Y025180
X022500Y024780
X022190Y026400
X021870Y026870
X023970Y026370
X024130Y027680
X024810Y027740
X025440Y028430
X024500Y028620
X024130Y023930
X024440Y023500
X025130Y023090
X024190Y022620
X023530Y022650
X023580Y018980
X023490Y018830
X023390Y018980
X023300Y018830
X023110Y018830
X023170Y018980
X023670Y018830
X028500Y018530
X028660Y018430
X028500Y018340
X028660Y018240
X028660Y018060
X028500Y018120
X028660Y018620
X018310Y023560
X016970Y024210
X016560Y024240
X019130Y025090
X018060Y026870
X017560Y028370
T02
X015460Y021910
X015460Y027970
X027060Y025930
X028500Y026240
X028500Y024240
X027060Y023960
T03
X014940Y021930
X014940Y022930
X014940Y023930
X014940Y024930
X014940Y025930
X014940Y026930
X014940Y027930
X026190Y028430
X027190Y028430
T04
X015660Y015310
X018020Y015310
X020380Y015310
X022740Y015310
X025110Y015310
X027530Y015240
X029780Y016000
X028870Y027120
M30
