%FSLAX32Y32*%
%MOMM*%
%LNKUPFERSEITE1*%
G71*
G01*
%ADD10C, 2.00*%
%ADD11C, 3.00*%
%ADD12C, 0.60*%
%ADD13C, 0.30*%
%ADD14C, 0.40*%
%ADD15C, 0.60*%
%ADD16C, 2.00*%
%ADD17C, 1.00*%
%LPD*%
X6874Y6085D02*
G54D10*
D03*
X6874Y6585D02*
G54D10*
D03*
X3927Y5564D02*
G54D10*
D03*
X3927Y7104D02*
G54D10*
D03*
X7239Y6666D02*
G54D10*
D03*
X7239Y6158D02*
G54D10*
D03*
X7334Y6888D02*
G54D11*
D03*
X6382Y5865D02*
G54D12*
D03*
G54D13*
X6239Y7270D02*
X6207Y7270D01*
X6207Y5968D01*
X5493Y5746D02*
G54D12*
D03*
G54D14*
X5144Y6126D02*
X5144Y6460D01*
X4382Y6460D01*
X4382Y6952D01*
X4223Y7111D01*
X3937Y7111D01*
G54D15*
X4874Y6015D02*
X4874Y5880D01*
X6286Y5880D01*
X6286Y7047D01*
X6302Y7047D02*
G54D12*
D03*
G54D14*
X6382Y5825D02*
X6382Y6968D01*
X6461Y7047D01*
X6461Y7222D01*
X6461Y7222D02*
G54D12*
D03*
X3794Y6840D02*
G54D16*
D03*
X3794Y6586D02*
G54D16*
D03*
X3794Y6332D02*
G54D16*
D03*
X3794Y6078D02*
G54D16*
D03*
X3794Y5824D02*
G54D16*
D03*
X3794Y5570D02*
G54D16*
D03*
X4588Y6825D02*
G54D12*
D03*
X5556Y6825D02*
G54D12*
D03*
G54D13*
X4588Y6825D02*
X5556Y6825D01*
G36*
X4466Y6383D02*
X4376Y6383D01*
X4376Y6473D01*
X4466Y6473D01*
X4466Y6383D01*
G37*
G36*
X4299Y6382D02*
X4209Y6382D01*
X4209Y6472D01*
X4299Y6472D01*
X4299Y6382D01*
G37*
X6906Y7222D02*
G54D16*
D03*
X6652Y7222D02*
G54D16*
D03*
X6207Y5968D02*
G54D12*
D03*
X5302Y6158D02*
G54D12*
D03*
X5398Y6079D02*
G54D12*
D03*
G54D13*
X5398Y6079D02*
X6128Y6079D01*
G54D13*
X5302Y6158D02*
X5818Y6158D01*
X5818Y6579D01*
X6128Y6079D02*
G54D12*
D03*
X6088Y6698D02*
G54D12*
D03*
G54D13*
X4461Y7206D02*
X4461Y7063D01*
X4556Y6968D01*
X4604Y6968D01*
X4651Y6920D01*
X6128Y6920D01*
X6128Y7031D01*
X6128Y7031D02*
G54D12*
D03*
X3794Y7095D02*
G54D16*
D03*
X4461Y7206D02*
G54D12*
D03*
X6223Y7270D02*
G54D12*
D03*
G36*
X5171Y5968D02*
X5021Y5968D01*
X5021Y6158D01*
X5171Y6158D01*
X5171Y5968D01*
G37*
G36*
X4941Y5967D02*
X4791Y5967D01*
X4791Y6157D01*
X4941Y6157D01*
X4941Y5967D01*
G37*
G36*
X4711Y5967D02*
X4561Y5967D01*
X4561Y6157D01*
X4711Y6157D01*
X4711Y5967D01*
G37*
G36*
X5075Y6544D02*
X4655Y6544D01*
X4655Y6754D01*
X5075Y6754D01*
X5075Y6544D01*
G37*
X4651Y5984D02*
G54D12*
D03*
G36*
X4514Y6605D02*
X4424Y6605D01*
X4424Y6695D01*
X4514Y6695D01*
X4514Y6605D01*
G37*
G36*
X4347Y6604D02*
X4257Y6604D01*
X4257Y6694D01*
X4347Y6694D01*
X4347Y6604D01*
G37*
G54D14*
X4493Y6650D02*
X4715Y6650D01*
G36*
X4491Y5094D02*
X4341Y5094D01*
X4341Y5284D01*
X4491Y5284D01*
X4491Y5094D01*
G37*
G36*
X4237Y5094D02*
X4087Y5094D01*
X4087Y5284D01*
X4237Y5284D01*
X4237Y5094D01*
G37*
G36*
X3983Y5094D02*
X3833Y5094D01*
X3833Y5284D01*
X3983Y5284D01*
X3983Y5094D01*
G37*
G36*
X3729Y5094D02*
X3579Y5094D01*
X3579Y5284D01*
X3729Y5284D01*
X3729Y5094D01*
G37*
G36*
X4491Y4260D02*
X4341Y4260D01*
X4341Y4450D01*
X4491Y4450D01*
X4491Y4260D01*
G37*
G36*
X3983Y4260D02*
X3833Y4260D01*
X3833Y4450D01*
X3983Y4450D01*
X3983Y4260D01*
G37*
G36*
X3729Y4260D02*
X3579Y4260D01*
X3579Y4450D01*
X3729Y4450D01*
X3729Y4260D01*
G37*
G36*
X5539Y5094D02*
X5389Y5094D01*
X5389Y5284D01*
X5539Y5284D01*
X5539Y5094D01*
G37*
G36*
X5285Y5094D02*
X5135Y5094D01*
X5135Y5284D01*
X5285Y5284D01*
X5285Y5094D01*
G37*
G36*
X5031Y5094D02*
X4881Y5094D01*
X4881Y5284D01*
X5031Y5284D01*
X5031Y5094D01*
G37*
G36*
X4777Y5094D02*
X4627Y5094D01*
X4627Y5284D01*
X4777Y5284D01*
X4777Y5094D01*
G37*
G36*
X5539Y4260D02*
X5389Y4260D01*
X5389Y4450D01*
X5539Y4450D01*
X5539Y4260D01*
G37*
G36*
X5031Y4260D02*
X4881Y4260D01*
X4881Y4450D01*
X5031Y4450D01*
X5031Y4260D01*
G37*
G36*
X4777Y4260D02*
X4627Y4260D01*
X4627Y4450D01*
X4777Y4450D01*
X4777Y4260D01*
G37*
G36*
X6578Y5102D02*
X6428Y5102D01*
X6428Y5292D01*
X6578Y5292D01*
X6578Y5102D01*
G37*
G36*
X6324Y5102D02*
X6174Y5102D01*
X6174Y5292D01*
X6324Y5292D01*
X6324Y5102D01*
G37*
G36*
X6070Y5102D02*
X5920Y5102D01*
X5920Y5292D01*
X6070Y5292D01*
X6070Y5102D01*
G37*
G36*
X5816Y5102D02*
X5666Y5102D01*
X5666Y5292D01*
X5816Y5292D01*
X5816Y5102D01*
G37*
G36*
X6578Y4268D02*
X6428Y4268D01*
X6428Y4458D01*
X6578Y4458D01*
X6578Y4268D01*
G37*
G36*
X6070Y4268D02*
X5920Y4268D01*
X5920Y4458D01*
X6070Y4458D01*
X6070Y4268D01*
G37*
G36*
X5816Y4268D02*
X5666Y4268D01*
X5666Y4458D01*
X5816Y4458D01*
X5816Y4268D01*
G37*
G36*
X7610Y5102D02*
X7460Y5102D01*
X7460Y5292D01*
X7610Y5292D01*
X7610Y5102D01*
G37*
G36*
X7356Y5102D02*
X7206Y5102D01*
X7206Y5292D01*
X7356Y5292D01*
X7356Y5102D01*
G37*
G36*
X7102Y5102D02*
X6952Y5102D01*
X6952Y5292D01*
X7102Y5292D01*
X7102Y5102D01*
G37*
G36*
X6848Y5102D02*
X6698Y5102D01*
X6698Y5292D01*
X6848Y5292D01*
X6848Y5102D01*
G37*
G36*
X7610Y4268D02*
X7460Y4268D01*
X7460Y4458D01*
X7610Y4458D01*
X7610Y4268D01*
G37*
G36*
X7102Y4268D02*
X6952Y4268D01*
X6952Y4458D01*
X7102Y4458D01*
X7102Y4268D01*
G37*
G36*
X6848Y4268D02*
X6698Y4268D01*
X6698Y4458D01*
X6848Y4458D01*
X6848Y4268D01*
G37*
G54D17*
X3897Y4404D02*
X3897Y4650D01*
X5636Y4650D01*
X5846Y4809D01*
X5977Y4809D01*
X7279Y4730D02*
G54D12*
D03*
X7279Y4682D02*
G54D12*
D03*
X7279Y4634D02*
G54D12*
D03*
X7279Y4587D02*
G54D12*
D03*
X7239Y4706D02*
G54D12*
D03*
X7239Y4658D02*
G54D12*
D03*
X7239Y4602D02*
G54D12*
D03*
G54D17*
X4953Y4388D02*
X4953Y4642D01*
G54D17*
X7247Y4658D02*
X6215Y4658D01*
X5985Y4428D01*
G54D17*
X7033Y4658D02*
X7033Y4364D01*
X3977Y3888D02*
G54D11*
D03*
X4577Y3888D02*
G54D11*
D03*
X5177Y3888D02*
G54D11*
D03*
X5777Y3888D02*
G54D11*
D03*
X6377Y3888D02*
G54D11*
D03*
X6993Y3872D02*
G54D11*
D03*
G54D17*
X4405Y4333D02*
X4405Y4047D01*
X4516Y3936D01*
G54D17*
X5469Y4317D02*
X5469Y4182D01*
X5707Y3944D01*
G54D17*
X6358Y3999D02*
X6358Y4190D01*
X6493Y4325D01*
X3651Y5166D02*
G54D12*
D03*
X4707Y5150D02*
G54D12*
D03*
G54D13*
X3691Y5110D02*
X3691Y5055D01*
X3723Y5023D01*
X4636Y5023D01*
X4707Y5095D01*
X4707Y5063D01*
X4747Y5023D01*
X5652Y5023D01*
X5739Y5110D01*
X6013Y4782D02*
G54D12*
D03*
X5966Y4782D02*
G54D12*
D03*
X5918Y4782D02*
G54D12*
D03*
X5870Y4782D02*
G54D12*
D03*
X5989Y4822D02*
G54D12*
D03*
X5942Y4822D02*
G54D12*
D03*
X5886Y4822D02*
G54D12*
D03*
G54D13*
X5778Y5198D02*
X6017Y5198D01*
X6160Y5063D01*
X6699Y5063D01*
X6771Y5134D01*
G36*
X5879Y5526D02*
X5789Y5526D01*
X5789Y5616D01*
X5879Y5616D01*
X5879Y5526D01*
G37*
G36*
X5712Y5527D02*
X5622Y5527D01*
X5622Y5617D01*
X5712Y5617D01*
X5712Y5527D01*
G37*
G36*
X6018Y5779D02*
X6018Y5689D01*
X5928Y5689D01*
X5928Y5779D01*
X6018Y5779D01*
G37*
G36*
X6017Y5612D02*
X6017Y5522D01*
X5927Y5522D01*
X5927Y5612D01*
X6017Y5612D01*
G37*
G36*
X6137Y5779D02*
X6137Y5689D01*
X6047Y5689D01*
X6047Y5779D01*
X6137Y5779D01*
G37*
G36*
X6136Y5612D02*
X6136Y5522D01*
X6046Y5522D01*
X6046Y5612D01*
X6136Y5612D01*
G37*
X6144Y5746D02*
G54D12*
D03*
X5977Y5753D02*
G54D12*
D03*
G54D13*
X5977Y5587D02*
X5977Y5650D01*
X6279Y5650D01*
X6279Y5769D01*
X6556Y5769D01*
X6630Y5674D01*
X6632Y5555D01*
X7199Y5555D01*
X7199Y5372D01*
X7287Y5285D01*
G36*
X4550Y5715D02*
X4550Y5625D01*
X4460Y5625D01*
X4460Y5715D01*
X4550Y5715D01*
G37*
G36*
X4549Y5548D02*
X4549Y5458D01*
X4459Y5458D01*
X4459Y5548D01*
X4549Y5548D01*
G37*
G36*
X4669Y5715D02*
X4669Y5625D01*
X4579Y5625D01*
X4579Y5715D01*
X4669Y5715D01*
G37*
G36*
X4668Y5548D02*
X4668Y5458D01*
X4578Y5458D01*
X4578Y5548D01*
X4668Y5548D01*
G37*
G36*
X4788Y5715D02*
X4788Y5625D01*
X4698Y5625D01*
X4698Y5715D01*
X4788Y5715D01*
G37*
G36*
X4787Y5548D02*
X4787Y5458D01*
X4697Y5458D01*
X4697Y5548D01*
X4787Y5548D01*
G37*
X5715Y6293D02*
G54D12*
D03*
X5247Y6301D02*
G54D12*
D03*
X4207Y6158D02*
G54D12*
D03*
G54D13*
X5247Y6301D02*
X5707Y6301D01*
G54D13*
X4207Y6158D02*
X4207Y5976D01*
X4493Y5690D01*
X5715Y6396D02*
G54D12*
D03*
X5421Y6396D02*
G54D12*
D03*
G54D13*
X5421Y6396D02*
X5715Y6396D01*
G54D13*
X4747Y5682D02*
X4747Y5690D01*
X4770Y5714D01*
X5453Y5714D01*
X5493Y5753D01*
G54D13*
X4508Y5492D02*
X4413Y5492D01*
X4143Y5222D01*
X4628Y5412D02*
G54D12*
D03*
X4747Y5412D02*
G54D12*
D03*
G54D13*
X4628Y5412D02*
X4628Y5476D01*
G54D13*
X4747Y5412D02*
X4747Y5484D01*
X7564Y4063D02*
G54D11*
D03*
G54D17*
X7533Y4348D02*
X7533Y4102D01*
X7572Y4063D01*
X4858Y6373D02*
G54D12*
D03*
G54D13*
X4858Y6373D02*
X4858Y6103D01*
G54D13*
X3635Y5222D02*
X3635Y5253D01*
X3913Y5531D01*
X5540Y5579D02*
G54D12*
D03*
G54D13*
X5540Y5579D02*
X5644Y5579D01*
X5326Y5579D02*
G54D12*
D03*
G54D13*
X5326Y5579D02*
X5326Y5603D01*
X5382Y5658D01*
X5540Y5658D01*
X5636Y5753D01*
X5977Y5753D01*
G54D13*
X6096Y5563D02*
X6358Y5563D01*
X6358Y5301D01*
X6279Y5222D01*
G54D13*
X5207Y5238D02*
X5207Y5388D01*
X5294Y5476D01*
X5778Y5476D01*
X5850Y5547D01*
G54D13*
X6374Y5817D02*
X4818Y5817D01*
X4651Y5984D01*
G54D14*
X4643Y6119D02*
X4643Y6293D01*
X4262Y6293D01*
X4262Y6650D01*
X4310Y6150D02*
G54D12*
D03*
G54D13*
X4310Y6150D02*
X4310Y6071D01*
X4620Y5761D01*
X4620Y5682D01*
G36*
X5789Y6751D02*
X5879Y6751D01*
X5879Y6661D01*
X5789Y6661D01*
X5789Y6751D01*
G37*
G36*
X5956Y6750D02*
X6046Y6750D01*
X6046Y6660D01*
X5956Y6660D01*
X5956Y6750D01*
G37*
G36*
X5789Y6632D02*
X5879Y6632D01*
X5879Y6542D01*
X5789Y6542D01*
X5789Y6632D01*
G37*
G36*
X5956Y6631D02*
X6046Y6631D01*
X6046Y6541D01*
X5956Y6541D01*
X5956Y6631D01*
G37*
X5636Y6706D02*
G54D12*
D03*
G54D13*
X5636Y6706D02*
X5810Y6706D01*
G54D13*
X6009Y6595D02*
X6009Y6706D01*
X6088Y6706D01*
M02*
